<?xml version="1.0" encoding="UTF-8" standalone="no"?>
<!DOCTYPE svg PUBLIC "-//W3C//DTD SVG 1.1//EN"
 "http://www.w3.org/Graphics/SVG/1.1/DTD/svg11.dtd">
<!-- Generated by graphviz version 13.1.0 (20250701.0955)
 -->
<!-- Title: TaskManagement.Application.Exceptions.ValidationException Pages: 1 -->
<svg width="153pt" height="201pt"
 viewBox="0.00 0.00 153.00 201.00" xmlns="http://www.w3.org/2000/svg" xmlns:xlink="http://www.w3.org/1999/xlink">

<svg id="main" version="1.1" xmlns="http://www.w3.org/2000/svg" xmlns:xlink="http://www.w3.org/1999/xlink" xml:space="preserve">

<style type="text/css"><![CDATA[
.node, .edge {opacity: 0.7;}
.node.selected, .edge.selected {opacity: 1;}
.edge:hover path { stroke: red; }
.edge:hover polygon { stroke: red; fill: red; }
]]></style>
<script type="application/ecmascript" xlink:href="svg.min.js"/>
<svg id="graph" class="graph">
<g id="graph0" class="graph" transform="scale(1 1) rotate(0) translate(4 196.5)">
<title>TaskManagement.Application.Exceptions.ValidationException</title>
<!-- Node1 -->
<g id="Node000001" class="node">
<title>Node1</title>
<g id="a_Node000001"><a xlink:title="ValidationException se lanza cuando la validación de entrada falla en la capa de aplicación.">
<polygon fill="#999999" stroke="none" points="145.25,-106.75 0,-106.75 0,0 145.25,0 145.25,-106.75"/>
<text xml:space="preserve" text-anchor="start" x="4" y="-93.25" font-family="Helvetica,sans-Serif" font-size="10.00">TaskManagement.Application.</text>
<text xml:space="preserve" text-anchor="start" x="4" y="-82" font-family="Helvetica,sans-Serif" font-size="10.00">Exceptions.ValidationException</text>
<text xml:space="preserve" text-anchor="start" x="12.94" y="-66.75" font-family="Helvetica,sans-Serif" font-size="10.00">+</text>
<text xml:space="preserve" text-anchor="start" x="31.88" y="-66.75" font-family="Helvetica,sans-Serif" font-size="10.00">Errors</text>
<text xml:space="preserve" text-anchor="start" x="12.94" y="-51.5" font-family="Helvetica,sans-Serif" font-size="10.00">+</text>
<text xml:space="preserve" text-anchor="start" x="31.88" y="-51.5" font-family="Helvetica,sans-Serif" font-size="10.00">ValidationException()</text>
<text xml:space="preserve" text-anchor="start" x="12.94" y="-36.25" font-family="Helvetica,sans-Serif" font-size="10.00">+</text>
<text xml:space="preserve" text-anchor="start" x="31.88" y="-36.25" font-family="Helvetica,sans-Serif" font-size="10.00">ValidationException()</text>
<text xml:space="preserve" text-anchor="start" x="12.94" y="-21" font-family="Helvetica,sans-Serif" font-size="10.00">+</text>
<text xml:space="preserve" text-anchor="start" x="31.88" y="-21" font-family="Helvetica,sans-Serif" font-size="10.00">ValidationException()</text>
<text xml:space="preserve" text-anchor="start" x="12.94" y="-5.75" font-family="Helvetica,sans-Serif" font-size="10.00">+</text>
<text xml:space="preserve" text-anchor="start" x="31.88" y="-5.75" font-family="Helvetica,sans-Serif" font-size="10.00">ValidationException()</text>
<polygon fill="#666666" stroke="#666666" points="0,-78.25 0,-78.25 145.25,-78.25 145.25,-78.25 0,-78.25"/>
<polygon fill="#666666" stroke="#666666" points="0,-63 0,-63 29.88,-63 29.88,-63 0,-63"/>
<polygon fill="#666666" stroke="#666666" points="29.88,-63 29.88,-63 145.25,-63 145.25,-63 29.88,-63"/>
<polygon fill="none" stroke="#666666" points="0,0 0,-106.75 145.25,-106.75 145.25,0 0,0"/>
</a>
</g>
</g>
<!-- Node2 -->
<g id="Node000002" class="node">
<title>Node2</title>
<g id="a_Node000002"><a xlink:href="classException.html" target="_top" xlink:title=" ">
<polygon fill="white" stroke="none" points="98.38,-192.5 46.88,-192.5 46.88,-142.75 98.38,-142.75 98.38,-192.5"/>
<text xml:space="preserve" text-anchor="start" x="50.88" y="-179" font-family="Helvetica,sans-Serif" font-size="10.00">Exception</text>
<text xml:space="preserve" text-anchor="start" x="71.12" y="-163.75" font-family="Helvetica,sans-Serif" font-size="10.00"> </text>
<text xml:space="preserve" text-anchor="start" x="71.12" y="-148.5" font-family="Helvetica,sans-Serif" font-size="10.00"> </text>
<polygon fill="#bfbfbf" stroke="#bfbfbf" points="46.88,-175.25 46.88,-175.25 98.38,-175.25 98.38,-175.25 46.88,-175.25"/>
<polygon fill="#bfbfbf" stroke="#bfbfbf" points="46.88,-160 46.88,-160 98.38,-160 98.38,-160 46.88,-160"/>
<polygon fill="none" stroke="#bfbfbf" points="46.88,-142.75 46.88,-192.5 98.38,-192.5 98.38,-142.75 46.88,-142.75"/>
</a>
</g>
</g>
<!-- Node2&#45;&gt;Node1 -->
<g id="edge1_Node000001_Node000002" class="edge">
<title>Node2&#45;&gt;Node1</title>
<g id="a_edge1_Node000001_Node000002"><a xlink:title=" ">
<path fill="none" stroke="#63b8ff" d="M72.62,-131.35C72.62,-123.4 72.62,-114.8 72.62,-106.32"/>
<polygon fill="none" stroke="#63b8ff" points="69.13,-131.31 72.63,-141.31 76.13,-131.31 69.13,-131.31"/>
</a>
</g>
</g>
</g>
</svg>
</svg>

<style type='text/css'>
<![CDATA[
[data-mouse-over-selected='false'] { opacity: 0.7; }
[data-mouse-over-selected='true']  { opacity: 1.0; }
]]>
</style>
<script type="application/ecmascript"><![CDATA[
document.addEventListener('DOMContentLoaded', (event) => {
  highlightEdges();
  highlightAdjacentNodes();
});
]]></script>
</svg>
