<?xml version="1.0" encoding="UTF-8" standalone="no"?>
<!DOCTYPE svg PUBLIC "-//W3C//DTD SVG 1.1//EN"
 "http://www.w3.org/Graphics/SVG/1.1/DTD/svg11.dtd">
<!-- Generated by graphviz version 13.1.0 (20250701.0955)
 -->
<!-- Title: TaskManagement.Domain.Entities.TaskItem.Create Pages: 1 -->
<svg width="601pt" height="137pt"
 viewBox="0.00 0.00 601.00 137.00" xmlns="http://www.w3.org/2000/svg" xmlns:xlink="http://www.w3.org/1999/xlink">
<g id="graph0" class="graph" transform="scale(1 1) rotate(0) translate(4 132.5)">
<title>TaskManagement.Domain.Entities.TaskItem.Create</title>
<!-- Node1 -->
<g id="Node000001" class="node">
<title>Node1</title>
<g id="a_Node000001"><a xlink:title=" ">
<polygon fill="#999999" stroke="#666666" points="169,-79.5 0,-79.5 0,-49 169,-49 169,-79.5"/>
<text xml:space="preserve" text-anchor="start" x="8" y="-66" font-family="Helvetica,sans-Serif" font-size="10.00">TaskManagement.Domain.Entities.</text>
<text xml:space="preserve" text-anchor="middle" x="84.5" y="-54.75" font-family="Helvetica,sans-Serif" font-size="10.00">TaskItem.Create</text>
</a>
</g>
</g>
<!-- Node2 -->
<g id="Node000002" class="node">
<title>Node2</title>
<g id="a_Node000002"><a xlink:href="classTaskManagement_1_1Domain_1_1Common_1_1Result.html#abb0443b136478238351871e1c1621a33" target="_top" xlink:title=" ">
<polygon fill="white" stroke="#666666" points="380.75,-128.5 205,-128.5 205,-98 380.75,-98 380.75,-128.5"/>
<text xml:space="preserve" text-anchor="start" x="213" y="-115" font-family="Helvetica,sans-Serif" font-size="10.00">TaskManagement.Domain.Common.</text>
<text xml:space="preserve" text-anchor="middle" x="292.88" y="-103.75" font-family="Helvetica,sans-Serif" font-size="10.00">Result.Failure</text>
</a>
</g>
</g>
<!-- Node1&#45;&gt;Node2 -->
<g id="edge1_Node000001_Node000002" class="edge">
<title>Node1&#45;&gt;Node2</title>
<g id="a_edge1_Node000001_Node000002"><a xlink:title=" ">
<path fill="none" stroke="#63b8ff" d="M151.65,-79.96C171.74,-84.73 193.98,-90.01 214.73,-94.93"/>
<polygon fill="#63b8ff" stroke="#63b8ff" points="213.73,-98.29 224.27,-97.2 215.35,-91.48 213.73,-98.29"/>
</a>
</g>
</g>
<!-- Node4 -->
<g id="Node000004" class="node">
<title>Node4</title>
<g id="a_Node000004"><a xlink:href="classTaskManagement_1_1Domain_1_1Common_1_1Result.html#aca3f1594f7b60690fbe65d1d6436d64d" target="_top" xlink:title=" ">
<polygon fill="white" stroke="#666666" points="380.75,-79.5 205,-79.5 205,-49 380.75,-49 380.75,-79.5"/>
<text xml:space="preserve" text-anchor="start" x="213" y="-66" font-family="Helvetica,sans-Serif" font-size="10.00">TaskManagement.Domain.Common.</text>
<text xml:space="preserve" text-anchor="middle" x="292.88" y="-54.75" font-family="Helvetica,sans-Serif" font-size="10.00">Result.Success</text>
</a>
</g>
</g>
<!-- Node1&#45;&gt;Node4 -->
<g id="edge3_Node000001_Node000004" class="edge">
<title>Node1&#45;&gt;Node4</title>
<g id="a_edge3_Node000001_Node000004"><a xlink:title=" ">
<path fill="none" stroke="#63b8ff" d="M169.44,-64.25C177.33,-64.25 185.37,-64.25 193.38,-64.25"/>
<polygon fill="#63b8ff" stroke="#63b8ff" points="193.14,-67.75 203.14,-64.25 193.14,-60.75 193.14,-67.75"/>
</a>
</g>
</g>
<!-- Node5 -->
<g id="Node000005" class="node">
<title>Node5</title>
<g id="a_Node000005"><a xlink:href="classTaskManagement_1_1Domain_1_1Entities_1_1TaskItem.html#afe194753a4db6cecf52709516946c63d" target="_top" xlink:title=" ">
<polygon fill="white" stroke="#666666" points="377.38,-30.5 208.38,-30.5 208.38,0 377.38,0 377.38,-30.5"/>
<text xml:space="preserve" text-anchor="start" x="216.38" y="-17" font-family="Helvetica,sans-Serif" font-size="10.00">TaskManagement.Domain.Entities.</text>
<text xml:space="preserve" text-anchor="middle" x="292.88" y="-5.75" font-family="Helvetica,sans-Serif" font-size="10.00">TaskItem.TaskItem</text>
</a>
</g>
</g>
<!-- Node1&#45;&gt;Node5 -->
<g id="edge5_Node000001_Node000005" class="edge">
<title>Node1&#45;&gt;Node5</title>
<g id="a_edge5_Node000001_Node000005"><a xlink:title=" ">
<path fill="none" stroke="#63b8ff" d="M151.65,-48.54C171.74,-43.77 193.98,-38.49 214.73,-33.57"/>
<polygon fill="#63b8ff" stroke="#63b8ff" points="215.35,-37.02 224.27,-31.3 213.73,-30.21 215.35,-37.02"/>
</a>
</g>
</g>
<!-- Node3 -->
<g id="Node000003" class="node">
<title>Node3</title>
<g id="a_Node000003"><a xlink:href="classTaskManagement_1_1Domain_1_1Common_1_1Result.html#ac72e19a32a39eff6e205a7ed743a20dd" target="_top" xlink:title=" ">
<polygon fill="white" stroke="#666666" points="592.5,-103.5 416.75,-103.5 416.75,-73 592.5,-73 592.5,-103.5"/>
<text xml:space="preserve" text-anchor="start" x="424.75" y="-90" font-family="Helvetica,sans-Serif" font-size="10.00">TaskManagement.Domain.Common.</text>
<text xml:space="preserve" text-anchor="middle" x="504.62" y="-78.75" font-family="Helvetica,sans-Serif" font-size="10.00">Result.Result</text>
</a>
</g>
</g>
<!-- Node2&#45;&gt;Node3 -->
<g id="edge2_Node000002_Node000003" class="edge">
<title>Node2&#45;&gt;Node3</title>
<g id="a_edge2_Node000002_Node000003"><a xlink:title=" ">
<path fill="none" stroke="#63b8ff" d="M381.01,-102.86C388.96,-101.92 397.06,-100.95 405.11,-99.99"/>
<polygon fill="#63b8ff" stroke="#63b8ff" points="405.41,-103.48 414.93,-98.82 404.58,-96.53 405.41,-103.48"/>
</a>
</g>
</g>
<!-- Node4&#45;&gt;Node3 -->
<g id="edge4_Node000004_Node000003" class="edge">
<title>Node4&#45;&gt;Node3</title>
<g id="a_edge4_Node000004_Node000003"><a xlink:title=" ">
<path fill="none" stroke="#63b8ff" d="M381.01,-74.22C388.96,-75.13 397.06,-76.06 405.11,-76.98"/>
<polygon fill="#63b8ff" stroke="#63b8ff" points="404.59,-80.44 414.92,-78.1 405.39,-73.49 404.59,-80.44"/>
</a>
</g>
</g>
</g>
</svg>
