<?xml version="1.0" encoding="UTF-8" standalone="no"?>
<!DOCTYPE svg PUBLIC "-//W3C//DTD SVG 1.1//EN"
 "http://www.w3.org/Graphics/SVG/1.1/DTD/svg11.dtd">
<!-- Generated by graphviz version 13.1.0 (20250701.0955)
 -->
<!-- Title: ControllerBase Pages: 1 -->
<svg width="166pt" height="201pt"
 viewBox="0.00 0.00 166.00 201.00" xmlns="http://www.w3.org/2000/svg" xmlns:xlink="http://www.w3.org/1999/xlink">
<g id="graph0" class="graph" transform="scale(1 1) rotate(0) translate(4 196.5)">
<title>ControllerBase</title>
<!-- Node1 -->
<g id="Node000001" class="node">
<title>Node1</title>
<g id="a_Node000001"><a xlink:title=" ">
<polygon fill="#999999" stroke="none" points="115.25,-192.5 42.75,-192.5 42.75,-142.75 115.25,-142.75 115.25,-192.5"/>
<text xml:space="preserve" text-anchor="start" x="46.75" y="-179" font-family="Helvetica,sans-Serif" font-size="10.00">ControllerBase</text>
<text xml:space="preserve" text-anchor="start" x="77.5" y="-163.75" font-family="Helvetica,sans-Serif" font-size="10.00"> </text>
<text xml:space="preserve" text-anchor="start" x="77.5" y="-148.5" font-family="Helvetica,sans-Serif" font-size="10.00"> </text>
<polygon fill="#666666" stroke="#666666" points="42.75,-175.25 42.75,-175.25 115.25,-175.25 115.25,-175.25 42.75,-175.25"/>
<polygon fill="#666666" stroke="#666666" points="42.75,-160 42.75,-160 115.25,-160 115.25,-160 42.75,-160"/>
<polygon fill="none" stroke="#666666" points="42.75,-142.75 42.75,-192.5 115.25,-192.5 115.25,-142.75 42.75,-142.75"/>
</a>
</g>
</g>
<!-- Node2 -->
<g id="Node000002" class="node">
<title>Node2</title>
<g id="a_Node000002"><a xlink:title=" ">
<polygon fill="white" stroke="none" points="158,-106.75 0,-106.75 0,0 158,0 158,-106.75"/>
<text xml:space="preserve" text-anchor="start" x="4" y="-93.25" font-family="Helvetica,sans-Serif" font-size="10.00">TaskManagement.API.Controllers.</text>
<text xml:space="preserve" text-anchor="start" x="44.88" y="-82" font-family="Helvetica,sans-Serif" font-size="10.00">TasksController</text>
<text xml:space="preserve" text-anchor="start" x="77.5" y="-66.75" font-family="Helvetica,sans-Serif" font-size="10.00"> </text>
<text xml:space="preserve" text-anchor="start" x="20.44" y="-51.5" font-family="Helvetica,sans-Serif" font-size="10.00">+</text>
<text xml:space="preserve" text-anchor="start" x="46.88" y="-51.5" font-family="Helvetica,sans-Serif" font-size="10.00">TasksController()</text>
<text xml:space="preserve" text-anchor="start" x="20.44" y="-36.25" font-family="Helvetica,sans-Serif" font-size="10.00">+</text>
<text xml:space="preserve" text-anchor="start" x="46.88" y="-36.25" font-family="Helvetica,sans-Serif" font-size="10.00">GetById()</text>
<text xml:space="preserve" text-anchor="start" x="20.44" y="-21" font-family="Helvetica,sans-Serif" font-size="10.00">+</text>
<text xml:space="preserve" text-anchor="start" x="46.88" y="-21" font-family="Helvetica,sans-Serif" font-size="10.00">Create()</text>
<text xml:space="preserve" text-anchor="start" x="20.44" y="-5.75" font-family="Helvetica,sans-Serif" font-size="10.00">+</text>
<text xml:space="preserve" text-anchor="start" x="46.88" y="-5.75" font-family="Helvetica,sans-Serif" font-size="10.00">Complete()</text>
<polygon fill="#666666" stroke="#666666" points="0,-78.25 0,-78.25 158,-78.25 158,-78.25 0,-78.25"/>
<polygon fill="#666666" stroke="#666666" points="0,-63 0,-63 158,-63 158,-63 0,-63"/>
<polygon fill="none" stroke="#666666" points="0,0 0,-106.75 158,-106.75 158,0 0,0"/>
</a>
</g>
</g>
<!-- Node1&#45;&gt;Node2 -->
<g id="edge1_Node000001_Node000002" class="edge">
<title>Node1&#45;&gt;Node2</title>
<g id="a_edge1_Node000001_Node000002"><a xlink:title=" ">
<path fill="none" stroke="#63b8ff" d="M79,-131.35C79,-123.4 79,-114.8 79,-106.32"/>
<polygon fill="none" stroke="#63b8ff" points="75.5,-131.31 79,-141.31 82.5,-131.31 75.5,-131.31"/>
</a>
</g>
</g>
</g>
</svg>
