<?xml version="1.0" encoding="UTF-8" standalone="no"?>
<!DOCTYPE svg PUBLIC "-//W3C//DTD SVG 1.1//EN"
 "http://www.w3.org/Graphics/SVG/1.1/DTD/svg11.dtd">
<!-- Generated by graphviz version 13.1.0 (20250701.0955)
 -->
<!-- Title: TaskManagement.Domain.Entities.TaskItem.UpdatePriority Pages: 1 -->
<svg width="601pt" height="88pt"
 viewBox="0.00 0.00 601.00 88.00" xmlns="http://www.w3.org/2000/svg" xmlns:xlink="http://www.w3.org/1999/xlink">
<g id="page0,1_graph0" class="graph" transform="scale(1 1) rotate(0) translate(4 83.5)">
<title>TaskManagement.Domain.Entities.TaskItem.UpdatePriority</title>
<!-- Node1 -->
<g id="Node000001" class="node">
<title>Node1</title>
<g id="a_Node000001"><a xlink:title=" ">
<polygon fill="#999999" stroke="#666666" points="169,-54.5 0,-54.5 0,-24 169,-24 169,-54.5"/>
<text xml:space="preserve" text-anchor="start" x="8" y="-41" font-family="Helvetica,sans-Serif" font-size="10.00">TaskManagement.Domain.Entities.</text>
<text xml:space="preserve" text-anchor="middle" x="84.5" y="-29.75" font-family="Helvetica,sans-Serif" font-size="10.00">TaskItem.UpdatePriority</text>
</a>
</g>
</g>
<!-- Node2 -->
<g id="Node000002" class="node">
<title>Node2</title>
<g id="a_Node000002"><a xlink:href="classTaskManagement_1_1Domain_1_1Common_1_1Result.html#abb0443b136478238351871e1c1621a33" target="_top" xlink:title=" ">
<polygon fill="white" stroke="#666666" points="380.75,-79.5 205,-79.5 205,-49 380.75,-49 380.75,-79.5"/>
<text xml:space="preserve" text-anchor="start" x="213" y="-66" font-family="Helvetica,sans-Serif" font-size="10.00">TaskManagement.Domain.Common.</text>
<text xml:space="preserve" text-anchor="middle" x="292.88" y="-54.75" font-family="Helvetica,sans-Serif" font-size="10.00">Result.Failure</text>
</a>
</g>
</g>
<!-- Node1&#45;&gt;Node2 -->
<g id="edge1_Node000001_Node000002" class="edge">
<title>Node1&#45;&gt;Node2</title>
<g id="a_edge1_Node000001_Node000002"><a xlink:title=" ">
<path fill="none" stroke="#63b8ff" d="M169.44,-49.42C177.33,-50.37 185.37,-51.35 193.38,-52.32"/>
<polygon fill="#63b8ff" stroke="#63b8ff" points="192.8,-55.77 203.15,-53.5 193.64,-48.82 192.8,-55.77"/>
</a>
</g>
</g>
<!-- Node4 -->
<g id="Node000004" class="node">
<title>Node4</title>
<g id="a_Node000004"><a xlink:href="classTaskManagement_1_1Domain_1_1Common_1_1Result.html#aca3f1594f7b60690fbe65d1d6436d64d" target="_top" xlink:title=" ">
<polygon fill="white" stroke="#666666" points="380.75,-30.5 205,-30.5 205,0 380.75,0 380.75,-30.5"/>
<text xml:space="preserve" text-anchor="start" x="213" y="-17" font-family="Helvetica,sans-Serif" font-size="10.00">TaskManagement.Domain.Common.</text>
<text xml:space="preserve" text-anchor="middle" x="292.88" y="-5.75" font-family="Helvetica,sans-Serif" font-size="10.00">Result.Success</text>
</a>
</g>
</g>
<!-- Node1&#45;&gt;Node4 -->
<g id="edge3_Node000001_Node000004" class="edge">
<title>Node1&#45;&gt;Node4</title>
<g id="a_edge3_Node000001_Node000004"><a xlink:title=" ">
<path fill="none" stroke="#63b8ff" d="M169.44,-29.49C177.33,-28.57 185.37,-27.64 193.38,-26.7"/>
<polygon fill="#63b8ff" stroke="#63b8ff" points="193.62,-30.2 203.15,-25.57 192.81,-23.25 193.62,-30.2"/>
</a>
</g>
</g>
<!-- Node3 -->
<g id="Node000003" class="node">
<title>Node3</title>
<g id="a_Node000003"><a xlink:href="classTaskManagement_1_1Domain_1_1Common_1_1Result.html#ac72e19a32a39eff6e205a7ed743a20dd" target="_top" xlink:title=" ">
<polygon fill="white" stroke="#666666" points="592.5,-54.5 416.75,-54.5 416.75,-24 592.5,-24 592.5,-54.5"/>
<text xml:space="preserve" text-anchor="start" x="424.75" y="-41" font-family="Helvetica,sans-Serif" font-size="10.00">TaskManagement.Domain.Common.</text>
<text xml:space="preserve" text-anchor="middle" x="504.62" y="-29.75" font-family="Helvetica,sans-Serif" font-size="10.00">Result.Result</text>
</a>
</g>
</g>
<!-- Node2&#45;&gt;Node3 -->
<g id="edge2_Node000002_Node000003" class="edge">
<title>Node2&#45;&gt;Node3</title>
<g id="a_edge2_Node000002_Node000003"><a xlink:title=" ">
<path fill="none" stroke="#63b8ff" d="M381.01,-53.86C388.96,-52.92 397.06,-51.95 405.11,-50.99"/>
<polygon fill="#63b8ff" stroke="#63b8ff" points="405.41,-54.48 414.93,-49.82 404.58,-47.53 405.41,-54.48"/>
</a>
</g>
</g>
<!-- Node4&#45;&gt;Node3 -->
<g id="edge4_Node000004_Node000003" class="edge">
<title>Node4&#45;&gt;Node3</title>
<g id="a_edge4_Node000004_Node000003"><a xlink:title=" ">
<path fill="none" stroke="#63b8ff" d="M381.01,-25.22C388.96,-26.13 397.06,-27.06 405.11,-27.98"/>
<polygon fill="#63b8ff" stroke="#63b8ff" points="404.59,-31.44 414.92,-29.1 405.39,-24.49 404.59,-31.44"/>
</a>
</g>
</g>
</g>
</svg>
