<?xml version="1.0" encoding="UTF-8" standalone="no"?>
<!DOCTYPE svg PUBLIC "-//W3C//DTD SVG 1.1//EN"
 "http://www.w3.org/Graphics/SVG/1.1/DTD/svg11.dtd">
<!-- Generated by graphviz version 13.1.0 (20250701.0955)
 -->
<!-- Title: TaskManagement.Infrastructure.Persistence.TaskDbContext Pages: 1 -->
<svg width="220pt" height="181pt"
 viewBox="0.00 0.00 220.00 181.00" xmlns="http://www.w3.org/2000/svg" xmlns:xlink="http://www.w3.org/1999/xlink">

<svg id="main" version="1.1" xmlns="http://www.w3.org/2000/svg" xmlns:xlink="http://www.w3.org/1999/xlink" xml:space="preserve">

<style type="text/css"><![CDATA[
.node, .edge {opacity: 0.7;}
.node.selected, .edge.selected {opacity: 1;}
.edge:hover path { stroke: red; }
.edge:hover polygon { stroke: red; fill: red; }
]]></style>
<script type="application/ecmascript" xlink:href="svg.min.js"/>
<svg id="graph" class="graph">
<g id="graph0" class="graph" transform="scale(1 1) rotate(0) translate(4 177.25)">
<title>TaskManagement.Infrastructure.Persistence.TaskDbContext</title>
<!-- Node1 -->
<g id="Node000001" class="node">
<title>Node1</title>
<g id="a_Node000001"><a xlink:title="TaskDbContext es el DbContext de Entity Framework Core para gestión de tareas.">
<polygon fill="#999999" stroke="none" points="159.12,-76.25 10.12,-76.25 10.12,0 159.12,0 159.12,-76.25"/>
<text xml:space="preserve" text-anchor="start" x="14.12" y="-62.75" font-family="Helvetica,sans-Serif" font-size="10.00">TaskManagement.Infrastructure.</text>
<text xml:space="preserve" text-anchor="start" x="23.12" y="-51.5" font-family="Helvetica,sans-Serif" font-size="10.00">Persistence.TaskDbContext</text>
<text xml:space="preserve" text-anchor="start" x="26.44" y="-36.25" font-family="Helvetica,sans-Serif" font-size="10.00">+</text>
<text xml:space="preserve" text-anchor="start" x="48.75" y="-36.25" font-family="Helvetica,sans-Serif" font-size="10.00">Tasks</text>
<text xml:space="preserve" text-anchor="start" x="26.44" y="-21" font-family="Helvetica,sans-Serif" font-size="10.00">+</text>
<text xml:space="preserve" text-anchor="start" x="48.75" y="-21" font-family="Helvetica,sans-Serif" font-size="10.00">TaskDbContext()</text>
<text xml:space="preserve" text-anchor="start" x="26.81" y="-5.75" font-family="Helvetica,sans-Serif" font-size="10.00">#</text>
<text xml:space="preserve" text-anchor="start" x="48.75" y="-5.75" font-family="Helvetica,sans-Serif" font-size="10.00">OnModelCreating()</text>
<polygon fill="#666666" stroke="#666666" points="10.12,-47.75 10.12,-47.75 159.12,-47.75 159.12,-47.75 10.12,-47.75"/>
<polygon fill="#666666" stroke="#666666" points="10.12,-32.5 10.12,-32.5 46.75,-32.5 46.75,-32.5 10.12,-32.5"/>
<polygon fill="#666666" stroke="#666666" points="46.75,-32.5 46.75,-32.5 159.12,-32.5 159.12,-32.5 46.75,-32.5"/>
<polygon fill="none" stroke="#666666" points="10.12,0 10.12,-76.25 159.12,-76.25 159.12,0 10.12,0"/>
</a>
</g>
</g>
<!-- Node2 -->
<g id="Node000002" class="node">
<title>Node2</title>
<g id="a_Node000002"><a xlink:href="classDbContext.html" target="_top" xlink:title=" ">
<polygon fill="white" stroke="none" points="55.25,-167.62 0,-167.62 0,-117.88 55.25,-117.88 55.25,-167.62"/>
<text xml:space="preserve" text-anchor="start" x="4" y="-154.12" font-family="Helvetica,sans-Serif" font-size="10.00">DbContext</text>
<text xml:space="preserve" text-anchor="start" x="26.12" y="-138.88" font-family="Helvetica,sans-Serif" font-size="10.00"> </text>
<text xml:space="preserve" text-anchor="start" x="26.12" y="-123.62" font-family="Helvetica,sans-Serif" font-size="10.00"> </text>
<polygon fill="#666666" stroke="#666666" points="0,-150.38 0,-150.38 55.25,-150.38 55.25,-150.38 0,-150.38"/>
<polygon fill="#666666" stroke="#666666" points="0,-135.12 0,-135.12 55.25,-135.12 55.25,-135.12 0,-135.12"/>
<polygon fill="none" stroke="#666666" points="0,-117.88 0,-167.62 55.25,-167.62 55.25,-117.88 0,-117.88"/>
</a>
</g>
</g>
<!-- Node2&#45;&gt;Node1 -->
<g id="edge1_Node000001_Node000002" class="edge">
<title>Node2&#45;&gt;Node1</title>
<g id="a_edge1_Node000001_Node000002"><a xlink:title=" ">
<path fill="none" stroke="#63b8ff" d="M46.3,-108.12C52,-97.86 58.29,-86.53 64.11,-76.07"/>
<polygon fill="none" stroke="#63b8ff" points="43.38,-106.18 41.58,-116.62 49.5,-109.58 43.38,-106.18"/>
</a>
</g>
</g>
<!-- Node3 -->
<g id="Node000003" class="node">
<title>Node3</title>
<g id="a_Node000003"><a xlink:href="interfaceTaskManagement_1_1Application_1_1Interfaces_1_1IUnitOfWork.html" target="_top" xlink:title="IUnitOfWork es la abstracción para coordinar la persistencia de cambios de entidades.">
<polygon fill="white" stroke="none" points="212.25,-173.25 73,-173.25 73,-112.25 212.25,-112.25 212.25,-173.25"/>
<text xml:space="preserve" text-anchor="start" x="77" y="-159.75" font-family="Helvetica,sans-Serif" font-size="10.00">TaskManagement.Application.</text>
<text xml:space="preserve" text-anchor="start" x="92.38" y="-148.5" font-family="Helvetica,sans-Serif" font-size="10.00">Interfaces.IUnitOfWork</text>
<text xml:space="preserve" text-anchor="start" x="141.12" y="-133.25" font-family="Helvetica,sans-Serif" font-size="10.00"> </text>
<text xml:space="preserve" text-anchor="start" x="83.5" y="-118" font-family="Helvetica,sans-Serif" font-size="10.00">+</text>
<text xml:space="preserve" text-anchor="start" x="100" y="-118" font-family="Helvetica,sans-Serif" font-size="10.00">SaveChangesAsync()</text>
<polygon fill="#666666" stroke="#666666" points="73,-144.75 73,-144.75 212.25,-144.75 212.25,-144.75 73,-144.75"/>
<polygon fill="#666666" stroke="#666666" points="73,-129.5 73,-129.5 212.25,-129.5 212.25,-129.5 73,-129.5"/>
<polygon fill="none" stroke="#666666" points="73,-112.25 73,-173.25 212.25,-173.25 212.25,-112.25 73,-112.25"/>
</a>
</g>
</g>
<!-- Node3&#45;&gt;Node1 -->
<g id="edge2_Node000001_Node000003" class="edge">
<title>Node3&#45;&gt;Node1</title>
<g id="a_edge2_Node000001_Node000003"><a xlink:title=" ">
<path fill="none" stroke="#63b8ff" d="M120.44,-102.5C115.57,-93.87 110.42,-84.76 105.59,-76.22"/>
<polygon fill="none" stroke="#63b8ff" points="117.29,-104.04 125.26,-111.02 123.39,-100.6 117.29,-104.04"/>
</a>
</g>
</g>
</g>
</svg>
</svg>

<style type='text/css'>
<![CDATA[
[data-mouse-over-selected='false'] { opacity: 0.7; }
[data-mouse-over-selected='true']  { opacity: 1.0; }
]]>
</style>
<script type="application/ecmascript"><![CDATA[
document.addEventListener('DOMContentLoaded', (event) => {
  highlightEdges();
  highlightAdjacentNodes();
});
]]></script>
</svg>
