<?xml version="1.0" encoding="UTF-8" standalone="no"?>
<!DOCTYPE svg PUBLIC "-//W3C//DTD SVG 1.1//EN"
 "http://www.w3.org/Graphics/SVG/1.1/DTD/svg11.dtd">
<!-- Generated by graphviz version 13.1.0 (20250701.0955)
 -->
<!-- Title: TaskManagement.Domain.Entities.TaskItem.Create Pages: 1 -->
<!--zoomable 137 -->

<svg id="main" version="1.1" xmlns="http://www.w3.org/2000/svg" xmlns:xlink="http://www.w3.org/1999/xlink" xml:space="preserve" onload="init(evt)">

<style type="text/css"><![CDATA[
.node, .edge {opacity: 0.7;}
.node.selected, .edge.selected {opacity: 1;}
.edge:hover path { stroke: red; }
.edge:hover polygon { stroke: red; fill: red; }
]]></style>

<defs>
  <circle id="rim" cx="0" cy="0" r="7"/>
  <circle id="rim2" cx="0" cy="0" r="3.5"/>
  <g id="zoomPlus">
    <use xlink:href="#rim" fill="#404040"><set attributeName="fill" to="#808080" begin="zoomplus.mouseover" end="zoomplus.mouseout"/></use>
    <path d="M-4,0h8M0,-4v8" fill="none" stroke="white" stroke-width="1.5" pointer-events="none"/>
  </g>
  <g id="zoomMin">
    <use xlink:href="#rim" fill="#404040"><set attributeName="fill" to="#808080" begin="zoomminus.mouseover" end="zoomminus.mouseout"/></use>
    <path d="M-4,0h8" fill="none" stroke="white" stroke-width="1.5" pointer-events="none"/>
  </g>
  <g id="arrowUp" transform="translate(30 24)">
    <use xlink:href="#rim"/>
    <path pointer-events="none" fill="none" stroke="white" stroke-width="1.5" d="M0,-3.0v7 M-2.5,-0.5L0,-3.0L2.5,-0.5"/>
  </g>
  <g id="arrowRight" transform="rotate(90) translate(36 -43)">
    <use xlink:href="#rim"/>
    <path pointer-events="none" fill="none" stroke="white" stroke-width="1.5" d="M0,-3.0v7 M-2.5,-0.5L0,-3.0L2.5,-0.5"/>
  </g>
  <g id="arrowDown" transform="rotate(180) translate(-30 -48)">
    <use xlink:href="#rim"/>
    <path pointer-events="none" fill="none" stroke="white" stroke-width="1.5" d="M0,-3.0v7 M-2.5,-0.5L0,-3.0L2.5,-0.5"/>
  </g>
  <g id="arrowLeft" transform="rotate(270) translate(-36 17)">
    <use xlink:href="#rim"/>
    <path pointer-events="none" fill="none" stroke="white" stroke-width="1.5" d="M0,-3.0v7 M-2.5,-0.5L0,-3.0L2.5,-0.5"/>
  </g>
  <g id="resetDef">
    <use xlink:href="#rim2" fill="#404040"><set attributeName="fill" to="#808080" begin="reset.mouseover" end="reset.mouseout"/></use>
  </g>
</defs>
<script type="application/ecmascript">
var viewWidth = 601;
var viewHeight = 137;
var sectionId = 'dynsection-5';
</script>
<script type="application/ecmascript" xlink:href="svg.min.js"/>
<svg id="graph" class="graph">
<g id="viewport">
<title>TaskManagement.Domain.Entities.TaskItem.Create</title>
<!-- Node1 -->
<g id="Node000001" class="node">
<title>Node1</title>
<g id="a_Node000001"><a xlink:title=" ">
<polygon fill="#999999" stroke="#666666" points="169,-79.5 0,-79.5 0,-49 169,-49 169,-79.5"/>
<text xml:space="preserve" text-anchor="start" x="8" y="-66" font-family="Helvetica,sans-Serif" font-size="10.00">TaskManagement.Domain.Entities.</text>
<text xml:space="preserve" text-anchor="middle" x="84.5" y="-54.75" font-family="Helvetica,sans-Serif" font-size="10.00">TaskItem.Create</text>
</a>
</g>
</g>
<!-- Node2 -->
<g id="Node000002" class="node">
<title>Node2</title>
<g id="a_Node000002"><a xlink:href="classTaskManagement_1_1Domain_1_1Common_1_1Result.html#abb0443b136478238351871e1c1621a33" target="_top" xlink:title=" ">
<polygon fill="white" stroke="#666666" points="380.75,-128.5 205,-128.5 205,-98 380.75,-98 380.75,-128.5"/>
<text xml:space="preserve" text-anchor="start" x="213" y="-115" font-family="Helvetica,sans-Serif" font-size="10.00">TaskManagement.Domain.Common.</text>
<text xml:space="preserve" text-anchor="middle" x="292.88" y="-103.75" font-family="Helvetica,sans-Serif" font-size="10.00">Result.Failure</text>
</a>
</g>
</g>
<!-- Node1&#45;&gt;Node2 -->
<g id="edge1_Node000001_Node000002" class="edge">
<title>Node1&#45;&gt;Node2</title>
<g id="a_edge1_Node000001_Node000002"><a xlink:title=" ">
<path fill="none" stroke="#63b8ff" d="M151.65,-79.96C171.74,-84.73 193.98,-90.01 214.73,-94.93"/>
<polygon fill="#63b8ff" stroke="#63b8ff" points="213.73,-98.29 224.27,-97.2 215.35,-91.48 213.73,-98.29"/>
</a>
</g>
</g>
<!-- Node4 -->
<g id="Node000004" class="node">
<title>Node4</title>
<g id="a_Node000004"><a xlink:href="classTaskManagement_1_1Domain_1_1Common_1_1Result.html#aca3f1594f7b60690fbe65d1d6436d64d" target="_top" xlink:title=" ">
<polygon fill="white" stroke="#666666" points="380.75,-79.5 205,-79.5 205,-49 380.75,-49 380.75,-79.5"/>
<text xml:space="preserve" text-anchor="start" x="213" y="-66" font-family="Helvetica,sans-Serif" font-size="10.00">TaskManagement.Domain.Common.</text>
<text xml:space="preserve" text-anchor="middle" x="292.88" y="-54.75" font-family="Helvetica,sans-Serif" font-size="10.00">Result.Success</text>
</a>
</g>
</g>
<!-- Node1&#45;&gt;Node4 -->
<g id="edge3_Node000001_Node000004" class="edge">
<title>Node1&#45;&gt;Node4</title>
<g id="a_edge3_Node000001_Node000004"><a xlink:title=" ">
<path fill="none" stroke="#63b8ff" d="M169.44,-64.25C177.33,-64.25 185.37,-64.25 193.38,-64.25"/>
<polygon fill="#63b8ff" stroke="#63b8ff" points="193.14,-67.75 203.14,-64.25 193.14,-60.75 193.14,-67.75"/>
</a>
</g>
</g>
<!-- Node5 -->
<g id="Node000005" class="node">
<title>Node5</title>
<g id="a_Node000005"><a xlink:href="classTaskManagement_1_1Domain_1_1Entities_1_1TaskItem.html#afe194753a4db6cecf52709516946c63d" target="_top" xlink:title=" ">
<polygon fill="white" stroke="#666666" points="377.38,-30.5 208.38,-30.5 208.38,0 377.38,0 377.38,-30.5"/>
<text xml:space="preserve" text-anchor="start" x="216.38" y="-17" font-family="Helvetica,sans-Serif" font-size="10.00">TaskManagement.Domain.Entities.</text>
<text xml:space="preserve" text-anchor="middle" x="292.88" y="-5.75" font-family="Helvetica,sans-Serif" font-size="10.00">TaskItem.TaskItem</text>
</a>
</g>
</g>
<!-- Node1&#45;&gt;Node5 -->
<g id="edge5_Node000001_Node000005" class="edge">
<title>Node1&#45;&gt;Node5</title>
<g id="a_edge5_Node000001_Node000005"><a xlink:title=" ">
<path fill="none" stroke="#63b8ff" d="M151.65,-48.54C171.74,-43.77 193.98,-38.49 214.73,-33.57"/>
<polygon fill="#63b8ff" stroke="#63b8ff" points="215.35,-37.02 224.27,-31.3 213.73,-30.21 215.35,-37.02"/>
</a>
</g>
</g>
<!-- Node3 -->
<g id="Node000003" class="node">
<title>Node3</title>
<g id="a_Node000003"><a xlink:href="classTaskManagement_1_1Domain_1_1Common_1_1Result.html#ac72e19a32a39eff6e205a7ed743a20dd" target="_top" xlink:title=" ">
<polygon fill="white" stroke="#666666" points="592.5,-103.5 416.75,-103.5 416.75,-73 592.5,-73 592.5,-103.5"/>
<text xml:space="preserve" text-anchor="start" x="424.75" y="-90" font-family="Helvetica,sans-Serif" font-size="10.00">TaskManagement.Domain.Common.</text>
<text xml:space="preserve" text-anchor="middle" x="504.62" y="-78.75" font-family="Helvetica,sans-Serif" font-size="10.00">Result.Result</text>
</a>
</g>
</g>
<!-- Node2&#45;&gt;Node3 -->
<g id="edge2_Node000002_Node000003" class="edge">
<title>Node2&#45;&gt;Node3</title>
<g id="a_edge2_Node000002_Node000003"><a xlink:title=" ">
<path fill="none" stroke="#63b8ff" d="M381.01,-102.86C388.96,-101.92 397.06,-100.95 405.11,-99.99"/>
<polygon fill="#63b8ff" stroke="#63b8ff" points="405.41,-103.48 414.93,-98.82 404.58,-96.53 405.41,-103.48"/>
</a>
</g>
</g>
<!-- Node4&#45;&gt;Node3 -->
<g id="edge4_Node000004_Node000003" class="edge">
<title>Node4&#45;&gt;Node3</title>
<g id="a_edge4_Node000004_Node000003"><a xlink:title=" ">
<path fill="none" stroke="#63b8ff" d="M381.01,-74.22C388.96,-75.13 397.06,-76.06 405.11,-76.98"/>
<polygon fill="#63b8ff" stroke="#63b8ff" points="404.59,-80.44 414.92,-78.1 405.39,-73.49 404.59,-80.44"/>
</a>
</g>
</g>
</g>
</svg>

<g id="navigator" transform="translate(0 0)" fill="#404254">
  <rect fill="#f2f5e9" fill-opacity="0.5" stroke="#606060" stroke-width=".5" x="0" y="0" width="60" height="60"/>
  <use id="zoomplus" xlink:href="#zoomPlus" x="17" y="9" onmousedown="handleZoom(evt,'in')"/>
  <use id="zoomminus" xlink:href="#zoomMin" x="42" y="9" onmousedown="handleZoom(evt,'out')"/>
  <use id="reset" xlink:href="#resetDef" x="30" y="36" onmousedown="handleReset()"/>
   <use id="arrowup" xlink:href="#arrowUp" x="0" y="0" onmousedown="handlePan(0,-1)"/>
  <use id="arrowright" xlink:href="#arrowRight" x="0" y="0" onmousedown="handlePan(1,0)"/>
  <use id="arrowdown" xlink:href="#arrowDown" x="0" y="0" onmousedown="handlePan(0,1)"/>
  <use id="arrowleft" xlink:href="#arrowLeft" x="0" y="0" onmousedown="handlePan(-1,0)"/>
</g>
<svg viewBox="0 0 15 15" width="100%" height="30px" preserveAspectRatio="xMaxYMin meet">
 <g id="arrow_out" transform="scale(0.3 0.3)">
  <a xlink:href="classTaskManagement_1_1Domain_1_1Entities_1_1TaskItem_a88b6dc74b70f3e61aba7057cf12fa9e0_cgraph_org.svg" target="_base">
   <rect id="button" ry="5" rx="5" y="6" x="6" height="38" width="38"
        fill="#f2f5e9" fill-opacity="0.5" stroke="#606060" stroke-width="1.0"/>
   <path id="arrow"
     d="M 11.500037,31.436501 C 11.940474,20.09759 22.043105,11.32322 32.158766,21.979434 L 37.068811,17.246167 C 37.068811,17.246167 37.088388,32 37.088388,32 L 22.160133,31.978069 C 22.160133,31.978069 26.997745,27.140456 26.997745,27.140456 C 18.528582,18.264221 13.291696,25.230495 11.500037,31.436501 z"
     style="fill:#404040;"/>
  </a>
 </g>
</svg>

<style type='text/css'>
<![CDATA[
[data-mouse-over-selected='false'] { opacity: 0.7; }
[data-mouse-over-selected='true']  { opacity: 1.0; }
]]>
</style>
<script type="application/ecmascript"><![CDATA[
document.addEventListener('DOMContentLoaded', (event) => {
  highlightEdges();
  highlightAdjacentNodes();
});
]]></script>
</svg>
