<?xml version="1.0" encoding="UTF-8" standalone="no"?>
<!DOCTYPE svg PUBLIC "-//W3C//DTD SVG 1.1//EN"
 "http://www.w3.org/Graphics/SVG/1.1/DTD/svg11.dtd">
<!-- Generated by graphviz version 13.1.0 (20250701.0955)
 -->
<!-- Title: INotificationHandler Pages: 1 -->
<svg width="214pt" height="193pt"
 viewBox="0.00 0.00 214.00 193.00" xmlns="http://www.w3.org/2000/svg" xmlns:xlink="http://www.w3.org/1999/xlink">
<g id="page0,1_graph0" class="graph" transform="scale(1 1) rotate(0) translate(4 188.5)">
<title>INotificationHandler</title>
<!-- Node1 -->
<g id="Node000001" class="node">
<title>Node1</title>
<g id="a_Node000001"><a xlink:title=" ">
<polygon fill="#999999" stroke="none" points="150.12,-184.5 55.88,-184.5 55.88,-134.75 150.12,-134.75 150.12,-184.5"/>
<text xml:space="preserve" text-anchor="start" x="59.88" y="-171" font-family="Helvetica,sans-Serif" font-size="10.00">INotificationHandler</text>
<text xml:space="preserve" text-anchor="start" x="101.5" y="-155.75" font-family="Helvetica,sans-Serif" font-size="10.00"> </text>
<text xml:space="preserve" text-anchor="start" x="101.5" y="-140.5" font-family="Helvetica,sans-Serif" font-size="10.00"> </text>
<polygon fill="#666666" stroke="#666666" points="55.88,-167.25 55.88,-167.25 150.12,-167.25 150.12,-167.25 55.88,-167.25"/>
<polygon fill="#666666" stroke="#666666" points="55.88,-152 55.88,-152 150.12,-152 150.12,-152 55.88,-152"/>
<polygon fill="none" stroke="#666666" points="55.88,-134.75 55.88,-184.5 150.12,-184.5 150.12,-134.75 55.88,-134.75"/>
</a>
</g>
</g>
<!-- Node2 -->
<g id="Node000002" class="node">
<title>Node2</title>
<g id="a_Node000002"><a xlink:href="classTaskManagement_1_1Infrastructure_1_1EventDispatching_1_1TaskCompletedNotificationHandler.html" target="_top" xlink:title=" ">
<polygon fill="white" stroke="none" points="206,-98.75 0,-98.75 0,0 206,0 206,-98.75"/>
<text xml:space="preserve" text-anchor="start" x="4" y="-85.25" font-family="Helvetica,sans-Serif" font-size="10.00">TaskManagement.Infrastructure.</text>
<text xml:space="preserve" text-anchor="start" x="4" y="-74" font-family="Helvetica,sans-Serif" font-size="10.00">EventDispatching.TaskCompletedNotification</text>
<text xml:space="preserve" text-anchor="start" x="86.12" y="-62.75" font-family="Helvetica,sans-Serif" font-size="10.00">Handler</text>
<text xml:space="preserve" text-anchor="start" x="101.5" y="-47.5" font-family="Helvetica,sans-Serif" font-size="10.00"> </text>
<text xml:space="preserve" text-anchor="start" x="21.56" y="-32.25" font-family="Helvetica,sans-Serif" font-size="10.00">+</text>
<text xml:space="preserve" text-anchor="start" x="49.12" y="-32.25" font-family="Helvetica,sans-Serif" font-size="10.00">TaskCompletedNotification</text>
<text xml:space="preserve" text-anchor="start" x="49.12" y="-21" font-family="Helvetica,sans-Serif" font-size="10.00">Handler()</text>
<text xml:space="preserve" text-anchor="start" x="21.56" y="-5.75" font-family="Helvetica,sans-Serif" font-size="10.00">+</text>
<text xml:space="preserve" text-anchor="start" x="49.12" y="-5.75" font-family="Helvetica,sans-Serif" font-size="10.00">Handle()</text>
<polygon fill="#666666" stroke="#666666" points="0,-59 0,-59 206,-59 206,-59 0,-59"/>
<polygon fill="#666666" stroke="#666666" points="0,-43.75 0,-43.75 206,-43.75 206,-43.75 0,-43.75"/>
<polygon fill="none" stroke="#666666" points="0,0 0,-98.75 206,-98.75 206,0 0,0"/>
</a>
</g>
</g>
<!-- Node1&#45;&gt;Node2 -->
<g id="edge1_Node000001_Node000002" class="edge">
<title>Node1&#45;&gt;Node2</title>
<g id="a_edge1_Node000001_Node000002"><a xlink:title=" ">
<path fill="none" stroke="#63b8ff" d="M103,-123.39C103,-115.45 103,-106.88 103,-98.51"/>
<polygon fill="none" stroke="#63b8ff" points="99.5,-123.36 103,-133.36 106.5,-123.36 99.5,-123.36"/>
</a>
</g>
</g>
</g>
</svg>
