<?xml version="1.0" encoding="UTF-8" standalone="no"?>
<!DOCTYPE svg PUBLIC "-//W3C//DTD SVG 1.1//EN"
 "http://www.w3.org/Graphics/SVG/1.1/DTD/svg11.dtd">
<!-- Generated by graphviz version 13.1.0 (20250701.0955)
 -->
<!-- Title: TaskManagement.Infrastructure.EventDispatching.DomainEventWrapper&lt; T &gt; Pages: 1 -->
<svg width="216pt" height="155pt"
 viewBox="0.00 0.00 216.00 155.00" xmlns="http://www.w3.org/2000/svg" xmlns:xlink="http://www.w3.org/1999/xlink">
<g id="graph0" class="graph" transform="scale(1 1) rotate(0) translate(4 150.75)">
<title>TaskManagement.Infrastructure.EventDispatching.DomainEventWrapper&lt; T &gt;</title>
<!-- Node1 -->
<g id="Node000001" class="node">
<title>Node1</title>
<g id="a_Node000001"><a xlink:title=" ">
<polygon fill="#999999" stroke="none" points="207.5,-61 0,-61 0,0 207.5,0 207.5,-61"/>
<text xml:space="preserve" text-anchor="start" x="4" y="-47.5" font-family="Helvetica,sans-Serif" font-size="10.00">TaskManagement.Infrastructure.</text>
<text xml:space="preserve" text-anchor="start" x="4" y="-36.25" font-family="Helvetica,sans-Serif" font-size="10.00">EventDispatching.DomainEventWrapper&lt; T &gt;</text>
<text xml:space="preserve" text-anchor="start" x="26.06" y="-21" font-family="Helvetica,sans-Serif" font-size="10.00">+</text>
<text xml:space="preserve" text-anchor="start" x="58.12" y="-21" font-family="Helvetica,sans-Serif" font-size="10.00">Event</text>
<text xml:space="preserve" text-anchor="start" x="26.06" y="-5.75" font-family="Helvetica,sans-Serif" font-size="10.00">+</text>
<text xml:space="preserve" text-anchor="start" x="58.12" y="-5.75" font-family="Helvetica,sans-Serif" font-size="10.00">DomainEventWrapper()</text>
<polygon fill="#666666" stroke="#666666" points="0,-32.5 0,-32.5 207.5,-32.5 207.5,-32.5 0,-32.5"/>
<polygon fill="#666666" stroke="#666666" points="0,-17.25 0,-17.25 56.12,-17.25 56.12,-17.25 0,-17.25"/>
<polygon fill="#666666" stroke="#666666" points="56.12,-17.25 56.12,-17.25 207.5,-17.25 207.5,-17.25 56.12,-17.25"/>
<polygon fill="none" stroke="#666666" points="0,0 0,-61 207.5,-61 207.5,0 0,0"/>
</a>
</g>
</g>
<!-- Node2 -->
<g id="Node000002" class="node">
<title>Node2</title>
<g id="a_Node000002"><a xlink:href="classINotification.html" target="_top" xlink:title=" ">
<polygon fill="white" stroke="none" points="134,-146.75 73.5,-146.75 73.5,-97 134,-97 134,-146.75"/>
<text xml:space="preserve" text-anchor="start" x="77.5" y="-133.25" font-family="Helvetica,sans-Serif" font-size="10.00">INotification</text>
<text xml:space="preserve" text-anchor="start" x="102.25" y="-118" font-family="Helvetica,sans-Serif" font-size="10.00"> </text>
<text xml:space="preserve" text-anchor="start" x="102.25" y="-102.75" font-family="Helvetica,sans-Serif" font-size="10.00"> </text>
<polygon fill="#bfbfbf" stroke="#bfbfbf" points="73.5,-129.5 73.5,-129.5 134,-129.5 134,-129.5 73.5,-129.5"/>
<polygon fill="#bfbfbf" stroke="#bfbfbf" points="73.5,-114.25 73.5,-114.25 134,-114.25 134,-114.25 73.5,-114.25"/>
<polygon fill="none" stroke="#bfbfbf" points="73.5,-97 73.5,-146.75 134,-146.75 134,-97 73.5,-97"/>
</a>
</g>
</g>
<!-- Node2&#45;&gt;Node1 -->
<g id="edge1_Node000001_Node000002" class="edge">
<title>Node2&#45;&gt;Node1</title>
<g id="a_edge1_Node000001_Node000002"><a xlink:title=" ">
<path fill="none" stroke="#63b8ff" d="M103.75,-86.08C103.75,-77.76 103.75,-68.95 103.75,-60.9"/>
<polygon fill="none" stroke="#63b8ff" points="100.25,-85.88 103.75,-95.88 107.25,-85.88 100.25,-85.88"/>
</a>
</g>
</g>
</g>
</svg>
