<?xml version="1.0" encoding="UTF-8" standalone="no"?>
<!DOCTYPE svg PUBLIC "-//W3C//DTD SVG 1.1//EN"
 "http://www.w3.org/Graphics/SVG/1.1/DTD/svg11.dtd">
<!-- Generated by graphviz version 13.1.0 (20250701.0955)
 -->
<!-- Title: Exception Pages: 1 -->
<svg width="512pt" height="201pt"
 viewBox="0.00 0.00 512.00 201.00" xmlns="http://www.w3.org/2000/svg" xmlns:xlink="http://www.w3.org/1999/xlink">
<g id="graph0" class="graph" transform="scale(1 1) rotate(0) translate(4 196.5)">
<title>Exception</title>
<!-- Node1 -->
<g id="Node000001" class="node">
<title>Node1</title>
<g id="a_Node000001"><a xlink:title=" ">
<polygon fill="#999999" stroke="none" points="262.75,-192.5 211.25,-192.5 211.25,-142.75 262.75,-142.75 262.75,-192.5"/>
<text xml:space="preserve" text-anchor="start" x="215.25" y="-179" font-family="Helvetica,sans-Serif" font-size="10.00">Exception</text>
<text xml:space="preserve" text-anchor="start" x="235.5" y="-163.75" font-family="Helvetica,sans-Serif" font-size="10.00"> </text>
<text xml:space="preserve" text-anchor="start" x="235.5" y="-148.5" font-family="Helvetica,sans-Serif" font-size="10.00"> </text>
<polygon fill="#666666" stroke="#666666" points="211.25,-175.25 211.25,-175.25 262.75,-175.25 262.75,-175.25 211.25,-175.25"/>
<polygon fill="#666666" stroke="#666666" points="211.25,-160 211.25,-160 262.75,-160 262.75,-160 211.25,-160"/>
<polygon fill="none" stroke="#666666" points="211.25,-142.75 211.25,-192.5 262.75,-192.5 262.75,-142.75 211.25,-142.75"/>
</a>
</g>
</g>
<!-- Node2 -->
<g id="Node000002" class="node">
<title>Node2</title>
<g id="a_Node000002"><a xlink:href="classTaskManagement_1_1Application_1_1Exceptions_1_1NotFoundException.html" target="_top" xlink:title="NotFoundException se lanza cuando una entidad solicitada no puede ser encontrada.">
<polygon fill="white" stroke="none" points="146,-106.75 0,-106.75 0,0 146,0 146,-106.75"/>
<text xml:space="preserve" text-anchor="start" x="4" y="-93.25" font-family="Helvetica,sans-Serif" font-size="10.00">TaskManagement.Application.</text>
<text xml:space="preserve" text-anchor="start" x="4" y="-82" font-family="Helvetica,sans-Serif" font-size="10.00">Exceptions.NotFoundException</text>
<text xml:space="preserve" text-anchor="start" x="71.5" y="-66.75" font-family="Helvetica,sans-Serif" font-size="10.00"> </text>
<text xml:space="preserve" text-anchor="start" x="12.94" y="-51.5" font-family="Helvetica,sans-Serif" font-size="10.00">+</text>
<text xml:space="preserve" text-anchor="start" x="31.88" y="-51.5" font-family="Helvetica,sans-Serif" font-size="10.00">NotFoundException()</text>
<text xml:space="preserve" text-anchor="start" x="12.94" y="-36.25" font-family="Helvetica,sans-Serif" font-size="10.00">+</text>
<text xml:space="preserve" text-anchor="start" x="31.88" y="-36.25" font-family="Helvetica,sans-Serif" font-size="10.00">NotFoundException()</text>
<text xml:space="preserve" text-anchor="start" x="12.94" y="-21" font-family="Helvetica,sans-Serif" font-size="10.00">+</text>
<text xml:space="preserve" text-anchor="start" x="31.88" y="-21" font-family="Helvetica,sans-Serif" font-size="10.00">NotFoundException()</text>
<text xml:space="preserve" text-anchor="start" x="12.94" y="-5.75" font-family="Helvetica,sans-Serif" font-size="10.00">+</text>
<text xml:space="preserve" text-anchor="start" x="31.88" y="-5.75" font-family="Helvetica,sans-Serif" font-size="10.00">NotFoundException()</text>
<polygon fill="#666666" stroke="#666666" points="0,-78.25 0,-78.25 146,-78.25 146,-78.25 0,-78.25"/>
<polygon fill="#666666" stroke="#666666" points="0,-63 0,-63 146,-63 146,-63 0,-63"/>
<polygon fill="none" stroke="#666666" points="0,0 0,-106.75 146,-106.75 146,0 0,0"/>
</a>
</g>
</g>
<!-- Node1&#45;&gt;Node2 -->
<g id="edge1_Node000001_Node000002" class="edge">
<title>Node1&#45;&gt;Node2</title>
<g id="a_edge1_Node000001_Node000002"><a xlink:title=" ">
<path fill="none" stroke="#63b8ff" d="M202.17,-142.79C185.73,-131.54 165.46,-117.66 145.89,-104.26"/>
<polygon fill="none" stroke="#63b8ff" points="199.9,-145.47 210.13,-148.23 203.85,-139.69 199.9,-145.47"/>
</a>
</g>
</g>
<!-- Node3 -->
<g id="Node000003" class="node">
<title>Node3</title>
<g id="a_Node000003"><a xlink:href="classTaskManagement_1_1Application_1_1Exceptions_1_1ValidationException.html" target="_top" xlink:title="ValidationException se lanza cuando la validación de entrada falla en la capa de aplicación.">
<polygon fill="white" stroke="none" points="309.62,-106.75 164.38,-106.75 164.38,0 309.62,0 309.62,-106.75"/>
<text xml:space="preserve" text-anchor="start" x="168.38" y="-93.25" font-family="Helvetica,sans-Serif" font-size="10.00">TaskManagement.Application.</text>
<text xml:space="preserve" text-anchor="start" x="168.38" y="-82" font-family="Helvetica,sans-Serif" font-size="10.00">Exceptions.ValidationException</text>
<text xml:space="preserve" text-anchor="start" x="177.31" y="-66.75" font-family="Helvetica,sans-Serif" font-size="10.00">+</text>
<text xml:space="preserve" text-anchor="start" x="196.25" y="-66.75" font-family="Helvetica,sans-Serif" font-size="10.00">Errors</text>
<text xml:space="preserve" text-anchor="start" x="177.31" y="-51.5" font-family="Helvetica,sans-Serif" font-size="10.00">+</text>
<text xml:space="preserve" text-anchor="start" x="196.25" y="-51.5" font-family="Helvetica,sans-Serif" font-size="10.00">ValidationException()</text>
<text xml:space="preserve" text-anchor="start" x="177.31" y="-36.25" font-family="Helvetica,sans-Serif" font-size="10.00">+</text>
<text xml:space="preserve" text-anchor="start" x="196.25" y="-36.25" font-family="Helvetica,sans-Serif" font-size="10.00">ValidationException()</text>
<text xml:space="preserve" text-anchor="start" x="177.31" y="-21" font-family="Helvetica,sans-Serif" font-size="10.00">+</text>
<text xml:space="preserve" text-anchor="start" x="196.25" y="-21" font-family="Helvetica,sans-Serif" font-size="10.00">ValidationException()</text>
<text xml:space="preserve" text-anchor="start" x="177.31" y="-5.75" font-family="Helvetica,sans-Serif" font-size="10.00">+</text>
<text xml:space="preserve" text-anchor="start" x="196.25" y="-5.75" font-family="Helvetica,sans-Serif" font-size="10.00">ValidationException()</text>
<polygon fill="#666666" stroke="#666666" points="164.38,-78.25 164.38,-78.25 309.62,-78.25 309.62,-78.25 164.38,-78.25"/>
<polygon fill="#666666" stroke="#666666" points="164.38,-63 164.38,-63 194.25,-63 194.25,-63 164.38,-63"/>
<polygon fill="#666666" stroke="#666666" points="194.25,-63 194.25,-63 309.62,-63 309.62,-63 194.25,-63"/>
<polygon fill="none" stroke="#666666" points="164.38,0 164.38,-106.75 309.62,-106.75 309.62,0 164.38,0"/>
</a>
</g>
</g>
<!-- Node1&#45;&gt;Node3 -->
<g id="edge2_Node000001_Node000003" class="edge">
<title>Node1&#45;&gt;Node3</title>
<g id="a_edge2_Node000001_Node000003"><a xlink:title=" ">
<path fill="none" stroke="#63b8ff" d="M237,-131.35C237,-123.4 237,-114.8 237,-106.32"/>
<polygon fill="none" stroke="#63b8ff" points="233.5,-131.31 237,-141.31 240.5,-131.31 233.5,-131.31"/>
</a>
</g>
</g>
<!-- Node4 -->
<g id="Node000004" class="node">
<title>Node4</title>
<g id="a_Node000004"><a xlink:href="classTaskManagement_1_1Domain_1_1Exceptions_1_1DomainException.html" target="_top" xlink:title="DomainException es la clase de excepción base para todos los errores de capa de dominio.">
<polygon fill="white" stroke="none" points="504.38,-99.12 327.62,-99.12 327.62,-7.62 504.38,-7.62 504.38,-99.12"/>
<text xml:space="preserve" text-anchor="start" x="331.62" y="-85.62" font-family="Helvetica,sans-Serif" font-size="10.00">TaskManagement.Domain.Exceptions.</text>
<text xml:space="preserve" text-anchor="start" x="377.38" y="-74.38" font-family="Helvetica,sans-Serif" font-size="10.00">DomainException</text>
<text xml:space="preserve" text-anchor="start" x="414.5" y="-59.12" font-family="Helvetica,sans-Serif" font-size="10.00"> </text>
<text xml:space="preserve" text-anchor="start" x="350.5" y="-43.88" font-family="Helvetica,sans-Serif" font-size="10.00">+</text>
<text xml:space="preserve" text-anchor="start" x="379.38" y="-43.88" font-family="Helvetica,sans-Serif" font-size="10.00">DomainException()</text>
<text xml:space="preserve" text-anchor="start" x="350.5" y="-28.62" font-family="Helvetica,sans-Serif" font-size="10.00">+</text>
<text xml:space="preserve" text-anchor="start" x="379.38" y="-28.62" font-family="Helvetica,sans-Serif" font-size="10.00">DomainException()</text>
<text xml:space="preserve" text-anchor="start" x="350.5" y="-13.38" font-family="Helvetica,sans-Serif" font-size="10.00">+</text>
<text xml:space="preserve" text-anchor="start" x="379.38" y="-13.38" font-family="Helvetica,sans-Serif" font-size="10.00">DomainException()</text>
<polygon fill="#666666" stroke="#666666" points="327.62,-70.62 327.62,-70.62 504.38,-70.62 504.38,-70.62 327.62,-70.62"/>
<polygon fill="#666666" stroke="#666666" points="327.62,-55.38 327.62,-55.38 504.38,-55.38 504.38,-55.38 327.62,-55.38"/>
<polygon fill="none" stroke="#666666" points="327.62,-7.62 327.62,-99.12 504.38,-99.12 504.38,-7.62 327.62,-7.62"/>
</a>
</g>
</g>
<!-- Node1&#45;&gt;Node4 -->
<g id="edge3_Node000001_Node000004" class="edge">
<title>Node1&#45;&gt;Node4</title>
<g id="a_edge3_Node000001_Node000004"><a xlink:title=" ">
<path fill="none" stroke="#63b8ff" d="M272.27,-144.51C292.96,-131.53 319.87,-114.66 344.79,-99.03"/>
<polygon fill="none" stroke="#63b8ff" points="270.54,-141.46 263.93,-149.74 274.26,-147.39 270.54,-141.46"/>
</a>
</g>
</g>
</g>
</svg>
