<?xml version="1.0" encoding="UTF-8" standalone="no"?>
<!DOCTYPE svg PUBLIC "-//W3C//DTD SVG 1.1//EN"
 "http://www.w3.org/Graphics/SVG/1.1/DTD/svg11.dtd">
<!-- Generated by graphviz version 13.1.0 (20250701.0955)
 -->
<!-- Title: TaskManagement.Domain.Events.DomainEvent Pages: 1 -->
<!--zoomable 212 -->

<svg id="main" version="1.1" xmlns="http://www.w3.org/2000/svg" xmlns:xlink="http://www.w3.org/1999/xlink" xml:space="preserve" onload="init(evt)">

<style type="text/css"><![CDATA[
.node, .edge {opacity: 0.7;}
.node.selected, .edge.selected {opacity: 1;}
.edge:hover path { stroke: red; }
.edge:hover polygon { stroke: red; fill: red; }
]]></style>

<defs>
  <circle id="rim" cx="0" cy="0" r="7"/>
  <circle id="rim2" cx="0" cy="0" r="3.5"/>
  <g id="zoomPlus">
    <use xlink:href="#rim" fill="#404040"><set attributeName="fill" to="#808080" begin="zoomplus.mouseover" end="zoomplus.mouseout"/></use>
    <path d="M-4,0h8M0,-4v8" fill="none" stroke="white" stroke-width="1.5" pointer-events="none"/>
  </g>
  <g id="zoomMin">
    <use xlink:href="#rim" fill="#404040"><set attributeName="fill" to="#808080" begin="zoomminus.mouseover" end="zoomminus.mouseout"/></use>
    <path d="M-4,0h8" fill="none" stroke="white" stroke-width="1.5" pointer-events="none"/>
  </g>
  <g id="arrowUp" transform="translate(30 24)">
    <use xlink:href="#rim"/>
    <path pointer-events="none" fill="none" stroke="white" stroke-width="1.5" d="M0,-3.0v7 M-2.5,-0.5L0,-3.0L2.5,-0.5"/>
  </g>
  <g id="arrowRight" transform="rotate(90) translate(36 -43)">
    <use xlink:href="#rim"/>
    <path pointer-events="none" fill="none" stroke="white" stroke-width="1.5" d="M0,-3.0v7 M-2.5,-0.5L0,-3.0L2.5,-0.5"/>
  </g>
  <g id="arrowDown" transform="rotate(180) translate(-30 -48)">
    <use xlink:href="#rim"/>
    <path pointer-events="none" fill="none" stroke="white" stroke-width="1.5" d="M0,-3.0v7 M-2.5,-0.5L0,-3.0L2.5,-0.5"/>
  </g>
  <g id="arrowLeft" transform="rotate(270) translate(-36 17)">
    <use xlink:href="#rim"/>
    <path pointer-events="none" fill="none" stroke="white" stroke-width="1.5" d="M0,-3.0v7 M-2.5,-0.5L0,-3.0L2.5,-0.5"/>
  </g>
  <g id="resetDef">
    <use xlink:href="#rim2" fill="#404040"><set attributeName="fill" to="#808080" begin="reset.mouseover" end="reset.mouseout"/></use>
  </g>
</defs>
<script type="application/ecmascript">
var viewWidth = 698;
var viewHeight = 212;
var sectionId = 'dynsection-0';
</script>
<script type="application/ecmascript" xlink:href="svg.min.js"/>
<svg id="graph" class="graph">
<g id="viewport">
<title>TaskManagement.Domain.Events.DomainEvent</title>
<!-- Node1 -->
<g id="Node000001" class="node">
<title>Node1</title>
<g id="a_Node000001"><a xlink:title="DomainEvent es una clase base abstracta para todos los eventos de dominio en el sistema.">
<polygon fill="#999999" stroke="none" points="423.75,-203.75 265,-203.75 265,-127.5 423.75,-127.5 423.75,-203.75"/>
<text xml:space="preserve" text-anchor="start" x="269" y="-190.25" font-family="Helvetica,sans-Serif" font-size="10.00">TaskManagement.Domain.Events.</text>
<text xml:space="preserve" text-anchor="start" x="314.75" y="-179" font-family="Helvetica,sans-Serif" font-size="10.00">DomainEvent</text>
<text xml:space="preserve" text-anchor="start" x="291.06" y="-163.75" font-family="Helvetica,sans-Serif" font-size="10.00">+</text>
<text xml:space="preserve" text-anchor="start" x="323.12" y="-163.75" font-family="Helvetica,sans-Serif" font-size="10.00">Id</text>
<text xml:space="preserve" text-anchor="start" x="291.06" y="-148.5" font-family="Helvetica,sans-Serif" font-size="10.00">+</text>
<text xml:space="preserve" text-anchor="start" x="323.12" y="-148.5" font-family="Helvetica,sans-Serif" font-size="10.00">OccurredOn</text>
<text xml:space="preserve" text-anchor="start" x="342.88" y="-133.25" font-family="Helvetica,sans-Serif" font-size="10.00"> </text>
<polygon fill="#666666" stroke="#666666" points="265,-175.25 265,-175.25 423.75,-175.25 423.75,-175.25 265,-175.25"/>
<polygon fill="#666666" stroke="#666666" points="265,-144.75 265,-144.75 321.12,-144.75 321.12,-144.75 265,-144.75"/>
<polygon fill="#666666" stroke="#666666" points="321.12,-144.75 321.12,-144.75 423.75,-144.75 423.75,-144.75 321.12,-144.75"/>
<polygon fill="none" stroke="#666666" points="265,-127.5 265,-203.75 423.75,-203.75 423.75,-127.5 265,-127.5"/>
</a>
</g>
</g>
<!-- Node2 -->
<g id="Node000002" class="node">
<title>Node2</title>
<g id="a_Node000002"><a xlink:href="classTaskManagement_1_1Domain_1_1Events_1_1TaskAssignedEvent.html" target="_top" xlink:title=" ">
<polygon fill="white" stroke="none" points="158.75,-91.5 0,-91.5 0,0 158.75,0 158.75,-91.5"/>
<text xml:space="preserve" text-anchor="start" x="4" y="-78" font-family="Helvetica,sans-Serif" font-size="10.00">TaskManagement.Domain.Events.</text>
<text xml:space="preserve" text-anchor="start" x="35.88" y="-66.75" font-family="Helvetica,sans-Serif" font-size="10.00">TaskAssignedEvent</text>
<text xml:space="preserve" text-anchor="start" x="15.94" y="-51.5" font-family="Helvetica,sans-Serif" font-size="10.00">+</text>
<text xml:space="preserve" text-anchor="start" x="37.88" y="-51.5" font-family="Helvetica,sans-Serif" font-size="10.00">TaskId</text>
<text xml:space="preserve" text-anchor="start" x="15.94" y="-36.25" font-family="Helvetica,sans-Serif" font-size="10.00">+</text>
<text xml:space="preserve" text-anchor="start" x="37.88" y="-36.25" font-family="Helvetica,sans-Serif" font-size="10.00">AssignedTo</text>
<text xml:space="preserve" text-anchor="start" x="15.94" y="-21" font-family="Helvetica,sans-Serif" font-size="10.00">+</text>
<text xml:space="preserve" text-anchor="start" x="37.88" y="-21" font-family="Helvetica,sans-Serif" font-size="10.00">PreviousAssignee</text>
<text xml:space="preserve" text-anchor="start" x="15.94" y="-5.75" font-family="Helvetica,sans-Serif" font-size="10.00">+</text>
<text xml:space="preserve" text-anchor="start" x="37.88" y="-5.75" font-family="Helvetica,sans-Serif" font-size="10.00">TaskAssignedEvent()</text>
<polygon fill="#666666" stroke="#666666" points="0,-63 0,-63 158.75,-63 158.75,-63 0,-63"/>
<polygon fill="#666666" stroke="#666666" points="0,-17.25 0,-17.25 35.88,-17.25 35.88,-17.25 0,-17.25"/>
<polygon fill="#666666" stroke="#666666" points="35.88,-17.25 35.88,-17.25 158.75,-17.25 158.75,-17.25 35.88,-17.25"/>
<polygon fill="none" stroke="#666666" points="0,0 0,-91.5 158.75,-91.5 158.75,0 0,0"/>
</a>
</g>
</g>
<!-- Node1&#45;&gt;Node2 -->
<g id="edge1_Node000001_Node000002" class="edge">
<title>Node1&#45;&gt;Node2</title>
<g id="a_edge1_Node000001_Node000002"><a xlink:title=" ">
<path fill="none" stroke="#63b8ff" d="M254.9,-128.91C227,-117.38 196.25,-104.28 168.38,-91.5 165.07,-89.99 161.71,-88.42 158.33,-86.82"/>
<polygon fill="none" stroke="#63b8ff" points="253.46,-132.1 264.04,-132.67 256.12,-125.63 253.46,-132.1"/>
</a>
</g>
</g>
<!-- Node3 -->
<g id="Node000003" class="node">
<title>Node3</title>
<g id="a_Node000003"><a xlink:href="classTaskManagement_1_1Domain_1_1Events_1_1TaskCompletedEvent.html" target="_top" xlink:title=" ">
<polygon fill="white" stroke="none" points="335.75,-83.88 177,-83.88 177,-7.62 335.75,-7.62 335.75,-83.88"/>
<text xml:space="preserve" text-anchor="start" x="181" y="-70.38" font-family="Helvetica,sans-Serif" font-size="10.00">TaskManagement.Domain.Events.</text>
<text xml:space="preserve" text-anchor="start" x="209.5" y="-59.12" font-family="Helvetica,sans-Serif" font-size="10.00">TaskCompletedEvent</text>
<text xml:space="preserve" text-anchor="start" x="191.25" y="-43.88" font-family="Helvetica,sans-Serif" font-size="10.00">+</text>
<text xml:space="preserve" text-anchor="start" x="211.5" y="-43.88" font-family="Helvetica,sans-Serif" font-size="10.00">TaskId</text>
<text xml:space="preserve" text-anchor="start" x="191.25" y="-28.62" font-family="Helvetica,sans-Serif" font-size="10.00">+</text>
<text xml:space="preserve" text-anchor="start" x="211.5" y="-28.62" font-family="Helvetica,sans-Serif" font-size="10.00">CompletedAt</text>
<text xml:space="preserve" text-anchor="start" x="191.25" y="-13.38" font-family="Helvetica,sans-Serif" font-size="10.00">+</text>
<text xml:space="preserve" text-anchor="start" x="211.5" y="-13.38" font-family="Helvetica,sans-Serif" font-size="10.00">TaskCompletedEvent()</text>
<polygon fill="#666666" stroke="#666666" points="177,-55.38 177,-55.38 335.75,-55.38 335.75,-55.38 177,-55.38"/>
<polygon fill="#666666" stroke="#666666" points="177,-24.88 177,-24.88 209.5,-24.88 209.5,-24.88 177,-24.88"/>
<polygon fill="#666666" stroke="#666666" points="209.5,-24.88 209.5,-24.88 335.75,-24.88 335.75,-24.88 209.5,-24.88"/>
<polygon fill="none" stroke="#666666" points="177,-7.62 177,-83.88 335.75,-83.88 335.75,-7.62 177,-7.62"/>
</a>
</g>
</g>
<!-- Node1&#45;&gt;Node3 -->
<g id="edge2_Node000001_Node000003" class="edge">
<title>Node1&#45;&gt;Node3</title>
<g id="a_edge2_Node000001_Node000003"><a xlink:title=" ">
<path fill="none" stroke="#63b8ff" d="M309.97,-118.54C301.32,-106.95 292.14,-94.66 283.88,-83.59"/>
<polygon fill="none" stroke="#63b8ff" points="307.08,-120.52 315.87,-126.44 312.69,-116.33 307.08,-120.52"/>
</a>
</g>
</g>
<!-- Node4 -->
<g id="Node000004" class="node">
<title>Node4</title>
<g id="a_Node000004"><a xlink:href="classTaskManagement_1_1Domain_1_1Events_1_1TaskCreatedEvent.html" target="_top" xlink:title=" ">
<polygon fill="white" stroke="none" points="512.75,-91.5 354,-91.5 354,0 512.75,0 512.75,-91.5"/>
<text xml:space="preserve" text-anchor="start" x="358" y="-78" font-family="Helvetica,sans-Serif" font-size="10.00">TaskManagement.Domain.Events.</text>
<text xml:space="preserve" text-anchor="start" x="392.88" y="-66.75" font-family="Helvetica,sans-Serif" font-size="10.00">TaskCreatedEvent</text>
<text xml:space="preserve" text-anchor="start" x="371.44" y="-51.5" font-family="Helvetica,sans-Serif" font-size="10.00">+</text>
<text xml:space="preserve" text-anchor="start" x="394.88" y="-51.5" font-family="Helvetica,sans-Serif" font-size="10.00">TaskId</text>
<text xml:space="preserve" text-anchor="start" x="371.44" y="-36.25" font-family="Helvetica,sans-Serif" font-size="10.00">+</text>
<text xml:space="preserve" text-anchor="start" x="394.88" y="-36.25" font-family="Helvetica,sans-Serif" font-size="10.00">Title</text>
<text xml:space="preserve" text-anchor="start" x="371.44" y="-21" font-family="Helvetica,sans-Serif" font-size="10.00">+</text>
<text xml:space="preserve" text-anchor="start" x="394.88" y="-21" font-family="Helvetica,sans-Serif" font-size="10.00">CreatedBy</text>
<text xml:space="preserve" text-anchor="start" x="371.44" y="-5.75" font-family="Helvetica,sans-Serif" font-size="10.00">+</text>
<text xml:space="preserve" text-anchor="start" x="394.88" y="-5.75" font-family="Helvetica,sans-Serif" font-size="10.00">TaskCreatedEvent()</text>
<polygon fill="#666666" stroke="#666666" points="354,-63 354,-63 512.75,-63 512.75,-63 354,-63"/>
<polygon fill="#666666" stroke="#666666" points="354,-17.25 354,-17.25 392.88,-17.25 392.88,-17.25 354,-17.25"/>
<polygon fill="#666666" stroke="#666666" points="392.88,-17.25 392.88,-17.25 512.75,-17.25 512.75,-17.25 392.88,-17.25"/>
<polygon fill="none" stroke="#666666" points="354,0 354,-91.5 512.75,-91.5 512.75,0 354,0"/>
</a>
</g>
</g>
<!-- Node1&#45;&gt;Node4 -->
<g id="edge3_Node000001_Node000004" class="edge">
<title>Node1&#45;&gt;Node4</title>
<g id="a_edge3_Node000001_Node000004"><a xlink:title=" ">
<path fill="none" stroke="#63b8ff" d="M379.16,-118.55C385.89,-109.64 392.93,-100.32 399.62,-91.45"/>
<polygon fill="none" stroke="#63b8ff" points="376.44,-116.35 373.2,-126.44 382.02,-120.57 376.44,-116.35"/>
</a>
</g>
</g>
<!-- Node5 -->
<g id="Node000005" class="node">
<title>Node5</title>
<g id="a_Node000005"><a xlink:href="classTaskManagement_1_1Domain_1_1Events_1_1TaskPriorityChangedEvent.html" target="_top" xlink:title=" ">
<polygon fill="white" stroke="none" points="689.75,-91.5 531,-91.5 531,0 689.75,0 689.75,-91.5"/>
<text xml:space="preserve" text-anchor="start" x="535" y="-78" font-family="Helvetica,sans-Serif" font-size="10.00">TaskManagement.Domain.Events.</text>
<text xml:space="preserve" text-anchor="start" x="552.25" y="-66.75" font-family="Helvetica,sans-Serif" font-size="10.00">TaskPriorityChangedEvent</text>
<text xml:space="preserve" text-anchor="start" x="539.62" y="-51.5" font-family="Helvetica,sans-Serif" font-size="10.00">+</text>
<text xml:space="preserve" text-anchor="start" x="554.25" y="-51.5" font-family="Helvetica,sans-Serif" font-size="10.00">TaskId</text>
<text xml:space="preserve" text-anchor="start" x="539.62" y="-36.25" font-family="Helvetica,sans-Serif" font-size="10.00">+</text>
<text xml:space="preserve" text-anchor="start" x="554.25" y="-36.25" font-family="Helvetica,sans-Serif" font-size="10.00">OldPriority</text>
<text xml:space="preserve" text-anchor="start" x="539.62" y="-21" font-family="Helvetica,sans-Serif" font-size="10.00">+</text>
<text xml:space="preserve" text-anchor="start" x="554.25" y="-21" font-family="Helvetica,sans-Serif" font-size="10.00">NewPriority</text>
<text xml:space="preserve" text-anchor="start" x="539.62" y="-5.75" font-family="Helvetica,sans-Serif" font-size="10.00">+</text>
<text xml:space="preserve" text-anchor="start" x="554.25" y="-5.75" font-family="Helvetica,sans-Serif" font-size="10.00">TaskPriorityChangedEvent()</text>
<polygon fill="#666666" stroke="#666666" points="531,-63 531,-63 689.75,-63 689.75,-63 531,-63"/>
<polygon fill="#666666" stroke="#666666" points="531,-17.25 531,-17.25 552.25,-17.25 552.25,-17.25 531,-17.25"/>
<polygon fill="#666666" stroke="#666666" points="552.25,-17.25 552.25,-17.25 689.75,-17.25 689.75,-17.25 552.25,-17.25"/>
<polygon fill="none" stroke="#666666" points="531,0 531,-91.5 689.75,-91.5 689.75,0 531,0"/>
</a>
</g>
</g>
<!-- Node1&#45;&gt;Node5 -->
<g id="edge4_Node000001_Node000005" class="edge">
<title>Node1&#45;&gt;Node5</title>
<g id="a_edge4_Node000001_Node000005"><a xlink:title=" ">
<path fill="none" stroke="#63b8ff" d="M433.97,-129.12C462.13,-117.55 493.22,-104.37 521.38,-91.5 524.68,-89.99 528.04,-88.43 531.42,-86.83"/>
<polygon fill="none" stroke="#63b8ff" points="432.67,-125.87 424.73,-132.89 435.32,-132.35 432.67,-125.87"/>
</a>
</g>
</g>
</g>
</svg>

<g id="navigator" transform="translate(0 0)" fill="#404254">
  <rect fill="#f2f5e9" fill-opacity="0.5" stroke="#606060" stroke-width=".5" x="0" y="0" width="60" height="60"/>
  <use id="zoomplus" xlink:href="#zoomPlus" x="17" y="9" onmousedown="handleZoom(evt,'in')"/>
  <use id="zoomminus" xlink:href="#zoomMin" x="42" y="9" onmousedown="handleZoom(evt,'out')"/>
  <use id="reset" xlink:href="#resetDef" x="30" y="36" onmousedown="handleReset()"/>
   <use id="arrowup" xlink:href="#arrowUp" x="0" y="0" onmousedown="handlePan(0,-1)"/>
  <use id="arrowright" xlink:href="#arrowRight" x="0" y="0" onmousedown="handlePan(1,0)"/>
  <use id="arrowdown" xlink:href="#arrowDown" x="0" y="0" onmousedown="handlePan(0,1)"/>
  <use id="arrowleft" xlink:href="#arrowLeft" x="0" y="0" onmousedown="handlePan(-1,0)"/>
</g>
<svg viewBox="0 0 15 15" width="100%" height="30px" preserveAspectRatio="xMaxYMin meet">
 <g id="arrow_out" transform="scale(0.3 0.3)">
  <a xlink:href="classTaskManagement_1_1Domain_1_1Events_1_1DomainEvent__inherit__graph_org.svg" target="_base">
   <rect id="button" ry="5" rx="5" y="6" x="6" height="38" width="38"
        fill="#f2f5e9" fill-opacity="0.5" stroke="#606060" stroke-width="1.0"/>
   <path id="arrow"
     d="M 11.500037,31.436501 C 11.940474,20.09759 22.043105,11.32322 32.158766,21.979434 L 37.068811,17.246167 C 37.068811,17.246167 37.088388,32 37.088388,32 L 22.160133,31.978069 C 22.160133,31.978069 26.997745,27.140456 26.997745,27.140456 C 18.528582,18.264221 13.291696,25.230495 11.500037,31.436501 z"
     style="fill:#404040;"/>
  </a>
 </g>
</svg>

<style type='text/css'>
<![CDATA[
[data-mouse-over-selected='false'] { opacity: 0.7; }
[data-mouse-over-selected='true']  { opacity: 1.0; }
]]>
</style>
<script type="application/ecmascript"><![CDATA[
document.addEventListener('DOMContentLoaded', (event) => {
  highlightEdges();
  highlightAdjacentNodes();
});
]]></script>
</svg>
