<?xml version="1.0" encoding="UTF-8" standalone="no"?>
<!DOCTYPE svg PUBLIC "-//W3C//DTD SVG 1.1//EN"
 "http://www.w3.org/Graphics/SVG/1.1/DTD/svg11.dtd">
<!-- Generated by graphviz version 13.1.0 (20250701.0955)
 -->
<!-- Title: Exception Pages: 1 -->
<!--zoomable 201 -->

<svg id="main" version="1.1" xmlns="http://www.w3.org/2000/svg" xmlns:xlink="http://www.w3.org/1999/xlink" xml:space="preserve" onload="init(evt)">

<style type="text/css"><![CDATA[
.node, .edge {opacity: 0.7;}
.node.selected, .edge.selected {opacity: 1;}
.edge:hover path { stroke: red; }
.edge:hover polygon { stroke: red; fill: red; }
]]></style>

<defs>
  <circle id="rim" cx="0" cy="0" r="7"/>
  <circle id="rim2" cx="0" cy="0" r="3.5"/>
  <g id="zoomPlus">
    <use xlink:href="#rim" fill="#404040"><set attributeName="fill" to="#808080" begin="zoomplus.mouseover" end="zoomplus.mouseout"/></use>
    <path d="M-4,0h8M0,-4v8" fill="none" stroke="white" stroke-width="1.5" pointer-events="none"/>
  </g>
  <g id="zoomMin">
    <use xlink:href="#rim" fill="#404040"><set attributeName="fill" to="#808080" begin="zoomminus.mouseover" end="zoomminus.mouseout"/></use>
    <path d="M-4,0h8" fill="none" stroke="white" stroke-width="1.5" pointer-events="none"/>
  </g>
  <g id="arrowUp" transform="translate(30 24)">
    <use xlink:href="#rim"/>
    <path pointer-events="none" fill="none" stroke="white" stroke-width="1.5" d="M0,-3.0v7 M-2.5,-0.5L0,-3.0L2.5,-0.5"/>
  </g>
  <g id="arrowRight" transform="rotate(90) translate(36 -43)">
    <use xlink:href="#rim"/>
    <path pointer-events="none" fill="none" stroke="white" stroke-width="1.5" d="M0,-3.0v7 M-2.5,-0.5L0,-3.0L2.5,-0.5"/>
  </g>
  <g id="arrowDown" transform="rotate(180) translate(-30 -48)">
    <use xlink:href="#rim"/>
    <path pointer-events="none" fill="none" stroke="white" stroke-width="1.5" d="M0,-3.0v7 M-2.5,-0.5L0,-3.0L2.5,-0.5"/>
  </g>
  <g id="arrowLeft" transform="rotate(270) translate(-36 17)">
    <use xlink:href="#rim"/>
    <path pointer-events="none" fill="none" stroke="white" stroke-width="1.5" d="M0,-3.0v7 M-2.5,-0.5L0,-3.0L2.5,-0.5"/>
  </g>
  <g id="resetDef">
    <use xlink:href="#rim2" fill="#404040"><set attributeName="fill" to="#808080" begin="reset.mouseover" end="reset.mouseout"/></use>
  </g>
</defs>
<script type="application/ecmascript">
var viewWidth = 512;
var viewHeight = 201;
var sectionId = 'dynsection-0';
</script>
<script type="application/ecmascript" xlink:href="svg.min.js"/>
<svg id="graph" class="graph">
<g id="viewport">
<title>Exception</title>
<!-- Node1 -->
<g id="Node000001" class="node">
<title>Node1</title>
<g id="a_Node000001"><a xlink:title=" ">
<polygon fill="#999999" stroke="none" points="262.75,-192.5 211.25,-192.5 211.25,-142.75 262.75,-142.75 262.75,-192.5"/>
<text xml:space="preserve" text-anchor="start" x="215.25" y="-179" font-family="Helvetica,sans-Serif" font-size="10.00">Exception</text>
<text xml:space="preserve" text-anchor="start" x="235.5" y="-163.75" font-family="Helvetica,sans-Serif" font-size="10.00"> </text>
<text xml:space="preserve" text-anchor="start" x="235.5" y="-148.5" font-family="Helvetica,sans-Serif" font-size="10.00"> </text>
<polygon fill="#666666" stroke="#666666" points="211.25,-175.25 211.25,-175.25 262.75,-175.25 262.75,-175.25 211.25,-175.25"/>
<polygon fill="#666666" stroke="#666666" points="211.25,-160 211.25,-160 262.75,-160 262.75,-160 211.25,-160"/>
<polygon fill="none" stroke="#666666" points="211.25,-142.75 211.25,-192.5 262.75,-192.5 262.75,-142.75 211.25,-142.75"/>
</a>
</g>
</g>
<!-- Node2 -->
<g id="Node000002" class="node">
<title>Node2</title>
<g id="a_Node000002"><a xlink:href="classTaskManagement_1_1Application_1_1Exceptions_1_1NotFoundException.html" target="_top" xlink:title="NotFoundException se lanza cuando una entidad solicitada no puede ser encontrada.">
<polygon fill="white" stroke="none" points="146,-106.75 0,-106.75 0,0 146,0 146,-106.75"/>
<text xml:space="preserve" text-anchor="start" x="4" y="-93.25" font-family="Helvetica,sans-Serif" font-size="10.00">TaskManagement.Application.</text>
<text xml:space="preserve" text-anchor="start" x="4" y="-82" font-family="Helvetica,sans-Serif" font-size="10.00">Exceptions.NotFoundException</text>
<text xml:space="preserve" text-anchor="start" x="71.5" y="-66.75" font-family="Helvetica,sans-Serif" font-size="10.00"> </text>
<text xml:space="preserve" text-anchor="start" x="12.94" y="-51.5" font-family="Helvetica,sans-Serif" font-size="10.00">+</text>
<text xml:space="preserve" text-anchor="start" x="31.88" y="-51.5" font-family="Helvetica,sans-Serif" font-size="10.00">NotFoundException()</text>
<text xml:space="preserve" text-anchor="start" x="12.94" y="-36.25" font-family="Helvetica,sans-Serif" font-size="10.00">+</text>
<text xml:space="preserve" text-anchor="start" x="31.88" y="-36.25" font-family="Helvetica,sans-Serif" font-size="10.00">NotFoundException()</text>
<text xml:space="preserve" text-anchor="start" x="12.94" y="-21" font-family="Helvetica,sans-Serif" font-size="10.00">+</text>
<text xml:space="preserve" text-anchor="start" x="31.88" y="-21" font-family="Helvetica,sans-Serif" font-size="10.00">NotFoundException()</text>
<text xml:space="preserve" text-anchor="start" x="12.94" y="-5.75" font-family="Helvetica,sans-Serif" font-size="10.00">+</text>
<text xml:space="preserve" text-anchor="start" x="31.88" y="-5.75" font-family="Helvetica,sans-Serif" font-size="10.00">NotFoundException()</text>
<polygon fill="#666666" stroke="#666666" points="0,-78.25 0,-78.25 146,-78.25 146,-78.25 0,-78.25"/>
<polygon fill="#666666" stroke="#666666" points="0,-63 0,-63 146,-63 146,-63 0,-63"/>
<polygon fill="none" stroke="#666666" points="0,0 0,-106.75 146,-106.75 146,0 0,0"/>
</a>
</g>
</g>
<!-- Node1&#45;&gt;Node2 -->
<g id="edge1_Node000001_Node000002" class="edge">
<title>Node1&#45;&gt;Node2</title>
<g id="a_edge1_Node000001_Node000002"><a xlink:title=" ">
<path fill="none" stroke="#63b8ff" d="M202.17,-142.79C185.73,-131.54 165.46,-117.66 145.89,-104.26"/>
<polygon fill="none" stroke="#63b8ff" points="199.9,-145.47 210.13,-148.23 203.85,-139.69 199.9,-145.47"/>
</a>
</g>
</g>
<!-- Node3 -->
<g id="Node000003" class="node">
<title>Node3</title>
<g id="a_Node000003"><a xlink:href="classTaskManagement_1_1Application_1_1Exceptions_1_1ValidationException.html" target="_top" xlink:title="ValidationException se lanza cuando la validación de entrada falla en la capa de aplicación.">
<polygon fill="white" stroke="none" points="309.62,-106.75 164.38,-106.75 164.38,0 309.62,0 309.62,-106.75"/>
<text xml:space="preserve" text-anchor="start" x="168.38" y="-93.25" font-family="Helvetica,sans-Serif" font-size="10.00">TaskManagement.Application.</text>
<text xml:space="preserve" text-anchor="start" x="168.38" y="-82" font-family="Helvetica,sans-Serif" font-size="10.00">Exceptions.ValidationException</text>
<text xml:space="preserve" text-anchor="start" x="177.31" y="-66.75" font-family="Helvetica,sans-Serif" font-size="10.00">+</text>
<text xml:space="preserve" text-anchor="start" x="196.25" y="-66.75" font-family="Helvetica,sans-Serif" font-size="10.00">Errors</text>
<text xml:space="preserve" text-anchor="start" x="177.31" y="-51.5" font-family="Helvetica,sans-Serif" font-size="10.00">+</text>
<text xml:space="preserve" text-anchor="start" x="196.25" y="-51.5" font-family="Helvetica,sans-Serif" font-size="10.00">ValidationException()</text>
<text xml:space="preserve" text-anchor="start" x="177.31" y="-36.25" font-family="Helvetica,sans-Serif" font-size="10.00">+</text>
<text xml:space="preserve" text-anchor="start" x="196.25" y="-36.25" font-family="Helvetica,sans-Serif" font-size="10.00">ValidationException()</text>
<text xml:space="preserve" text-anchor="start" x="177.31" y="-21" font-family="Helvetica,sans-Serif" font-size="10.00">+</text>
<text xml:space="preserve" text-anchor="start" x="196.25" y="-21" font-family="Helvetica,sans-Serif" font-size="10.00">ValidationException()</text>
<text xml:space="preserve" text-anchor="start" x="177.31" y="-5.75" font-family="Helvetica,sans-Serif" font-size="10.00">+</text>
<text xml:space="preserve" text-anchor="start" x="196.25" y="-5.75" font-family="Helvetica,sans-Serif" font-size="10.00">ValidationException()</text>
<polygon fill="#666666" stroke="#666666" points="164.38,-78.25 164.38,-78.25 309.62,-78.25 309.62,-78.25 164.38,-78.25"/>
<polygon fill="#666666" stroke="#666666" points="164.38,-63 164.38,-63 194.25,-63 194.25,-63 164.38,-63"/>
<polygon fill="#666666" stroke="#666666" points="194.25,-63 194.25,-63 309.62,-63 309.62,-63 194.25,-63"/>
<polygon fill="none" stroke="#666666" points="164.38,0 164.38,-106.75 309.62,-106.75 309.62,0 164.38,0"/>
</a>
</g>
</g>
<!-- Node1&#45;&gt;Node3 -->
<g id="edge2_Node000001_Node000003" class="edge">
<title>Node1&#45;&gt;Node3</title>
<g id="a_edge2_Node000001_Node000003"><a xlink:title=" ">
<path fill="none" stroke="#63b8ff" d="M237,-131.35C237,-123.4 237,-114.8 237,-106.32"/>
<polygon fill="none" stroke="#63b8ff" points="233.5,-131.31 237,-141.31 240.5,-131.31 233.5,-131.31"/>
</a>
</g>
</g>
<!-- Node4 -->
<g id="Node000004" class="node">
<title>Node4</title>
<g id="a_Node000004"><a xlink:href="classTaskManagement_1_1Domain_1_1Exceptions_1_1DomainException.html" target="_top" xlink:title="DomainException es la clase de excepción base para todos los errores de capa de dominio.">
<polygon fill="white" stroke="none" points="504.38,-99.12 327.62,-99.12 327.62,-7.62 504.38,-7.62 504.38,-99.12"/>
<text xml:space="preserve" text-anchor="start" x="331.62" y="-85.62" font-family="Helvetica,sans-Serif" font-size="10.00">TaskManagement.Domain.Exceptions.</text>
<text xml:space="preserve" text-anchor="start" x="377.38" y="-74.38" font-family="Helvetica,sans-Serif" font-size="10.00">DomainException</text>
<text xml:space="preserve" text-anchor="start" x="414.5" y="-59.12" font-family="Helvetica,sans-Serif" font-size="10.00"> </text>
<text xml:space="preserve" text-anchor="start" x="350.5" y="-43.88" font-family="Helvetica,sans-Serif" font-size="10.00">+</text>
<text xml:space="preserve" text-anchor="start" x="379.38" y="-43.88" font-family="Helvetica,sans-Serif" font-size="10.00">DomainException()</text>
<text xml:space="preserve" text-anchor="start" x="350.5" y="-28.62" font-family="Helvetica,sans-Serif" font-size="10.00">+</text>
<text xml:space="preserve" text-anchor="start" x="379.38" y="-28.62" font-family="Helvetica,sans-Serif" font-size="10.00">DomainException()</text>
<text xml:space="preserve" text-anchor="start" x="350.5" y="-13.38" font-family="Helvetica,sans-Serif" font-size="10.00">+</text>
<text xml:space="preserve" text-anchor="start" x="379.38" y="-13.38" font-family="Helvetica,sans-Serif" font-size="10.00">DomainException()</text>
<polygon fill="#666666" stroke="#666666" points="327.62,-70.62 327.62,-70.62 504.38,-70.62 504.38,-70.62 327.62,-70.62"/>
<polygon fill="#666666" stroke="#666666" points="327.62,-55.38 327.62,-55.38 504.38,-55.38 504.38,-55.38 327.62,-55.38"/>
<polygon fill="none" stroke="#666666" points="327.62,-7.62 327.62,-99.12 504.38,-99.12 504.38,-7.62 327.62,-7.62"/>
</a>
</g>
</g>
<!-- Node1&#45;&gt;Node4 -->
<g id="edge3_Node000001_Node000004" class="edge">
<title>Node1&#45;&gt;Node4</title>
<g id="a_edge3_Node000001_Node000004"><a xlink:title=" ">
<path fill="none" stroke="#63b8ff" d="M272.27,-144.51C292.96,-131.53 319.87,-114.66 344.79,-99.03"/>
<polygon fill="none" stroke="#63b8ff" points="270.54,-141.46 263.93,-149.74 274.26,-147.39 270.54,-141.46"/>
</a>
</g>
</g>
</g>
</svg>

<g id="navigator" transform="translate(0 0)" fill="#404254">
  <rect fill="#f2f5e9" fill-opacity="0.5" stroke="#606060" stroke-width=".5" x="0" y="0" width="60" height="60"/>
  <use id="zoomplus" xlink:href="#zoomPlus" x="17" y="9" onmousedown="handleZoom(evt,'in')"/>
  <use id="zoomminus" xlink:href="#zoomMin" x="42" y="9" onmousedown="handleZoom(evt,'out')"/>
  <use id="reset" xlink:href="#resetDef" x="30" y="36" onmousedown="handleReset()"/>
   <use id="arrowup" xlink:href="#arrowUp" x="0" y="0" onmousedown="handlePan(0,-1)"/>
  <use id="arrowright" xlink:href="#arrowRight" x="0" y="0" onmousedown="handlePan(1,0)"/>
  <use id="arrowdown" xlink:href="#arrowDown" x="0" y="0" onmousedown="handlePan(0,1)"/>
  <use id="arrowleft" xlink:href="#arrowLeft" x="0" y="0" onmousedown="handlePan(-1,0)"/>
</g>
<svg viewBox="0 0 15 15" width="100%" height="30px" preserveAspectRatio="xMaxYMin meet">
 <g id="arrow_out" transform="scale(0.3 0.3)">
  <a xlink:href="classException__inherit__graph_org.svg" target="_base">
   <rect id="button" ry="5" rx="5" y="6" x="6" height="38" width="38"
        fill="#f2f5e9" fill-opacity="0.5" stroke="#606060" stroke-width="1.0"/>
   <path id="arrow"
     d="M 11.500037,31.436501 C 11.940474,20.09759 22.043105,11.32322 32.158766,21.979434 L 37.068811,17.246167 C 37.068811,17.246167 37.088388,32 37.088388,32 L 22.160133,31.978069 C 22.160133,31.978069 26.997745,27.140456 26.997745,27.140456 C 18.528582,18.264221 13.291696,25.230495 11.500037,31.436501 z"
     style="fill:#404040;"/>
  </a>
 </g>
</svg>

<style type='text/css'>
<![CDATA[
[data-mouse-over-selected='false'] { opacity: 0.7; }
[data-mouse-over-selected='true']  { opacity: 1.0; }
]]>
</style>
<script type="application/ecmascript"><![CDATA[
document.addEventListener('DOMContentLoaded', (event) => {
  highlightEdges();
  highlightAdjacentNodes();
});
]]></script>
</svg>
