<?xml version="1.0" encoding="UTF-8" standalone="no"?>
<!DOCTYPE svg PUBLIC "-//W3C//DTD SVG 1.1//EN"
 "http://www.w3.org/Graphics/SVG/1.1/DTD/svg11.dtd">
<!-- Generated by graphviz version 13.1.0 (20250701.0955)
 -->
<!-- Title: TaskManagement.Domain.Common.Result.Success Pages: 1 -->
<!--zoomable 440 -->

<svg id="main" version="1.1" xmlns="http://www.w3.org/2000/svg" xmlns:xlink="http://www.w3.org/1999/xlink" xml:space="preserve" onload="init(evt)">

<style type="text/css"><![CDATA[
.node, .edge {opacity: 0.7;}
.node.selected, .edge.selected {opacity: 1;}
.edge:hover path { stroke: red; }
.edge:hover polygon { stroke: red; fill: red; }
]]></style>

<defs>
  <circle id="rim" cx="0" cy="0" r="7"/>
  <circle id="rim2" cx="0" cy="0" r="3.5"/>
  <g id="zoomPlus">
    <use xlink:href="#rim" fill="#404040"><set attributeName="fill" to="#808080" begin="zoomplus.mouseover" end="zoomplus.mouseout"/></use>
    <path d="M-4,0h8M0,-4v8" fill="none" stroke="white" stroke-width="1.5" pointer-events="none"/>
  </g>
  <g id="zoomMin">
    <use xlink:href="#rim" fill="#404040"><set attributeName="fill" to="#808080" begin="zoomminus.mouseover" end="zoomminus.mouseout"/></use>
    <path d="M-4,0h8" fill="none" stroke="white" stroke-width="1.5" pointer-events="none"/>
  </g>
  <g id="arrowUp" transform="translate(30 24)">
    <use xlink:href="#rim"/>
    <path pointer-events="none" fill="none" stroke="white" stroke-width="1.5" d="M0,-3.0v7 M-2.5,-0.5L0,-3.0L2.5,-0.5"/>
  </g>
  <g id="arrowRight" transform="rotate(90) translate(36 -43)">
    <use xlink:href="#rim"/>
    <path pointer-events="none" fill="none" stroke="white" stroke-width="1.5" d="M0,-3.0v7 M-2.5,-0.5L0,-3.0L2.5,-0.5"/>
  </g>
  <g id="arrowDown" transform="rotate(180) translate(-30 -48)">
    <use xlink:href="#rim"/>
    <path pointer-events="none" fill="none" stroke="white" stroke-width="1.5" d="M0,-3.0v7 M-2.5,-0.5L0,-3.0L2.5,-0.5"/>
  </g>
  <g id="arrowLeft" transform="rotate(270) translate(-36 17)">
    <use xlink:href="#rim"/>
    <path pointer-events="none" fill="none" stroke="white" stroke-width="1.5" d="M0,-3.0v7 M-2.5,-0.5L0,-3.0L2.5,-0.5"/>
  </g>
  <g id="resetDef">
    <use xlink:href="#rim2" fill="#404040"><set attributeName="fill" to="#808080" begin="reset.mouseover" end="reset.mouseout"/></use>
  </g>
</defs>
<script type="application/ecmascript">
var viewWidth = 672;
var viewHeight = 440;
var sectionId = 'dynsection-9';
</script>
<script type="application/ecmascript" xlink:href="svg.min.js"/>
<svg id="graph" class="graph">
<g id="viewport">
<title>TaskManagement.Domain.Common.Result.Success</title>
<!-- Node1 -->
<g id="Node000001" class="node">
<title>Node1</title>
<g id="a_Node000001"><a xlink:title=" ">
<polygon fill="#999999" stroke="#666666" points="663.75,-241.5 488,-241.5 488,-211 663.75,-211 663.75,-241.5"/>
<text xml:space="preserve" text-anchor="start" x="496" y="-228" font-family="Helvetica,sans-Serif" font-size="10.00">TaskManagement.Domain.Common.</text>
<text xml:space="preserve" text-anchor="middle" x="575.88" y="-216.75" font-family="Helvetica,sans-Serif" font-size="10.00">Result.Success</text>
</a>
</g>
</g>
<!-- Node2 -->
<g id="Node000002" class="node">
<title>Node2</title>
<g id="a_Node000002"><a xlink:href="classTaskManagement_1_1Domain_1_1Entities_1_1TaskItem.html#ac77b8faed959308cdf95aa3c3eafc25a" target="_top" xlink:title=" ">
<polygon fill="white" stroke="#666666" points="437.38,-431.5 268.38,-431.5 268.38,-401 437.38,-401 437.38,-431.5"/>
<text xml:space="preserve" text-anchor="start" x="276.38" y="-418" font-family="Helvetica,sans-Serif" font-size="10.00">TaskManagement.Domain.Entities.</text>
<text xml:space="preserve" text-anchor="middle" x="352.88" y="-406.75" font-family="Helvetica,sans-Serif" font-size="10.00">TaskItem.AssignTo</text>
</a>
</g>
</g>
<!-- Node1&#45;&gt;Node2 -->
<g id="edge1_Node000001_Node000002" class="edge">
<title>Node1&#45;&gt;Node2</title>
<g id="a_edge1_Node000001_Node000002"><a xlink:title=" ">
<path fill="none" stroke="#63b8ff" d="M563.01,-251.66C544.56,-288.28 505.48,-355.44 452,-391.25 446.6,-394.87 440.7,-397.96 434.58,-400.61"/>
<polygon fill="#63b8ff" stroke="#63b8ff" points="565.93,-253.64 567.19,-243.12 559.65,-250.56 565.93,-253.64"/>
</a>
</g>
</g>
<!-- Node3 -->
<g id="Node000003" class="node">
<title>Node3</title>
<g id="a_Node000003"><a xlink:href="classTaskManagement_1_1Domain_1_1Entities_1_1TaskItem.html#ac904582fc66da4bbfcdef69681e1b8fa" target="_top" xlink:title=" ">
<polygon fill="white" stroke="#666666" points="437.38,-382.5 268.38,-382.5 268.38,-352 437.38,-352 437.38,-382.5"/>
<text xml:space="preserve" text-anchor="start" x="276.38" y="-369" font-family="Helvetica,sans-Serif" font-size="10.00">TaskManagement.Domain.Entities.</text>
<text xml:space="preserve" text-anchor="middle" x="352.88" y="-357.75" font-family="Helvetica,sans-Serif" font-size="10.00">TaskItem.ClearDomainEvents</text>
</a>
</g>
</g>
<!-- Node1&#45;&gt;Node3 -->
<g id="edge2_Node000001_Node000003" class="edge">
<title>Node1&#45;&gt;Node3</title>
<g id="a_edge2_Node000001_Node000003"><a xlink:title=" ">
<path fill="none" stroke="#63b8ff" d="M555.97,-250.29C533.84,-276.77 494.76,-318.72 452,-342.25 445.53,-345.81 438.54,-348.87 431.38,-351.51"/>
<polygon fill="#63b8ff" stroke="#63b8ff" points="558.48,-252.75 562.1,-242.8 553.06,-248.32 558.48,-252.75"/>
</a>
</g>
</g>
<!-- Node4 -->
<g id="Node000004" class="node">
<title>Node4</title>
<g id="a_Node000004"><a xlink:href="classTaskManagement_1_1Domain_1_1Entities_1_1TaskItem.html#a073865f352e456e4f1719b31986d1947" target="_top" xlink:title=" ">
<polygon fill="white" stroke="#666666" points="437.38,-333.5 268.38,-333.5 268.38,-303 437.38,-303 437.38,-333.5"/>
<text xml:space="preserve" text-anchor="start" x="276.38" y="-320" font-family="Helvetica,sans-Serif" font-size="10.00">TaskManagement.Domain.Entities.</text>
<text xml:space="preserve" text-anchor="middle" x="352.88" y="-308.75" font-family="Helvetica,sans-Serif" font-size="10.00">TaskItem.Complete</text>
</a>
</g>
</g>
<!-- Node1&#45;&gt;Node4 -->
<g id="edge3_Node000001_Node000004" class="edge">
<title>Node1&#45;&gt;Node4</title>
<g id="a_edge3_Node000001_Node000004"><a xlink:title=" ">
<path fill="none" stroke="#63b8ff" d="M541.1,-247.66C517.02,-262.18 483.46,-280.89 452,-293.25 443.25,-296.69 433.87,-299.78 424.5,-302.52"/>
<polygon fill="#63b8ff" stroke="#63b8ff" points="542.81,-250.72 549.52,-242.52 539.16,-244.75 542.81,-250.72"/>
</a>
</g>
</g>
<!-- Node5 -->
<g id="Node000005" class="node">
<title>Node5</title>
<g id="a_Node000005"><a xlink:href="classTaskManagement_1_1Domain_1_1Entities_1_1TaskItem.html#a88b6dc74b70f3e61aba7057cf12fa9e0" target="_top" xlink:title=" ">
<polygon fill="white" stroke="#666666" points="437.38,-284.5 268.38,-284.5 268.38,-254 437.38,-254 437.38,-284.5"/>
<text xml:space="preserve" text-anchor="start" x="276.38" y="-271" font-family="Helvetica,sans-Serif" font-size="10.00">TaskManagement.Domain.Entities.</text>
<text xml:space="preserve" text-anchor="middle" x="352.88" y="-259.75" font-family="Helvetica,sans-Serif" font-size="10.00">TaskItem.Create</text>
</a>
</g>
</g>
<!-- Node1&#45;&gt;Node5 -->
<g id="edge4_Node000001_Node000005" class="edge">
<title>Node1&#45;&gt;Node5</title>
<g id="a_edge4_Node000001_Node000005"><a xlink:title=" ">
<path fill="none" stroke="#63b8ff" d="M483.14,-244.1C467.08,-247.22 450.48,-250.45 434.75,-253.51"/>
<polygon fill="#63b8ff" stroke="#63b8ff" points="483.52,-247.59 492.67,-242.25 482.18,-240.72 483.52,-247.59"/>
</a>
</g>
</g>
<!-- Node6 -->
<g id="Node000006" class="node">
<title>Node6</title>
<g id="a_Node000006"><a xlink:href="classTaskManagement_1_1Application_1_1Commands_1_1CreateTask_1_1CreateTaskCommandHandler.html#abc6681ba62c7b6315e31cd11fac19b70" target="_top" xlink:title=" ">
<polygon fill="white" stroke="#666666" points="217.75,-268.12 0,-268.12 0,-226.38 217.75,-226.38 217.75,-268.12"/>
<text xml:space="preserve" text-anchor="start" x="8" y="-254.62" font-family="Helvetica,sans-Serif" font-size="10.00">TaskManagement.Application.</text>
<text xml:space="preserve" text-anchor="start" x="8" y="-243.38" font-family="Helvetica,sans-Serif" font-size="10.00">Commands.CreateTask.CreateTaskCommand</text>
<text xml:space="preserve" text-anchor="middle" x="108.88" y="-232.12" font-family="Helvetica,sans-Serif" font-size="10.00">Handler.Handle</text>
</a>
</g>
</g>
<!-- Node1&#45;&gt;Node6 -->
<g id="edge8_Node000001_Node000006" class="edge">
<title>Node1&#45;&gt;Node6</title>
<g id="a_edge8_Node000001_Node000006"><a xlink:title=" ">
<path fill="none" stroke="#63b8ff" d="M476.25,-230.7C400.49,-234.13 295.95,-238.85 217.93,-242.37"/>
<polygon fill="#63b8ff" stroke="#63b8ff" points="476.34,-234.2 486.17,-230.26 476.03,-227.21 476.34,-234.2"/>
</a>
</g>
</g>
<!-- Node7 -->
<g id="Node000007" class="node">
<title>Node7</title>
<g id="a_Node000007"><a xlink:href="classTaskManagement_1_1Domain_1_1ValueObjects_1_1Email.html#a7ae645d5958e6189215dfe71a5fe2e5f" target="_top" xlink:title=" ">
<polygon fill="white" stroke="#666666" points="431.38,-198.5 274.38,-198.5 274.38,-168 431.38,-168 431.38,-198.5"/>
<text xml:space="preserve" text-anchor="start" x="282.38" y="-185" font-family="Helvetica,sans-Serif" font-size="10.00">TaskManagement.Domain.Value</text>
<text xml:space="preserve" text-anchor="middle" x="352.88" y="-173.75" font-family="Helvetica,sans-Serif" font-size="10.00">Objects.Email.Create</text>
</a>
</g>
</g>
<!-- Node1&#45;&gt;Node7 -->
<g id="edge6_Node000001_Node000007" class="edge">
<title>Node1&#45;&gt;Node7</title>
<g id="a_edge6_Node000001_Node000007"><a xlink:title=" ">
<path fill="none" stroke="#63b8ff" d="M483.06,-208.39C466.02,-205.07 448.37,-201.64 431.8,-198.41"/>
<polygon fill="#63b8ff" stroke="#63b8ff" points="482.18,-211.78 492.67,-210.25 483.52,-204.91 482.18,-211.78"/>
</a>
</g>
</g>
<!-- Node8 -->
<g id="Node000008" class="node">
<title>Node8</title>
<g id="a_Node000008"><a xlink:href="classTaskManagement_1_1Application_1_1Commands_1_1CompleteTask_1_1CompleteTaskCommandHandler.html#ab173c3e7e5ec5db4d2083d62da2dfa49" target="_top" xlink:title=" ">
<polygon fill="white" stroke="#666666" points="452,-150.12 253.75,-150.12 253.75,-108.38 452,-108.38 452,-150.12"/>
<text xml:space="preserve" text-anchor="start" x="261.75" y="-136.62" font-family="Helvetica,sans-Serif" font-size="10.00">TaskManagement.Application.</text>
<text xml:space="preserve" text-anchor="start" x="261.75" y="-125.38" font-family="Helvetica,sans-Serif" font-size="10.00">Commands.CompleteTask.CompleteTask</text>
<text xml:space="preserve" text-anchor="middle" x="352.88" y="-114.12" font-family="Helvetica,sans-Serif" font-size="10.00">CommandHandler.Handle</text>
</a>
</g>
</g>
<!-- Node1&#45;&gt;Node8 -->
<g id="edge7_Node000001_Node000008" class="edge">
<title>Node1&#45;&gt;Node8</title>
<g id="a_edge7_Node000001_Node000008"><a xlink:title=" ">
<path fill="none" stroke="#63b8ff" d="M540,-204.76C515.9,-190.53 482.77,-172.19 452,-159.25 444.69,-156.18 436.96,-153.27 429.17,-150.56"/>
<polygon fill="#63b8ff" stroke="#63b8ff" points="538.06,-207.67 548.44,-209.8 541.65,-201.66 538.06,-207.67"/>
</a>
</g>
</g>
<!-- Node9 -->
<g id="Node000009" class="node">
<title>Node9</title>
<g id="a_Node000009"><a xlink:href="classTaskManagement_1_1Application_1_1Queries_1_1GetTaskById_1_1GetTaskByIdQueryHandler.html#aea20e3bbe19e9b94160a4557ccb06224" target="_top" xlink:title=" ">
<polygon fill="white" stroke="#666666" points="437.75,-90.12 268,-90.12 268,-48.38 437.75,-48.38 437.75,-90.12"/>
<text xml:space="preserve" text-anchor="start" x="276" y="-76.62" font-family="Helvetica,sans-Serif" font-size="10.00">TaskManagement.Application.</text>
<text xml:space="preserve" text-anchor="start" x="276" y="-65.38" font-family="Helvetica,sans-Serif" font-size="10.00">Queries.GetTaskById.GetTaskById</text>
<text xml:space="preserve" text-anchor="middle" x="352.88" y="-54.12" font-family="Helvetica,sans-Serif" font-size="10.00">QueryHandler.Handle</text>
</a>
</g>
</g>
<!-- Node1&#45;&gt;Node9 -->
<g id="edge9_Node000001_Node000009" class="edge">
<title>Node1&#45;&gt;Node9</title>
<g id="a_edge9_Node000001_Node000009"><a xlink:title=" ">
<path fill="none" stroke="#63b8ff" d="M557.23,-201.55C535.56,-172.94 496.2,-126.3 452,-99.25 446.76,-96.04 441.15,-93.15 435.36,-90.56"/>
<polygon fill="#63b8ff" stroke="#63b8ff" points="554.21,-203.35 562.98,-209.29 559.83,-199.17 554.21,-203.35"/>
</a>
</g>
</g>
<!-- Node10 -->
<g id="Node000010" class="node">
<title>Node10</title>
<g id="a_Node000010"><a xlink:href="classTaskManagement_1_1Domain_1_1Entities_1_1TaskItem.html#ac8a54e40a046767566e22eadfe917aef" target="_top" xlink:title=" ">
<polygon fill="white" stroke="#666666" points="437.38,-30.5 268.38,-30.5 268.38,0 437.38,0 437.38,-30.5"/>
<text xml:space="preserve" text-anchor="start" x="276.38" y="-17" font-family="Helvetica,sans-Serif" font-size="10.00">TaskManagement.Domain.Entities.</text>
<text xml:space="preserve" text-anchor="middle" x="352.88" y="-5.75" font-family="Helvetica,sans-Serif" font-size="10.00">TaskItem.UpdatePriority</text>
</a>
</g>
</g>
<!-- Node1&#45;&gt;Node10 -->
<g id="edge10_Node000001_Node000010" class="edge">
<title>Node1&#45;&gt;Node10</title>
<g id="a_edge10_Node000001_Node000010"><a xlink:title=" ">
<path fill="none" stroke="#63b8ff" d="M565.09,-200.1C548.4,-159.2 510.45,-80.51 452,-39.25 447.42,-36.01 442.44,-33.21 437.25,-30.79"/>
<polygon fill="#63b8ff" stroke="#63b8ff" points="561.74,-201.15 568.68,-209.16 568.25,-198.58 561.74,-201.15"/>
</a>
</g>
</g>
<!-- Node5&#45;&gt;Node6 -->
<g id="edge5_Node000005_Node000006" class="edge">
<title>Node5&#45;&gt;Node6</title>
<g id="a_edge5_Node000005_Node000006"><a xlink:title=" ">
<path fill="none" stroke="#63b8ff" d="M256.83,-260.61C244.08,-259.45 230.93,-258.26 217.98,-257.08"/>
<polygon fill="#63b8ff" stroke="#63b8ff" points="256.13,-264.06 266.41,-261.48 256.76,-257.09 256.13,-264.06"/>
</a>
</g>
</g>
</g>
</svg>

<g id="navigator" transform="translate(0 0)" fill="#404254">
  <rect fill="#f2f5e9" fill-opacity="0.5" stroke="#606060" stroke-width=".5" x="0" y="0" width="60" height="60"/>
  <use id="zoomplus" xlink:href="#zoomPlus" x="17" y="9" onmousedown="handleZoom(evt,'in')"/>
  <use id="zoomminus" xlink:href="#zoomMin" x="42" y="9" onmousedown="handleZoom(evt,'out')"/>
  <use id="reset" xlink:href="#resetDef" x="30" y="36" onmousedown="handleReset()"/>
   <use id="arrowup" xlink:href="#arrowUp" x="0" y="0" onmousedown="handlePan(0,-1)"/>
  <use id="arrowright" xlink:href="#arrowRight" x="0" y="0" onmousedown="handlePan(1,0)"/>
  <use id="arrowdown" xlink:href="#arrowDown" x="0" y="0" onmousedown="handlePan(0,1)"/>
  <use id="arrowleft" xlink:href="#arrowLeft" x="0" y="0" onmousedown="handlePan(-1,0)"/>
</g>
<svg viewBox="0 0 15 15" width="100%" height="30px" preserveAspectRatio="xMaxYMin meet">
 <g id="arrow_out" transform="scale(0.3 0.3)">
  <a xlink:href="classTaskManagement_1_1Domain_1_1Common_1_1Result_aca3f1594f7b60690fbe65d1d6436d64d_icgraph_org.svg" target="_base">
   <rect id="button" ry="5" rx="5" y="6" x="6" height="38" width="38"
        fill="#f2f5e9" fill-opacity="0.5" stroke="#606060" stroke-width="1.0"/>
   <path id="arrow"
     d="M 11.500037,31.436501 C 11.940474,20.09759 22.043105,11.32322 32.158766,21.979434 L 37.068811,17.246167 C 37.068811,17.246167 37.088388,32 37.088388,32 L 22.160133,31.978069 C 22.160133,31.978069 26.997745,27.140456 26.997745,27.140456 C 18.528582,18.264221 13.291696,25.230495 11.500037,31.436501 z"
     style="fill:#404040;"/>
  </a>
 </g>
</svg>

<style type='text/css'>
<![CDATA[
[data-mouse-over-selected='false'] { opacity: 0.7; }
[data-mouse-over-selected='true']  { opacity: 1.0; }
]]>
</style>
<script type="application/ecmascript"><![CDATA[
document.addEventListener('DOMContentLoaded', (event) => {
  highlightEdges();
  highlightAdjacentNodes();
});
]]></script>
</svg>
