<?xml version="1.0" encoding="UTF-8" standalone="no"?>
<!DOCTYPE svg PUBLIC "-//W3C//DTD SVG 1.1//EN"
 "http://www.w3.org/Graphics/SVG/1.1/DTD/svg11.dtd">
<!-- Generated by graphviz version 13.1.0 (20250701.0955)
 -->
<!-- Title: TaskManagement.Domain.Events.TaskCompletedEvent Pages: 1 -->
<svg width="167pt" height="197pt"
 viewBox="0.00 0.00 167.00 197.00" xmlns="http://www.w3.org/2000/svg" xmlns:xlink="http://www.w3.org/1999/xlink">

<svg id="main" version="1.1" xmlns="http://www.w3.org/2000/svg" xmlns:xlink="http://www.w3.org/1999/xlink" xml:space="preserve">

<style type="text/css"><![CDATA[
.node, .edge {opacity: 0.7;}
.node.selected, .edge.selected {opacity: 1;}
.edge:hover path { stroke: red; }
.edge:hover polygon { stroke: red; fill: red; }
]]></style>
<script type="application/ecmascript" xlink:href="svg.min.js"/>
<svg id="graph" class="graph">
<g id="graph0" class="graph" transform="scale(1 1) rotate(0) translate(4 192.5)">
<title>TaskManagement.Domain.Events.TaskCompletedEvent</title>
<!-- Node1 -->
<g id="Node000001" class="node">
<title>Node1</title>
<g id="a_Node000001"><a xlink:title=" ">
<polygon fill="#999999" stroke="none" points="158.75,-76.25 0,-76.25 0,0 158.75,0 158.75,-76.25"/>
<text xml:space="preserve" text-anchor="start" x="4" y="-62.75" font-family="Helvetica,sans-Serif" font-size="10.00">TaskManagement.Domain.Events.</text>
<text xml:space="preserve" text-anchor="start" x="32.5" y="-51.5" font-family="Helvetica,sans-Serif" font-size="10.00">TaskCompletedEvent</text>
<text xml:space="preserve" text-anchor="start" x="14.25" y="-36.25" font-family="Helvetica,sans-Serif" font-size="10.00">+</text>
<text xml:space="preserve" text-anchor="start" x="34.5" y="-36.25" font-family="Helvetica,sans-Serif" font-size="10.00">TaskId</text>
<text xml:space="preserve" text-anchor="start" x="14.25" y="-21" font-family="Helvetica,sans-Serif" font-size="10.00">+</text>
<text xml:space="preserve" text-anchor="start" x="34.5" y="-21" font-family="Helvetica,sans-Serif" font-size="10.00">CompletedAt</text>
<text xml:space="preserve" text-anchor="start" x="14.25" y="-5.75" font-family="Helvetica,sans-Serif" font-size="10.00">+</text>
<text xml:space="preserve" text-anchor="start" x="34.5" y="-5.75" font-family="Helvetica,sans-Serif" font-size="10.00">TaskCompletedEvent()</text>
<polygon fill="#666666" stroke="#666666" points="0,-47.75 0,-47.75 158.75,-47.75 158.75,-47.75 0,-47.75"/>
<polygon fill="#666666" stroke="#666666" points="0,-17.25 0,-17.25 32.5,-17.25 32.5,-17.25 0,-17.25"/>
<polygon fill="#666666" stroke="#666666" points="32.5,-17.25 32.5,-17.25 158.75,-17.25 158.75,-17.25 32.5,-17.25"/>
<polygon fill="none" stroke="#666666" points="0,0 0,-76.25 158.75,-76.25 158.75,0 0,0"/>
</a>
</g>
</g>
<!-- Node2 -->
<g id="Node000002" class="node">
<title>Node2</title>
<g id="a_Node000002"><a xlink:href="classTaskManagement_1_1Domain_1_1Events_1_1DomainEvent.html" target="_top" xlink:title="DomainEvent es una clase base abstracta para todos los eventos de dominio en el sistema.">
<polygon fill="white" stroke="none" points="158.75,-188.5 0,-188.5 0,-112.25 158.75,-112.25 158.75,-188.5"/>
<text xml:space="preserve" text-anchor="start" x="4" y="-175" font-family="Helvetica,sans-Serif" font-size="10.00">TaskManagement.Domain.Events.</text>
<text xml:space="preserve" text-anchor="start" x="49.75" y="-163.75" font-family="Helvetica,sans-Serif" font-size="10.00">DomainEvent</text>
<text xml:space="preserve" text-anchor="start" x="26.06" y="-148.5" font-family="Helvetica,sans-Serif" font-size="10.00">+</text>
<text xml:space="preserve" text-anchor="start" x="58.12" y="-148.5" font-family="Helvetica,sans-Serif" font-size="10.00">Id</text>
<text xml:space="preserve" text-anchor="start" x="26.06" y="-133.25" font-family="Helvetica,sans-Serif" font-size="10.00">+</text>
<text xml:space="preserve" text-anchor="start" x="58.12" y="-133.25" font-family="Helvetica,sans-Serif" font-size="10.00">OccurredOn</text>
<text xml:space="preserve" text-anchor="start" x="77.88" y="-118" font-family="Helvetica,sans-Serif" font-size="10.00"> </text>
<polygon fill="#666666" stroke="#666666" points="0,-160 0,-160 158.75,-160 158.75,-160 0,-160"/>
<polygon fill="#666666" stroke="#666666" points="0,-129.5 0,-129.5 56.12,-129.5 56.12,-129.5 0,-129.5"/>
<polygon fill="#666666" stroke="#666666" points="56.12,-129.5 56.12,-129.5 158.75,-129.5 158.75,-129.5 56.12,-129.5"/>
<polygon fill="none" stroke="#666666" points="0,-112.25 0,-188.5 158.75,-188.5 158.75,-112.25 0,-112.25"/>
</a>
</g>
</g>
<!-- Node2&#45;&gt;Node1 -->
<g id="edge1_Node000001_Node000002" class="edge">
<title>Node2&#45;&gt;Node1</title>
<g id="a_edge1_Node000001_Node000002"><a xlink:title=" ">
<path fill="none" stroke="#63b8ff" d="M79.38,-100.88C79.38,-92.62 79.38,-84.15 79.38,-76.23"/>
<polygon fill="none" stroke="#63b8ff" points="75.88,-100.84 79.38,-110.84 82.88,-100.84 75.88,-100.84"/>
</a>
</g>
</g>
</g>
</svg>
</svg>

<style type='text/css'>
<![CDATA[
[data-mouse-over-selected='false'] { opacity: 0.7; }
[data-mouse-over-selected='true']  { opacity: 1.0; }
]]>
</style>
<script type="application/ecmascript"><![CDATA[
document.addEventListener('DOMContentLoaded', (event) => {
  highlightEdges();
  highlightAdjacentNodes();
});
]]></script>
</svg>
