<?xml version="1.0" encoding="UTF-8" standalone="no"?>
<!DOCTYPE svg PUBLIC "-//W3C//DTD SVG 1.1//EN"
 "http://www.w3.org/Graphics/SVG/1.1/DTD/svg11.dtd">
<!-- Generated by graphviz version 13.1.0 (20250701.0955)
 -->
<!-- Title: AbstractValidator Pages: 1 -->
<svg width="195pt" height="155pt"
 viewBox="0.00 0.00 195.00 155.00" xmlns="http://www.w3.org/2000/svg" xmlns:xlink="http://www.w3.org/1999/xlink">

<svg id="main" version="1.1" xmlns="http://www.w3.org/2000/svg" xmlns:xlink="http://www.w3.org/1999/xlink" xml:space="preserve">

<style type="text/css"><![CDATA[
.node, .edge {opacity: 0.7;}
.node.selected, .edge.selected {opacity: 1;}
.edge:hover path { stroke: red; }
.edge:hover polygon { stroke: red; fill: red; }
]]></style>
<script type="application/ecmascript" xlink:href="svg.min.js"/>
<svg id="graph" class="graph">
<g id="graph0" class="graph" transform="scale(1 1) rotate(0) translate(4 150.75)">
<title>AbstractValidator</title>
<!-- Node1 -->
<g id="Node000001" class="node">
<title>Node1</title>
<g id="a_Node000001"><a xlink:title=" ">
<polygon fill="#999999" stroke="none" points="134.75,-146.75 52.5,-146.75 52.5,-97 134.75,-97 134.75,-146.75"/>
<text xml:space="preserve" text-anchor="start" x="56.5" y="-133.25" font-family="Helvetica,sans-Serif" font-size="10.00">AbstractValidator</text>
<text xml:space="preserve" text-anchor="start" x="92.12" y="-118" font-family="Helvetica,sans-Serif" font-size="10.00"> </text>
<text xml:space="preserve" text-anchor="start" x="92.12" y="-102.75" font-family="Helvetica,sans-Serif" font-size="10.00"> </text>
<polygon fill="#666666" stroke="#666666" points="52.5,-129.5 52.5,-129.5 134.75,-129.5 134.75,-129.5 52.5,-129.5"/>
<polygon fill="#666666" stroke="#666666" points="52.5,-114.25 52.5,-114.25 134.75,-114.25 134.75,-114.25 52.5,-114.25"/>
<polygon fill="none" stroke="#666666" points="52.5,-97 52.5,-146.75 134.75,-146.75 134.75,-97 52.5,-97"/>
</a>
</g>
</g>
<!-- Node2 -->
<g id="Node000002" class="node">
<title>Node2</title>
<g id="a_Node000002"><a xlink:href="classTaskManagement_1_1Application_1_1Behaviors_1_1CreateTaskCommandValidator.html" target="_top" xlink:title=" ">
<polygon fill="white" stroke="none" points="187.25,-61 0,-61 0,0 187.25,0 187.25,-61"/>
<text xml:space="preserve" text-anchor="start" x="4" y="-47.5" font-family="Helvetica,sans-Serif" font-size="10.00">TaskManagement.Application.</text>
<text xml:space="preserve" text-anchor="start" x="4" y="-36.25" font-family="Helvetica,sans-Serif" font-size="10.00">Behaviors.CreateTaskCommandValidator</text>
<text xml:space="preserve" text-anchor="start" x="92.12" y="-21" font-family="Helvetica,sans-Serif" font-size="10.00"> </text>
<text xml:space="preserve" text-anchor="start" x="11.62" y="-5.75" font-family="Helvetica,sans-Serif" font-size="10.00">+</text>
<text xml:space="preserve" text-anchor="start" x="29.25" y="-5.75" font-family="Helvetica,sans-Serif" font-size="10.00">CreateTaskCommandValidator()</text>
<polygon fill="#666666" stroke="#666666" points="0,-32.5 0,-32.5 187.25,-32.5 187.25,-32.5 0,-32.5"/>
<polygon fill="#666666" stroke="#666666" points="0,-17.25 0,-17.25 187.25,-17.25 187.25,-17.25 0,-17.25"/>
<polygon fill="none" stroke="#666666" points="0,0 0,-61 187.25,-61 187.25,0 0,0"/>
</a>
</g>
</g>
<!-- Node1&#45;&gt;Node2 -->
<g id="edge1_Node000001_Node000002" class="edge">
<title>Node1&#45;&gt;Node2</title>
<g id="a_edge1_Node000001_Node000002"><a xlink:title=" ">
<path fill="none" stroke="#63b8ff" d="M93.62,-86.08C93.62,-77.76 93.62,-68.95 93.62,-60.9"/>
<polygon fill="none" stroke="#63b8ff" points="90.13,-85.88 93.63,-95.88 97.13,-85.88 90.13,-85.88"/>
</a>
</g>
</g>
</g>
</svg>
</svg>

<style type='text/css'>
<![CDATA[
[data-mouse-over-selected='false'] { opacity: 0.7; }
[data-mouse-over-selected='true']  { opacity: 1.0; }
]]>
</style>
<script type="application/ecmascript"><![CDATA[
document.addEventListener('DOMContentLoaded', (event) => {
  highlightEdges();
  highlightAdjacentNodes();
});
]]></script>
</svg>
