<?xml version="1.0" encoding="UTF-8" standalone="no"?>
<!DOCTYPE svg PUBLIC "-//W3C//DTD SVG 1.1//EN"
 "http://www.w3.org/Graphics/SVG/1.1/DTD/svg11.dtd">
<!-- Generated by graphviz version 13.1.0 (20250701.0955)
 -->
<!-- Title: TaskManagement.Domain.ValueObjects.Email.Create Pages: 1 -->
<svg width="589pt" height="88pt"
 viewBox="0.00 0.00 589.00 88.00" xmlns="http://www.w3.org/2000/svg" xmlns:xlink="http://www.w3.org/1999/xlink">
<g id="page0,1_graph0" class="graph" transform="scale(1 1) rotate(0) translate(4 83.5)">
<title>TaskManagement.Domain.ValueObjects.Email.Create</title>
<!-- Node1 -->
<g id="Node000001" class="node">
<title>Node1</title>
<g id="a_Node000001"><a xlink:title=" ">
<polygon fill="#999999" stroke="#666666" points="157,-54.5 0,-54.5 0,-24 157,-24 157,-54.5"/>
<text xml:space="preserve" text-anchor="start" x="8" y="-41" font-family="Helvetica,sans-Serif" font-size="10.00">TaskManagement.Domain.Value</text>
<text xml:space="preserve" text-anchor="middle" x="78.5" y="-29.75" font-family="Helvetica,sans-Serif" font-size="10.00">Objects.Email.Create</text>
</a>
</g>
</g>
<!-- Node2 -->
<g id="Node000002" class="node">
<title>Node2</title>
<g id="a_Node000002"><a xlink:href="classTaskManagement_1_1Domain_1_1Common_1_1Result.html#abb0443b136478238351871e1c1621a33" target="_top" xlink:title=" ">
<polygon fill="white" stroke="#666666" points="368.75,-79.5 193,-79.5 193,-49 368.75,-49 368.75,-79.5"/>
<text xml:space="preserve" text-anchor="start" x="201" y="-66" font-family="Helvetica,sans-Serif" font-size="10.00">TaskManagement.Domain.Common.</text>
<text xml:space="preserve" text-anchor="middle" x="280.88" y="-54.75" font-family="Helvetica,sans-Serif" font-size="10.00">Result.Failure</text>
</a>
</g>
</g>
<!-- Node1&#45;&gt;Node2 -->
<g id="edge1_Node000001_Node000002" class="edge">
<title>Node1&#45;&gt;Node2</title>
<g id="a_edge1_Node000001_Node000002"><a xlink:title=" ">
<path fill="none" stroke="#63b8ff" d="M157.26,-48.95C165.11,-49.93 173.15,-50.93 181.18,-51.94"/>
<polygon fill="#63b8ff" stroke="#63b8ff" points="180.65,-55.4 191.01,-53.16 181.52,-48.45 180.65,-55.4"/>
</a>
</g>
</g>
<!-- Node4 -->
<g id="Node000004" class="node">
<title>Node4</title>
<g id="a_Node000004"><a xlink:href="classTaskManagement_1_1Domain_1_1Common_1_1Result.html#aca3f1594f7b60690fbe65d1d6436d64d" target="_top" xlink:title=" ">
<polygon fill="white" stroke="#666666" points="368.75,-30.5 193,-30.5 193,0 368.75,0 368.75,-30.5"/>
<text xml:space="preserve" text-anchor="start" x="201" y="-17" font-family="Helvetica,sans-Serif" font-size="10.00">TaskManagement.Domain.Common.</text>
<text xml:space="preserve" text-anchor="middle" x="280.88" y="-5.75" font-family="Helvetica,sans-Serif" font-size="10.00">Result.Success</text>
</a>
</g>
</g>
<!-- Node1&#45;&gt;Node4 -->
<g id="edge3_Node000001_Node000004" class="edge">
<title>Node1&#45;&gt;Node4</title>
<g id="a_edge3_Node000001_Node000004"><a xlink:title=" ">
<path fill="none" stroke="#63b8ff" d="M157.26,-29.94C165.11,-29 173.15,-28.03 181.18,-27.07"/>
<polygon fill="#63b8ff" stroke="#63b8ff" points="181.49,-30.56 191.01,-25.89 180.66,-23.61 181.49,-30.56"/>
</a>
</g>
</g>
<!-- Node3 -->
<g id="Node000003" class="node">
<title>Node3</title>
<g id="a_Node000003"><a xlink:href="classTaskManagement_1_1Domain_1_1Common_1_1Result.html#ac72e19a32a39eff6e205a7ed743a20dd" target="_top" xlink:title=" ">
<polygon fill="white" stroke="#666666" points="580.5,-54.5 404.75,-54.5 404.75,-24 580.5,-24 580.5,-54.5"/>
<text xml:space="preserve" text-anchor="start" x="412.75" y="-41" font-family="Helvetica,sans-Serif" font-size="10.00">TaskManagement.Domain.Common.</text>
<text xml:space="preserve" text-anchor="middle" x="492.62" y="-29.75" font-family="Helvetica,sans-Serif" font-size="10.00">Result.Result</text>
</a>
</g>
</g>
<!-- Node2&#45;&gt;Node3 -->
<g id="edge2_Node000002_Node000003" class="edge">
<title>Node2&#45;&gt;Node3</title>
<g id="a_edge2_Node000002_Node000003"><a xlink:title=" ">
<path fill="none" stroke="#63b8ff" d="M369.01,-53.86C376.96,-52.92 385.06,-51.95 393.11,-50.99"/>
<polygon fill="#63b8ff" stroke="#63b8ff" points="393.41,-54.48 402.93,-49.82 392.58,-47.53 393.41,-54.48"/>
</a>
</g>
</g>
<!-- Node4&#45;&gt;Node3 -->
<g id="edge4_Node000004_Node000003" class="edge">
<title>Node4&#45;&gt;Node3</title>
<g id="a_edge4_Node000004_Node000003"><a xlink:title=" ">
<path fill="none" stroke="#63b8ff" d="M369.01,-25.22C376.96,-26.13 385.06,-27.06 393.11,-27.98"/>
<polygon fill="#63b8ff" stroke="#63b8ff" points="392.59,-31.44 402.92,-29.1 393.39,-24.49 392.59,-31.44"/>
</a>
</g>
</g>
</g>
</svg>
