<?xml version="1.0" encoding="UTF-8" standalone="no"?>
<!DOCTYPE svg PUBLIC "-//W3C//DTD SVG 1.1//EN"
 "http://www.w3.org/Graphics/SVG/1.1/DTD/svg11.dtd">
<!-- Generated by graphviz version 13.1.0 (20250701.0955)
 -->
<!-- Title: TaskManagement.Application.Commands.CompleteTask.CompleteTaskCommandHandler Pages: 1 -->
<svg width="198pt" height="193pt"
 viewBox="0.00 0.00 198.00 193.00" xmlns="http://www.w3.org/2000/svg" xmlns:xlink="http://www.w3.org/1999/xlink">

<svg id="main" version="1.1" xmlns="http://www.w3.org/2000/svg" xmlns:xlink="http://www.w3.org/1999/xlink" xml:space="preserve">

<style type="text/css"><![CDATA[
.node, .edge {opacity: 0.7;}
.node.selected, .edge.selected {opacity: 1;}
.edge:hover path { stroke: red; }
.edge:hover polygon { stroke: red; fill: red; }
]]></style>
<script type="application/ecmascript" xlink:href="svg.min.js"/>
<svg id="graph" class="graph">
<g id="graph0" class="graph" transform="scale(1 1) rotate(0) translate(4 188.5)">
<title>TaskManagement.Application.Commands.CompleteTask.CompleteTaskCommandHandler</title>
<!-- Node1 -->
<g id="Node000001" class="node">
<title>Node1</title>
<g id="a_Node000001"><a xlink:title="CompleteTaskCommand encapsula la solicitud de marcar una tarea como completada.">
<polygon fill="#999999" stroke="none" points="190.25,-87.5 0,-87.5 0,0 190.25,0 190.25,-87.5"/>
<text xml:space="preserve" text-anchor="start" x="4" y="-74" font-family="Helvetica,sans-Serif" font-size="10.00">TaskManagement.Application.</text>
<text xml:space="preserve" text-anchor="start" x="4" y="-62.75" font-family="Helvetica,sans-Serif" font-size="10.00">Commands.CompleteTask.CompleteTask</text>
<text xml:space="preserve" text-anchor="start" x="55.75" y="-51.5" font-family="Helvetica,sans-Serif" font-size="10.00">CommandHandler</text>
<text xml:space="preserve" text-anchor="start" x="93.62" y="-36.25" font-family="Helvetica,sans-Serif" font-size="10.00"> </text>
<text xml:space="preserve" text-anchor="start" x="10.12" y="-21" font-family="Helvetica,sans-Serif" font-size="10.00">+</text>
<text xml:space="preserve" text-anchor="start" x="26.25" y="-21" font-family="Helvetica,sans-Serif" font-size="10.00">CompleteTaskCommandHandler()</text>
<text xml:space="preserve" text-anchor="start" x="10.12" y="-5.75" font-family="Helvetica,sans-Serif" font-size="10.00">+</text>
<text xml:space="preserve" text-anchor="start" x="26.25" y="-5.75" font-family="Helvetica,sans-Serif" font-size="10.00">Handle()</text>
<polygon fill="#666666" stroke="#666666" points="0,-47.75 0,-47.75 190.25,-47.75 190.25,-47.75 0,-47.75"/>
<polygon fill="#666666" stroke="#666666" points="0,-32.5 0,-32.5 190.25,-32.5 190.25,-32.5 0,-32.5"/>
<polygon fill="none" stroke="#666666" points="0,0 0,-87.5 190.25,-87.5 190.25,0 0,0"/>
</a>
</g>
</g>
<!-- Node2 -->
<g id="Node000002" class="node">
<title>Node2</title>
<g id="a_Node000002"><a xlink:href="classIRequestHandler-2-g.html" target="_top" xlink:title=" ">
<polygon fill="white" stroke="none" points="161.38,-184.5 28.88,-184.5 28.88,-123.5 161.38,-123.5 161.38,-184.5"/>
<text xml:space="preserve" text-anchor="start" x="32.88" y="-171" font-family="Helvetica,sans-Serif" font-size="10.00">IRequestHandler&lt; Complete</text>
<text xml:space="preserve" text-anchor="start" x="40.38" y="-159.75" font-family="Helvetica,sans-Serif" font-size="10.00">TaskCommand, Result &gt;</text>
<text xml:space="preserve" text-anchor="start" x="93.62" y="-144.5" font-family="Helvetica,sans-Serif" font-size="10.00"> </text>
<text xml:space="preserve" text-anchor="start" x="93.62" y="-129.25" font-family="Helvetica,sans-Serif" font-size="10.00"> </text>
<polygon fill="#bfbfbf" stroke="#bfbfbf" points="28.88,-156 28.88,-156 161.38,-156 161.38,-156 28.88,-156"/>
<polygon fill="#bfbfbf" stroke="#bfbfbf" points="28.88,-140.75 28.88,-140.75 161.38,-140.75 161.38,-140.75 28.88,-140.75"/>
<polygon fill="none" stroke="#bfbfbf" points="28.88,-123.5 28.88,-184.5 161.38,-184.5 161.38,-123.5 28.88,-123.5"/>
</a>
</g>
</g>
<!-- Node2&#45;&gt;Node1 -->
<g id="edge1_Node000001_Node000002" class="edge">
<title>Node2&#45;&gt;Node1</title>
<g id="a_edge1_Node000001_Node000002"><a xlink:title=" ">
<path fill="none" stroke="#63b8ff" d="M95.12,-112.25C95.12,-104.16 95.12,-95.64 95.12,-87.48"/>
<polygon fill="none" stroke="#63b8ff" points="91.63,-112.19 95.13,-122.19 98.63,-112.19 91.63,-112.19"/>
</a>
</g>
</g>
</g>
</svg>
</svg>

<style type='text/css'>
<![CDATA[
[data-mouse-over-selected='false'] { opacity: 0.7; }
[data-mouse-over-selected='true']  { opacity: 1.0; }
]]>
</style>
<script type="application/ecmascript"><![CDATA[
document.addEventListener('DOMContentLoaded', (event) => {
  highlightEdges();
  highlightAdjacentNodes();
});
]]></script>
</svg>
