<?xml version="1.0" encoding="UTF-8" standalone="no"?>
<!DOCTYPE svg PUBLIC "-//W3C//DTD SVG 1.1//EN"
 "http://www.w3.org/Graphics/SVG/1.1/DTD/svg11.dtd">
<!-- Generated by graphviz version 13.1.0 (20250701.0955)
 -->
<!-- Title: TaskManagement.Domain.Common.Result.Result Pages: 1 -->
<svg width="884pt" height="489pt"
 viewBox="0.00 0.00 884.00 489.00" xmlns="http://www.w3.org/2000/svg" xmlns:xlink="http://www.w3.org/1999/xlink">
<g id="page0,1_graph0" class="graph" transform="scale(1 1) rotate(0) translate(4 485.13)">
<title>TaskManagement.Domain.Common.Result.Result</title>
<!-- Node1 -->
<g id="Node000001" class="node">
<title>Node1</title>
<g id="a_Node000001"><a xlink:title=" ">
<polygon fill="#999999" stroke="#666666" points="875.5,-211.13 699.75,-211.13 699.75,-180.63 875.5,-180.63 875.5,-211.13"/>
<text xml:space="preserve" text-anchor="start" x="707.75" y="-197.63" font-family="Helvetica,sans-Serif" font-size="10.00">TaskManagement.Domain.Common.</text>
<text xml:space="preserve" text-anchor="middle" x="787.62" y="-186.38" font-family="Helvetica,sans-Serif" font-size="10.00">Result.Result</text>
</a>
</g>
</g>
<!-- Node2 -->
<g id="Node000002" class="node">
<title>Node2</title>
<g id="a_Node000002"><a xlink:href="classTaskManagement_1_1Domain_1_1Common_1_1Result.html#acf5b62282fb4268c569d70b955c06b27" target="_top" xlink:title=" ">
<polygon fill="white" stroke="#666666" points="663.75,-334.13 488,-334.13 488,-303.63 663.75,-303.63 663.75,-334.13"/>
<text xml:space="preserve" text-anchor="start" x="496" y="-320.63" font-family="Helvetica,sans-Serif" font-size="10.00">TaskManagement.Domain.Common.</text>
<text xml:space="preserve" text-anchor="middle" x="575.88" y="-309.38" font-family="Helvetica,sans-Serif" font-size="10.00">Result.Failure</text>
</a>
</g>
</g>
<!-- Node1&#45;&gt;Node2 -->
<g id="edge1_Node000001_Node000002" class="edge">
<title>Node1&#45;&gt;Node2</title>
<g id="a_edge1_Node000001_Node000002"><a xlink:title=" ">
<path fill="none" stroke="#63b8ff" d="M763.16,-219.34C739.8,-241.48 702.02,-274.12 663.75,-293.88 656.92,-297.41 649.52,-300.51 642.02,-303.2"/>
<polygon fill="#63b8ff" stroke="#63b8ff" points="765.51,-221.94 770.28,-212.48 760.66,-216.9 765.51,-221.94"/>
</a>
</g>
</g>
<!-- Node3 -->
<g id="Node000003" class="node">
<title>Node3</title>
<g id="a_Node000003"><a xlink:href="classTaskManagement_1_1Domain_1_1Common_1_1Result.html#abb0443b136478238351871e1c1621a33" target="_top" xlink:title=" ">
<polygon fill="white" stroke="#666666" points="663.75,-236.13 488,-236.13 488,-205.63 663.75,-205.63 663.75,-236.13"/>
<text xml:space="preserve" text-anchor="start" x="496" y="-222.63" font-family="Helvetica,sans-Serif" font-size="10.00">TaskManagement.Domain.Common.</text>
<text xml:space="preserve" text-anchor="middle" x="575.88" y="-211.38" font-family="Helvetica,sans-Serif" font-size="10.00">Result.Failure</text>
</a>
</g>
</g>
<!-- Node1&#45;&gt;Node3 -->
<g id="edge2_Node000001_Node000003" class="edge">
<title>Node1&#45;&gt;Node3</title>
<g id="a_edge2_Node000001_Node000003"><a xlink:title=" ">
<path fill="none" stroke="#63b8ff" d="M688.17,-207.62C680.13,-208.58 672.03,-209.54 664.07,-210.49"/>
<polygon fill="#63b8ff" stroke="#63b8ff" points="688.48,-211.11 697.99,-206.45 687.65,-204.16 688.48,-211.11"/>
</a>
</g>
</g>
<!-- Node13 -->
<g id="Node000013" class="node">
<title>Node13</title>
<g id="a_Node000013"><a xlink:href="classTaskManagement_1_1Domain_1_1Common_1_1Result.html#a4761f7f42bf7d43283f5f8b4ceef67a6" target="_top" xlink:title=" ">
<polygon fill="white" stroke="#666666" points="663.75,-187.13 488,-187.13 488,-156.63 663.75,-156.63 663.75,-187.13"/>
<text xml:space="preserve" text-anchor="start" x="496" y="-173.63" font-family="Helvetica,sans-Serif" font-size="10.00">TaskManagement.Domain.Common.</text>
<text xml:space="preserve" text-anchor="middle" x="575.88" y="-162.38" font-family="Helvetica,sans-Serif" font-size="10.00">Result.Failure&lt; T &gt;</text>
</a>
</g>
</g>
<!-- Node1&#45;&gt;Node13 -->
<g id="edge13_Node000001_Node000013" class="edge">
<title>Node1&#45;&gt;Node13</title>
<g id="a_edge13_Node000001_Node000013"><a xlink:title=" ">
<path fill="none" stroke="#63b8ff" d="M688.17,-184.62C680.13,-183.7 672.03,-182.77 664.07,-181.86"/>
<polygon fill="#63b8ff" stroke="#63b8ff" points="687.66,-188.08 697.99,-185.74 688.45,-181.13 687.66,-188.08"/>
</a>
</g>
</g>
<!-- Node14 -->
<g id="Node000014" class="node">
<title>Node14</title>
<g id="a_Node000014"><a xlink:href="classTaskManagement_1_1Domain_1_1Common_1_1Result.html#a45a9c68e204252787c1982871a745e10" target="_top" xlink:title=" ">
<polygon fill="white" stroke="#666666" points="663.75,-138.13 488,-138.13 488,-107.63 663.75,-107.63 663.75,-138.13"/>
<text xml:space="preserve" text-anchor="start" x="496" y="-124.63" font-family="Helvetica,sans-Serif" font-size="10.00">TaskManagement.Domain.Common.</text>
<text xml:space="preserve" text-anchor="middle" x="575.88" y="-113.38" font-family="Helvetica,sans-Serif" font-size="10.00">Result.Failure&lt; T &gt;</text>
</a>
</g>
</g>
<!-- Node1&#45;&gt;Node14 -->
<g id="edge14_Node000001_Node000014" class="edge">
<title>Node1&#45;&gt;Node14</title>
<g id="a_edge14_Node000001_Node000014"><a xlink:title=" ">
<path fill="none" stroke="#63b8ff" d="M738.4,-175.86C715.9,-166.82 688.64,-156.31 663.75,-147.88 654.24,-144.66 644.05,-141.49 634.12,-138.54"/>
<polygon fill="#63b8ff" stroke="#63b8ff" points="737.05,-179.09 747.64,-179.59 739.68,-172.6 737.05,-179.09"/>
</a>
</g>
</g>
<!-- Node15 -->
<g id="Node000015" class="node">
<title>Node15</title>
<g id="a_Node000015"><a xlink:href="classTaskManagement_1_1Domain_1_1Common_1_1Result.html#aca3f1594f7b60690fbe65d1d6436d64d" target="_top" xlink:title=" ">
<polygon fill="white" stroke="#666666" points="663.75,-285.13 488,-285.13 488,-254.63 663.75,-254.63 663.75,-285.13"/>
<text xml:space="preserve" text-anchor="start" x="496" y="-271.63" font-family="Helvetica,sans-Serif" font-size="10.00">TaskManagement.Domain.Common.</text>
<text xml:space="preserve" text-anchor="middle" x="575.88" y="-260.38" font-family="Helvetica,sans-Serif" font-size="10.00">Result.Success</text>
</a>
</g>
</g>
<!-- Node1&#45;&gt;Node15 -->
<g id="edge15_Node000001_Node000015" class="edge">
<title>Node1&#45;&gt;Node15</title>
<g id="a_edge15_Node000001_Node000015"><a xlink:title=" ">
<path fill="none" stroke="#63b8ff" d="M739.76,-215.84C717.01,-225.2 689.17,-236.18 663.75,-244.88 654.4,-248.09 644.38,-251.23 634.6,-254.14"/>
<polygon fill="#63b8ff" stroke="#63b8ff" points="740.86,-219.18 748.75,-212.11 738.17,-212.71 740.86,-219.18"/>
</a>
</g>
</g>
<!-- Node16 -->
<g id="Node000016" class="node">
<title>Node16</title>
<g id="a_Node000016"><a xlink:href="classTaskManagement_1_1Domain_1_1Common_1_1Result.html#aa814d96d3e5f8714cd4a3d6a5978c160" target="_top" xlink:title=" ">
<polygon fill="white" stroke="#666666" points="663.75,-89.13 488,-89.13 488,-58.63 663.75,-58.63 663.75,-89.13"/>
<text xml:space="preserve" text-anchor="start" x="496" y="-75.63" font-family="Helvetica,sans-Serif" font-size="10.00">TaskManagement.Domain.Common.</text>
<text xml:space="preserve" text-anchor="middle" x="575.88" y="-64.38" font-family="Helvetica,sans-Serif" font-size="10.00">Result.Success&lt; T &gt;</text>
</a>
</g>
</g>
<!-- Node1&#45;&gt;Node16 -->
<g id="edge25_Node000001_Node000016" class="edge">
<title>Node1&#45;&gt;Node16</title>
<g id="a_edge25_Node000001_Node000016"><a xlink:title=" ">
<path fill="none" stroke="#63b8ff" d="M762.72,-172.31C739.3,-150.42 701.7,-118.36 663.75,-98.88 656.91,-95.37 649.5,-92.29 642,-89.6"/>
<polygon fill="#63b8ff" stroke="#63b8ff" points="760.21,-174.75 769.87,-179.11 765.04,-169.68 760.21,-174.75"/>
</a>
</g>
</g>
<!-- Node4 -->
<g id="Node000004" class="node">
<title>Node4</title>
<g id="a_Node000004"><a xlink:href="classTaskManagement_1_1Domain_1_1Entities_1_1TaskItem.html#ac77b8faed959308cdf95aa3c3eafc25a" target="_top" xlink:title=" ">
<polygon fill="white" stroke="#666666" points="437.38,-285.13 268.38,-285.13 268.38,-254.63 437.38,-254.63 437.38,-285.13"/>
<text xml:space="preserve" text-anchor="start" x="276.38" y="-271.63" font-family="Helvetica,sans-Serif" font-size="10.00">TaskManagement.Domain.Entities.</text>
<text xml:space="preserve" text-anchor="middle" x="352.88" y="-260.38" font-family="Helvetica,sans-Serif" font-size="10.00">TaskItem.AssignTo</text>
</a>
</g>
</g>
<!-- Node3&#45;&gt;Node4 -->
<g id="edge3_Node000003_Node000004" class="edge">
<title>Node3&#45;&gt;Node4</title>
<g id="a_edge3_Node000003_Node000004"><a xlink:title=" ">
<path fill="none" stroke="#63b8ff" d="M492.85,-239.07C470.46,-244.03 446.4,-249.37 424.69,-254.18"/>
<polygon fill="#63b8ff" stroke="#63b8ff" points="493.55,-242.5 502.56,-236.92 492.04,-235.67 493.55,-242.5"/>
</a>
</g>
</g>
<!-- Node5 -->
<g id="Node000005" class="node">
<title>Node5</title>
<g id="a_Node000005"><a xlink:href="classTaskManagement_1_1Domain_1_1Entities_1_1TaskItem.html#ac904582fc66da4bbfcdef69681e1b8fa" target="_top" xlink:title=" ">
<polygon fill="white" stroke="#666666" points="437.38,-236.13 268.38,-236.13 268.38,-205.63 437.38,-205.63 437.38,-236.13"/>
<text xml:space="preserve" text-anchor="start" x="276.38" y="-222.63" font-family="Helvetica,sans-Serif" font-size="10.00">TaskManagement.Domain.Entities.</text>
<text xml:space="preserve" text-anchor="middle" x="352.88" y="-211.38" font-family="Helvetica,sans-Serif" font-size="10.00">TaskItem.ClearDomainEvents</text>
</a>
</g>
</g>
<!-- Node3&#45;&gt;Node5 -->
<g id="edge4_Node000003_Node000005" class="edge">
<title>Node3&#45;&gt;Node5</title>
<g id="a_edge4_Node000003_Node000005"><a xlink:title=" ">
<path fill="none" stroke="#63b8ff" d="M476.29,-220.88C463.41,-220.88 450.31,-220.88 437.7,-220.88"/>
<polygon fill="#63b8ff" stroke="#63b8ff" points="476.02,-224.38 486.02,-220.88 476.02,-217.38 476.02,-224.38"/>
</a>
</g>
</g>
<!-- Node6 -->
<g id="Node000006" class="node">
<title>Node6</title>
<g id="a_Node000006"><a xlink:href="classTaskManagement_1_1Domain_1_1Entities_1_1TaskItem.html#a073865f352e456e4f1719b31986d1947" target="_top" xlink:title=" ">
<polygon fill="white" stroke="#666666" points="437.38,-187.13 268.38,-187.13 268.38,-156.63 437.38,-156.63 437.38,-187.13"/>
<text xml:space="preserve" text-anchor="start" x="276.38" y="-173.63" font-family="Helvetica,sans-Serif" font-size="10.00">TaskManagement.Domain.Entities.</text>
<text xml:space="preserve" text-anchor="middle" x="352.88" y="-162.38" font-family="Helvetica,sans-Serif" font-size="10.00">TaskItem.Complete</text>
</a>
</g>
</g>
<!-- Node3&#45;&gt;Node6 -->
<g id="edge5_Node000003_Node000006" class="edge">
<title>Node3&#45;&gt;Node6</title>
<g id="a_edge5_Node000003_Node000006"><a xlink:title=" ">
<path fill="none" stroke="#63b8ff" d="M492.85,-202.7C470.46,-197.73 446.4,-192.4 424.69,-187.59"/>
<polygon fill="#63b8ff" stroke="#63b8ff" points="492.04,-206.1 502.56,-204.85 493.55,-199.27 492.04,-206.1"/>
</a>
</g>
</g>
<!-- Node7 -->
<g id="Node000007" class="node">
<title>Node7</title>
<g id="a_Node000007"><a xlink:href="classTaskManagement_1_1Domain_1_1Entities_1_1TaskItem.html#a88b6dc74b70f3e61aba7057cf12fa9e0" target="_top" xlink:title=" ">
<polygon fill="white" stroke="#666666" points="437.38,-383.13 268.38,-383.13 268.38,-352.63 437.38,-352.63 437.38,-383.13"/>
<text xml:space="preserve" text-anchor="start" x="276.38" y="-369.63" font-family="Helvetica,sans-Serif" font-size="10.00">TaskManagement.Domain.Entities.</text>
<text xml:space="preserve" text-anchor="middle" x="352.88" y="-358.38" font-family="Helvetica,sans-Serif" font-size="10.00">TaskItem.Create</text>
</a>
</g>
</g>
<!-- Node3&#45;&gt;Node7 -->
<g id="edge6_Node000003_Node000007" class="edge">
<title>Node3&#45;&gt;Node7</title>
<g id="a_edge6_Node000003_Node000007"><a xlink:title=" ">
<path fill="none" stroke="#63b8ff" d="M491.81,-242.63C490.49,-243.67 489.22,-244.75 488,-245.88 454.29,-277.16 486.19,-312.13 452,-342.88 447.69,-346.76 442.85,-350.06 437.71,-352.85"/>
<polygon fill="#63b8ff" stroke="#63b8ff" points="493.38,-245.79 499.76,-237.33 489.5,-239.97 493.38,-245.79"/>
</a>
</g>
</g>
<!-- Node8 -->
<g id="Node000008" class="node">
<title>Node8</title>
<g id="a_Node000008"><a xlink:href="classTaskManagement_1_1Application_1_1Commands_1_1CreateTask_1_1CreateTaskCommandHandler.html#abc6681ba62c7b6315e31cd11fac19b70" target="_top" xlink:title=" ">
<polygon fill="white" stroke="#666666" points="217.75,-388.76 0,-388.76 0,-347.01 217.75,-347.01 217.75,-388.76"/>
<text xml:space="preserve" text-anchor="start" x="8" y="-375.26" font-family="Helvetica,sans-Serif" font-size="10.00">TaskManagement.Application.</text>
<text xml:space="preserve" text-anchor="start" x="8" y="-364.01" font-family="Helvetica,sans-Serif" font-size="10.00">Commands.CreateTask.CreateTaskCommand</text>
<text xml:space="preserve" text-anchor="middle" x="108.88" y="-352.76" font-family="Helvetica,sans-Serif" font-size="10.00">Handler.Handle</text>
</a>
</g>
</g>
<!-- Node3&#45;&gt;Node8 -->
<g id="edge10_Node000003_Node000008" class="edge">
<title>Node3&#45;&gt;Node8</title>
<g id="a_edge10_Node000003_Node000008"><a xlink:title=" ">
<path fill="none" stroke="#63b8ff" d="M490.68,-198.52C489.76,-197.68 488.86,-196.8 488,-195.88 438.78,-143.9 507.99,-83.49 452,-38.88 383.08,16.02 327.49,9.35 253.75,-38.88 144.19,-110.55 117.56,-286.03 111.53,-346.78"/>
<polygon fill="#63b8ff" stroke="#63b8ff" points="488.37,-201.17 498.46,-204.42 492.6,-195.59 488.37,-201.17"/>
</a>
</g>
</g>
<!-- Node9 -->
<g id="Node000009" class="node">
<title>Node9</title>
<g id="a_Node000009"><a xlink:href="classTaskManagement_1_1Domain_1_1ValueObjects_1_1Email.html#a7ae645d5958e6189215dfe71a5fe2e5f" target="_top" xlink:title=" ">
<polygon fill="white" stroke="#666666" points="431.38,-138.13 274.38,-138.13 274.38,-107.63 431.38,-107.63 431.38,-138.13"/>
<text xml:space="preserve" text-anchor="start" x="282.38" y="-124.63" font-family="Helvetica,sans-Serif" font-size="10.00">TaskManagement.Domain.Value</text>
<text xml:space="preserve" text-anchor="middle" x="352.88" y="-113.38" font-family="Helvetica,sans-Serif" font-size="10.00">Objects.Email.Create</text>
</a>
</g>
</g>
<!-- Node3&#45;&gt;Node9 -->
<g id="edge8_Node000003_Node000009" class="edge">
<title>Node3&#45;&gt;Node9</title>
<g id="a_edge8_Node000003_Node000009"><a xlink:title=" ">
<path fill="none" stroke="#63b8ff" d="M494.53,-199.98C492.28,-198.7 490.1,-197.33 488,-195.88 466.05,-180.74 474.18,-162.68 452,-147.88 445.78,-143.74 438.93,-140.28 431.82,-137.39"/>
<polygon fill="#63b8ff" stroke="#63b8ff" points="492.88,-203.07 503.39,-204.45 496.04,-196.82 492.88,-203.07"/>
</a>
</g>
</g>
<!-- Node10 -->
<g id="Node000010" class="node">
<title>Node10</title>
<g id="a_Node000010"><a xlink:href="classTaskManagement_1_1Application_1_1Commands_1_1CompleteTask_1_1CompleteTaskCommandHandler.html#ab173c3e7e5ec5db4d2083d62da2dfa49" target="_top" xlink:title=" ">
<polygon fill="white" stroke="#666666" points="452,-89.76 253.75,-89.76 253.75,-48.01 452,-48.01 452,-89.76"/>
<text xml:space="preserve" text-anchor="start" x="261.75" y="-76.26" font-family="Helvetica,sans-Serif" font-size="10.00">TaskManagement.Application.</text>
<text xml:space="preserve" text-anchor="start" x="261.75" y="-65.01" font-family="Helvetica,sans-Serif" font-size="10.00">Commands.CompleteTask.CompleteTask</text>
<text xml:space="preserve" text-anchor="middle" x="352.88" y="-53.76" font-family="Helvetica,sans-Serif" font-size="10.00">CommandHandler.Handle</text>
</a>
</g>
</g>
<!-- Node3&#45;&gt;Node10 -->
<g id="edge9_Node000003_Node000010" class="edge">
<title>Node3&#45;&gt;Node10</title>
<g id="a_edge9_Node000003_Node000010"><a xlink:title=" ">
<path fill="none" stroke="#63b8ff" d="M491.81,-199.14C490.49,-198.1 489.22,-197.02 488,-195.88 454.29,-164.61 485.46,-130.43 452,-98.88 448.5,-95.58 444.65,-92.65 440.56,-90.03"/>
<polygon fill="#63b8ff" stroke="#63b8ff" points="489.5,-201.8 499.76,-204.44 493.38,-195.98 489.5,-201.8"/>
</a>
</g>
</g>
<!-- Node11 -->
<g id="Node000011" class="node">
<title>Node11</title>
<g id="a_Node000011"><a xlink:href="classTaskManagement_1_1Application_1_1Queries_1_1GetTaskById_1_1GetTaskByIdQueryHandler.html#aea20e3bbe19e9b94160a4557ccb06224" target="_top" xlink:title=" ">
<polygon fill="white" stroke="#666666" points="437.75,-442.76 268,-442.76 268,-401.01 437.75,-401.01 437.75,-442.76"/>
<text xml:space="preserve" text-anchor="start" x="276" y="-429.26" font-family="Helvetica,sans-Serif" font-size="10.00">TaskManagement.Application.</text>
<text xml:space="preserve" text-anchor="start" x="276" y="-418.01" font-family="Helvetica,sans-Serif" font-size="10.00">Queries.GetTaskById.GetTaskById</text>
<text xml:space="preserve" text-anchor="middle" x="352.88" y="-406.76" font-family="Helvetica,sans-Serif" font-size="10.00">QueryHandler.Handle</text>
</a>
</g>
</g>
<!-- Node3&#45;&gt;Node11 -->
<g id="edge11_Node000003_Node000011" class="edge">
<title>Node3&#45;&gt;Node11</title>
<g id="a_edge11_Node000003_Node000011"><a xlink:title=" ">
<path fill="none" stroke="#63b8ff" d="M490.7,-243.27C489.77,-244.11 488.87,-244.98 488,-245.88 441.66,-294.04 497.94,-343.35 452,-391.88 447.84,-396.28 443.05,-400.04 437.87,-403.25"/>
<polygon fill="#63b8ff" stroke="#63b8ff" points="492.62,-246.2 498.52,-237.41 488.42,-240.6 492.62,-246.2"/>
</a>
</g>
</g>
<!-- Node12 -->
<g id="Node000012" class="node">
<title>Node12</title>
<g id="a_Node000012"><a xlink:href="classTaskManagement_1_1Domain_1_1Entities_1_1TaskItem.html#ac8a54e40a046767566e22eadfe917aef" target="_top" xlink:title=" ">
<polygon fill="white" stroke="#666666" points="437.38,-334.13 268.38,-334.13 268.38,-303.63 437.38,-303.63 437.38,-334.13"/>
<text xml:space="preserve" text-anchor="start" x="276.38" y="-320.63" font-family="Helvetica,sans-Serif" font-size="10.00">TaskManagement.Domain.Entities.</text>
<text xml:space="preserve" text-anchor="middle" x="352.88" y="-309.38" font-family="Helvetica,sans-Serif" font-size="10.00">TaskItem.UpdatePriority</text>
</a>
</g>
</g>
<!-- Node3&#45;&gt;Node12 -->
<g id="edge12_Node000003_Node000012" class="edge">
<title>Node3&#45;&gt;Node12</title>
<g id="a_edge12_Node000003_Node000012"><a xlink:title=" ">
<path fill="none" stroke="#63b8ff" d="M494.53,-241.78C492.28,-243.07 490.1,-244.44 488,-245.88 466.05,-261.02 474.18,-279.08 452,-293.88 446.59,-297.49 440.69,-300.58 434.56,-303.23"/>
<polygon fill="#63b8ff" stroke="#63b8ff" points="496.04,-244.94 503.39,-237.31 492.88,-238.7 496.04,-244.94"/>
</a>
</g>
</g>
<!-- Node7&#45;&gt;Node8 -->
<g id="edge7_Node000007_Node000008" class="edge">
<title>Node7&#45;&gt;Node8</title>
<g id="a_edge7_Node000007_Node000008"><a xlink:title=" ">
<path fill="none" stroke="#63b8ff" d="M256.44,-367.88C243.82,-367.88 230.8,-367.88 217.98,-367.88"/>
<polygon fill="#63b8ff" stroke="#63b8ff" points="256.4,-371.38 266.4,-367.88 256.4,-364.38 256.4,-371.38"/>
</a>
</g>
</g>
<!-- Node15&#45;&gt;Node4 -->
<g id="edge16_Node000015_Node000004" class="edge">
<title>Node15&#45;&gt;Node4</title>
<g id="a_edge16_Node000015_Node000004"><a xlink:title=" ">
<path fill="none" stroke="#63b8ff" d="M476.29,-269.88C463.41,-269.88 450.31,-269.88 437.7,-269.88"/>
<polygon fill="#63b8ff" stroke="#63b8ff" points="476.02,-273.38 486.02,-269.88 476.02,-266.38 476.02,-273.38"/>
</a>
</g>
</g>
<!-- Node15&#45;&gt;Node5 -->
<g id="edge17_Node000015_Node000005" class="edge">
<title>Node15&#45;&gt;Node5</title>
<g id="a_edge17_Node000015_Node000005"><a xlink:title=" ">
<path fill="none" stroke="#63b8ff" d="M492.85,-251.7C470.46,-246.73 446.4,-241.4 424.69,-236.59"/>
<polygon fill="#63b8ff" stroke="#63b8ff" points="492.04,-255.1 502.56,-253.85 493.55,-248.27 492.04,-255.1"/>
</a>
</g>
</g>
<!-- Node15&#45;&gt;Node6 -->
<g id="edge18_Node000015_Node000006" class="edge">
<title>Node15&#45;&gt;Node6</title>
<g id="a_edge18_Node000015_Node000006"><a xlink:title=" ">
<path fill="none" stroke="#63b8ff" d="M494.53,-248.98C492.28,-247.7 490.1,-246.33 488,-244.88 466.05,-229.74 474.18,-211.68 452,-196.88 446.59,-193.27 440.69,-190.19 434.56,-187.54"/>
<polygon fill="#63b8ff" stroke="#63b8ff" points="492.88,-252.07 503.39,-253.45 496.04,-245.82 492.88,-252.07"/>
</a>
</g>
</g>
<!-- Node15&#45;&gt;Node7 -->
<g id="edge19_Node000015_Node000007" class="edge">
<title>Node15&#45;&gt;Node7</title>
<g id="a_edge19_Node000015_Node000007"><a xlink:title=" ">
<path fill="none" stroke="#63b8ff" d="M494.53,-290.78C492.28,-292.07 490.1,-293.44 488,-294.88 466.05,-310.02 474.18,-328.08 452,-342.88 446.59,-346.49 440.69,-349.58 434.56,-352.23"/>
<polygon fill="#63b8ff" stroke="#63b8ff" points="496.04,-293.94 503.39,-286.31 492.88,-287.7 496.04,-293.94"/>
</a>
</g>
</g>
<!-- Node15&#45;&gt;Node8 -->
<g id="edge22_Node000015_Node000008" class="edge">
<title>Node15&#45;&gt;Node8</title>
<g id="a_edge22_Node000015_Node000008"><a xlink:title=" ">
<path fill="none" stroke="#63b8ff" d="M490.68,-292.25C489.76,-293.09 488.86,-293.97 488,-294.88 438.78,-346.87 507.99,-407.28 452,-451.88 356.33,-528.1 201.33,-433.96 138.09,-389.13"/>
<polygon fill="#63b8ff" stroke="#63b8ff" points="492.6,-295.18 498.46,-286.35 488.37,-289.6 492.6,-295.18"/>
</a>
</g>
</g>
<!-- Node15&#45;&gt;Node9 -->
<g id="edge20_Node000015_Node000009" class="edge">
<title>Node15&#45;&gt;Node9</title>
<g id="a_edge20_Node000015_Node000009"><a xlink:title=" ">
<path fill="none" stroke="#63b8ff" d="M491.81,-248.14C490.49,-247.1 489.22,-246.02 488,-244.88 454.29,-213.61 486.19,-178.63 452,-147.88 445.99,-142.48 438.97,-138.21 431.5,-134.84"/>
<polygon fill="#63b8ff" stroke="#63b8ff" points="489.5,-250.8 499.76,-253.44 493.38,-244.98 489.5,-250.8"/>
</a>
</g>
</g>
<!-- Node15&#45;&gt;Node10 -->
<g id="edge21_Node000015_Node000010" class="edge">
<title>Node15&#45;&gt;Node10</title>
<g id="a_edge21_Node000015_Node000010"><a xlink:title=" ">
<path fill="none" stroke="#63b8ff" d="M490.7,-247.5C489.77,-246.66 488.87,-245.79 488,-244.88 441.66,-196.73 497.94,-147.42 452,-98.88 448.94,-95.65 445.54,-92.76 441.9,-90.18"/>
<polygon fill="#63b8ff" stroke="#63b8ff" points="488.42,-250.17 498.52,-253.36 492.62,-244.57 488.42,-250.17"/>
</a>
</g>
</g>
<!-- Node15&#45;&gt;Node11 -->
<g id="edge23_Node000015_Node000011" class="edge">
<title>Node15&#45;&gt;Node11</title>
<g id="a_edge23_Node000015_Node000011"><a xlink:title=" ">
<path fill="none" stroke="#63b8ff" d="M491.81,-291.63C490.49,-292.67 489.22,-293.75 488,-294.88 454.29,-326.16 485.46,-360.34 452,-391.88 447.72,-395.92 442.92,-399.41 437.79,-402.43"/>
<polygon fill="#63b8ff" stroke="#63b8ff" points="493.38,-294.79 499.76,-286.33 489.5,-288.97 493.38,-294.79"/>
</a>
</g>
</g>
<!-- Node15&#45;&gt;Node12 -->
<g id="edge24_Node000015_Node000012" class="edge">
<title>Node15&#45;&gt;Node12</title>
<g id="a_edge24_Node000015_Node000012"><a xlink:title=" ">
<path fill="none" stroke="#63b8ff" d="M492.85,-288.07C470.46,-293.03 446.4,-298.37 424.69,-303.18"/>
<polygon fill="#63b8ff" stroke="#63b8ff" points="493.55,-291.5 502.56,-285.92 492.04,-284.67 493.55,-291.5"/>
</a>
</g>
</g>
</g>
</svg>
