<?xml version="1.0" encoding="UTF-8" standalone="no"?>
<!DOCTYPE svg PUBLIC "-//W3C//DTD SVG 1.1//EN"
 "http://www.w3.org/Graphics/SVG/1.1/DTD/svg11.dtd">
<!-- Generated by graphviz version 13.1.0 (20250701.0955)
 -->
<!-- Title: TaskManagement.Application.Commands.CreateTask.CreateTaskCommandHandler.Handle Pages: 1 -->
<svg width="854pt" height="137pt"
 viewBox="0.00 0.00 854.00 137.00" xmlns="http://www.w3.org/2000/svg" xmlns:xlink="http://www.w3.org/1999/xlink">
<g id="page0,1_graph0" class="graph" transform="scale(1 1) rotate(0) translate(4 132.5)">
<title>TaskManagement.Application.Commands.CreateTask.CreateTaskCommandHandler.Handle</title>
<!-- Node1 -->
<g id="Node000001" class="node">
<title>Node1</title>
<g id="a_Node000001"><a xlink:title=" ">
<polygon fill="#999999" stroke="#666666" points="217.75,-85.12 0,-85.12 0,-43.38 217.75,-43.38 217.75,-85.12"/>
<text xml:space="preserve" text-anchor="start" x="8" y="-71.62" font-family="Helvetica,sans-Serif" font-size="10.00">TaskManagement.Application.</text>
<text xml:space="preserve" text-anchor="start" x="8" y="-60.38" font-family="Helvetica,sans-Serif" font-size="10.00">Commands.CreateTask.CreateTaskCommand</text>
<text xml:space="preserve" text-anchor="middle" x="108.88" y="-49.12" font-family="Helvetica,sans-Serif" font-size="10.00">Handler.Handle</text>
</a>
</g>
</g>
<!-- Node2 -->
<g id="Node000002" class="node">
<title>Node2</title>
<g id="a_Node000002"><a xlink:href="classTaskManagement_1_1Domain_1_1Entities_1_1TaskItem.html#a88b6dc74b70f3e61aba7057cf12fa9e0" target="_top" xlink:title=" ">
<polygon fill="white" stroke="#666666" points="422.75,-79.5 253.75,-79.5 253.75,-49 422.75,-49 422.75,-79.5"/>
<text xml:space="preserve" text-anchor="start" x="261.75" y="-66" font-family="Helvetica,sans-Serif" font-size="10.00">TaskManagement.Domain.Entities.</text>
<text xml:space="preserve" text-anchor="middle" x="338.25" y="-54.75" font-family="Helvetica,sans-Serif" font-size="10.00">TaskItem.Create</text>
</a>
</g>
</g>
<!-- Node1&#45;&gt;Node2 -->
<g id="edge1_Node000001_Node000002" class="edge">
<title>Node1&#45;&gt;Node2</title>
<g id="a_edge1_Node000001_Node000002"><a xlink:title=" ">
<path fill="none" stroke="#63b8ff" d="M218.24,-64.25C226.15,-64.25 234.1,-64.25 241.93,-64.25"/>
<polygon fill="#63b8ff" stroke="#63b8ff" points="241.79,-67.75 251.79,-64.25 241.79,-60.75 241.79,-67.75"/>
</a>
</g>
</g>
<!-- Node3 -->
<g id="Node000003" class="node">
<title>Node3</title>
<g id="a_Node000003"><a xlink:href="classTaskManagement_1_1Domain_1_1Common_1_1Result.html#abb0443b136478238351871e1c1621a33" target="_top" xlink:title=" ">
<polygon fill="white" stroke="#666666" points="634.5,-128.5 458.75,-128.5 458.75,-98 634.5,-98 634.5,-128.5"/>
<text xml:space="preserve" text-anchor="start" x="466.75" y="-115" font-family="Helvetica,sans-Serif" font-size="10.00">TaskManagement.Domain.Common.</text>
<text xml:space="preserve" text-anchor="middle" x="546.62" y="-103.75" font-family="Helvetica,sans-Serif" font-size="10.00">Result.Failure</text>
</a>
</g>
</g>
<!-- Node1&#45;&gt;Node3 -->
<g id="edge7_Node000001_Node000003" class="edge">
<title>Node1&#45;&gt;Node3</title>
<g id="a_edge7_Node000001_Node000003"><a xlink:title=" ">
<path fill="none" stroke="#63b8ff" d="M218.15,-83.26C230.14,-85.09 242.19,-86.79 253.75,-88.25 317.83,-96.33 390.17,-102.54 446.79,-106.76"/>
<polygon fill="#63b8ff" stroke="#63b8ff" points="446.53,-110.25 456.76,-107.49 447.04,-103.26 446.53,-110.25"/>
</a>
</g>
</g>
<!-- Node5 -->
<g id="Node000005" class="node">
<title>Node5</title>
<g id="a_Node000005"><a xlink:href="classTaskManagement_1_1Domain_1_1Common_1_1Result.html#aca3f1594f7b60690fbe65d1d6436d64d" target="_top" xlink:title=" ">
<polygon fill="white" stroke="#666666" points="634.5,-30.5 458.75,-30.5 458.75,0 634.5,0 634.5,-30.5"/>
<text xml:space="preserve" text-anchor="start" x="466.75" y="-17" font-family="Helvetica,sans-Serif" font-size="10.00">TaskManagement.Domain.Common.</text>
<text xml:space="preserve" text-anchor="middle" x="546.62" y="-5.75" font-family="Helvetica,sans-Serif" font-size="10.00">Result.Success</text>
</a>
</g>
</g>
<!-- Node1&#45;&gt;Node5 -->
<g id="edge8_Node000001_Node000005" class="edge">
<title>Node1&#45;&gt;Node5</title>
<g id="a_edge8_Node000001_Node000005"><a xlink:title=" ">
<path fill="none" stroke="#63b8ff" d="M218.15,-45.24C230.14,-43.41 242.19,-41.71 253.75,-40.25 317.83,-32.17 390.17,-25.96 446.79,-21.74"/>
<polygon fill="#63b8ff" stroke="#63b8ff" points="447.04,-25.24 456.76,-21.01 446.53,-18.25 447.04,-25.24"/>
</a>
</g>
</g>
<!-- Node2&#45;&gt;Node3 -->
<g id="edge2_Node000002_Node000003" class="edge">
<title>Node2&#45;&gt;Node3</title>
<g id="a_edge2_Node000002_Node000003"><a xlink:title=" ">
<path fill="none" stroke="#63b8ff" d="M405.4,-79.96C425.49,-84.73 447.73,-90.01 468.48,-94.93"/>
<polygon fill="#63b8ff" stroke="#63b8ff" points="467.48,-98.29 478.02,-97.2 469.1,-91.48 467.48,-98.29"/>
</a>
</g>
</g>
<!-- Node2&#45;&gt;Node5 -->
<g id="edge4_Node000002_Node000005" class="edge">
<title>Node2&#45;&gt;Node5</title>
<g id="a_edge4_Node000002_Node000005"><a xlink:title=" ">
<path fill="none" stroke="#63b8ff" d="M405.4,-48.54C425.49,-43.77 447.73,-38.49 468.48,-33.57"/>
<polygon fill="#63b8ff" stroke="#63b8ff" points="469.1,-37.02 478.02,-31.3 467.48,-30.21 469.1,-37.02"/>
</a>
</g>
</g>
<!-- Node6 -->
<g id="Node000006" class="node">
<title>Node6</title>
<g id="a_Node000006"><a xlink:href="classTaskManagement_1_1Domain_1_1Entities_1_1TaskItem.html#afe194753a4db6cecf52709516946c63d" target="_top" xlink:title=" ">
<polygon fill="white" stroke="#666666" points="631.12,-79.5 462.12,-79.5 462.12,-49 631.12,-49 631.12,-79.5"/>
<text xml:space="preserve" text-anchor="start" x="470.12" y="-66" font-family="Helvetica,sans-Serif" font-size="10.00">TaskManagement.Domain.Entities.</text>
<text xml:space="preserve" text-anchor="middle" x="546.62" y="-54.75" font-family="Helvetica,sans-Serif" font-size="10.00">TaskItem.TaskItem</text>
</a>
</g>
</g>
<!-- Node2&#45;&gt;Node6 -->
<g id="edge6_Node000002_Node000006" class="edge">
<title>Node2&#45;&gt;Node6</title>
<g id="a_edge6_Node000002_Node000006"><a xlink:title=" ">
<path fill="none" stroke="#63b8ff" d="M423.19,-64.25C432.14,-64.25 441.28,-64.25 450.34,-64.25"/>
<polygon fill="#63b8ff" stroke="#63b8ff" points="450.25,-67.75 460.25,-64.25 450.25,-60.75 450.25,-67.75"/>
</a>
</g>
</g>
<!-- Node4 -->
<g id="Node000004" class="node">
<title>Node4</title>
<g id="a_Node000004"><a xlink:href="classTaskManagement_1_1Domain_1_1Common_1_1Result.html#ac72e19a32a39eff6e205a7ed743a20dd" target="_top" xlink:title=" ">
<polygon fill="white" stroke="#666666" points="846.25,-79.5 670.5,-79.5 670.5,-49 846.25,-49 846.25,-79.5"/>
<text xml:space="preserve" text-anchor="start" x="678.5" y="-66" font-family="Helvetica,sans-Serif" font-size="10.00">TaskManagement.Domain.Common.</text>
<text xml:space="preserve" text-anchor="middle" x="758.38" y="-54.75" font-family="Helvetica,sans-Serif" font-size="10.00">Result.Result</text>
</a>
</g>
</g>
<!-- Node3&#45;&gt;Node4 -->
<g id="edge3_Node000003_Node000004" class="edge">
<title>Node3&#45;&gt;Node4</title>
<g id="a_edge3_Node000003_Node000004"><a xlink:title=" ">
<path fill="none" stroke="#63b8ff" d="M614.86,-97.54C635.27,-92.77 657.88,-87.49 678.97,-82.57"/>
<polygon fill="#63b8ff" stroke="#63b8ff" points="679.75,-85.98 688.69,-80.3 678.16,-79.16 679.75,-85.98"/>
</a>
</g>
</g>
<!-- Node5&#45;&gt;Node4 -->
<g id="edge5_Node000005_Node000004" class="edge">
<title>Node5&#45;&gt;Node4</title>
<g id="a_edge5_Node000005_Node000004"><a xlink:title=" ">
<path fill="none" stroke="#63b8ff" d="M614.86,-30.96C635.27,-35.73 657.88,-41.01 678.97,-45.93"/>
<polygon fill="#63b8ff" stroke="#63b8ff" points="678.16,-49.34 688.69,-48.2 679.75,-42.52 678.16,-49.34"/>
</a>
</g>
</g>
</g>
</svg>
