<?xml version="1.0" encoding="UTF-8" standalone="no"?>
<!DOCTYPE svg PUBLIC "-//W3C//DTD SVG 1.1//EN"
 "http://www.w3.org/Graphics/SVG/1.1/DTD/svg11.dtd">
<!-- Generated by graphviz version 13.1.0 (20250701.0955)
 -->
<!-- Title: TaskManagement.Application.Behaviors.ValidationBehavior&lt; TRequest, TResponse &gt; Pages: 1 -->
<svg width="147pt" height="193pt"
 viewBox="0.00 0.00 147.00 193.00" xmlns="http://www.w3.org/2000/svg" xmlns:xlink="http://www.w3.org/1999/xlink">
<g id="page0,1_graph0" class="graph" transform="scale(1 1) rotate(0) translate(4 188.5)">
<title>TaskManagement.Application.Behaviors.ValidationBehavior&lt; TRequest, TResponse &gt;</title>
<!-- Node1 -->
<g id="Node000001" class="node">
<title>Node1</title>
<g id="a_Node000001"><a xlink:title="ValidationBehavior es un comportamiento de pipeline de MediatR para validar comandos y consultas.">
<polygon fill="#999999" stroke="none" points="139.25,-87.5 0,-87.5 0,0 139.25,0 139.25,-87.5"/>
<text xml:space="preserve" text-anchor="start" x="4" y="-74" font-family="Helvetica,sans-Serif" font-size="10.00">TaskManagement.Application.</text>
<text xml:space="preserve" text-anchor="start" x="4" y="-62.75" font-family="Helvetica,sans-Serif" font-size="10.00">Behaviors.ValidationBehavior</text>
<text xml:space="preserve" text-anchor="start" x="11.12" y="-51.5" font-family="Helvetica,sans-Serif" font-size="10.00">&lt; TRequest, TResponse &gt;</text>
<text xml:space="preserve" text-anchor="start" x="68.12" y="-36.25" font-family="Helvetica,sans-Serif" font-size="10.00"> </text>
<text xml:space="preserve" text-anchor="start" x="12.75" y="-21" font-family="Helvetica,sans-Serif" font-size="10.00">+</text>
<text xml:space="preserve" text-anchor="start" x="31.5" y="-21" font-family="Helvetica,sans-Serif" font-size="10.00">ValidationBehavior()</text>
<text xml:space="preserve" text-anchor="start" x="12.75" y="-5.75" font-family="Helvetica,sans-Serif" font-size="10.00">+</text>
<text xml:space="preserve" text-anchor="start" x="31.5" y="-5.75" font-family="Helvetica,sans-Serif" font-size="10.00">Handle()</text>
<polygon fill="#666666" stroke="#666666" points="0,-47.75 0,-47.75 139.25,-47.75 139.25,-47.75 0,-47.75"/>
<polygon fill="#666666" stroke="#666666" points="0,-32.5 0,-32.5 139.25,-32.5 139.25,-32.5 0,-32.5"/>
<polygon fill="none" stroke="#666666" points="0,0 0,-87.5 139.25,-87.5 139.25,0 0,0"/>
</a>
</g>
</g>
<!-- Node2 -->
<g id="Node000002" class="node">
<title>Node2</title>
<g id="a_Node000002"><a xlink:href="classIPipelineBehavior-2-g.html" target="_top" xlink:title=" ">
<polygon fill="white" stroke="none" points="129.12,-184.5 10.12,-184.5 10.12,-123.5 129.12,-123.5 129.12,-184.5"/>
<text xml:space="preserve" text-anchor="start" x="14.12" y="-171" font-family="Helvetica,sans-Serif" font-size="10.00">IPipelineBehavior&lt;</text>
<text xml:space="preserve" text-anchor="start" x="14.12" y="-159.75" font-family="Helvetica,sans-Serif" font-size="10.00"> TRequest, TResponse &gt;</text>
<text xml:space="preserve" text-anchor="start" x="68.12" y="-144.5" font-family="Helvetica,sans-Serif" font-size="10.00"> </text>
<text xml:space="preserve" text-anchor="start" x="68.12" y="-129.25" font-family="Helvetica,sans-Serif" font-size="10.00"> </text>
<polygon fill="#666666" stroke="#666666" points="10.12,-156 10.12,-156 129.12,-156 129.12,-156 10.12,-156"/>
<polygon fill="#666666" stroke="#666666" points="10.12,-140.75 10.12,-140.75 129.12,-140.75 129.12,-140.75 10.12,-140.75"/>
<polygon fill="none" stroke="#666666" points="10.12,-123.5 10.12,-184.5 129.12,-184.5 129.12,-123.5 10.12,-123.5"/>
</a>
</g>
</g>
<!-- Node2&#45;&gt;Node1 -->
<g id="edge1_Node000001_Node000002" class="edge">
<title>Node2&#45;&gt;Node1</title>
<g id="a_edge1_Node000001_Node000002"><a xlink:title=" ">
<path fill="none" stroke="#63b8ff" d="M69.62,-112.25C69.62,-104.16 69.62,-95.64 69.62,-87.48"/>
<polygon fill="none" stroke="#63b8ff" points="66.13,-112.19 69.63,-122.19 73.13,-112.19 66.13,-112.19"/>
</a>
</g>
</g>
</g>
</svg>
