<?xml version="1.0" encoding="UTF-8" standalone="no"?>
<!DOCTYPE svg PUBLIC "-//W3C//DTD SVG 1.1//EN"
 "http://www.w3.org/Graphics/SVG/1.1/DTD/svg11.dtd">
<!-- Generated by graphviz version 13.1.0 (20250701.0955)
 -->
<!-- Title: Graphical Class Hierarchy Pages: 1 -->
<svg width="351pt" height="170pt"
 viewBox="0.00 0.00 351.00 170.00" xmlns="http://www.w3.org/2000/svg" xmlns:xlink="http://www.w3.org/1999/xlink">
<g id="graph0" class="graph" transform="scale(1 1) rotate(0) translate(4 165.75)">
<title>Graphical Class Hierarchy</title>
<!-- Node0 -->
<g id="Node000000" class="node">
<title>Node0</title>
<g id="a_Node000000"><a xlink:href="classIRequestHandler-2-g.html" target="_top" xlink:title=" ">
<polygon fill="white" stroke="#666666" points="89.5,-90.5 0,-90.5 0,-71.25 89.5,-71.25 89.5,-90.5"/>
<text xml:space="preserve" text-anchor="middle" x="44.75" y="-77" font-family="Helvetica,sans-Serif" font-size="10.00">IRequestHandler</text>
</a>
</g>
</g>
<!-- Node1 -->
<g id="Node000001" class="node">
<title>Node1</title>
<g id="a_Node000001"><a xlink:href="classTaskManagement_1_1Application_1_1Commands_1_1CompleteTask_1_1CompleteTaskCommandHandler.html" target="_top" xlink:title="CompleteTaskCommand encapsula la solicitud de marcar una tarea como completada.">
<polygon fill="white" stroke="#666666" points="333.5,-161.75 135.25,-161.75 135.25,-120 333.5,-120 333.5,-161.75"/>
<text xml:space="preserve" text-anchor="start" x="143.25" y="-148.25" font-family="Helvetica,sans-Serif" font-size="10.00">TaskManagement.Application.</text>
<text xml:space="preserve" text-anchor="start" x="143.25" y="-137" font-family="Helvetica,sans-Serif" font-size="10.00">Commands.CompleteTask.CompleteTask</text>
<text xml:space="preserve" text-anchor="middle" x="234.38" y="-125.75" font-family="Helvetica,sans-Serif" font-size="10.00">CommandHandler</text>
</a>
</g>
</g>
<!-- Node0&#45;&gt;Node1 -->
<g id="edge11_Node000000_Node000001" class="edge">
<title>Node0&#45;&gt;Node1</title>
<g id="a_edge11_Node000000_Node000001"><a xlink:title=" ">
<path fill="none" stroke="#63b8ff" d="M81.18,-94.97C94.92,-100.24 110.85,-106.09 125.5,-110.88 134.55,-113.83 144.1,-116.75 153.6,-119.55"/>
<polygon fill="#63b8ff" stroke="#63b8ff" points="82.69,-91.8 72.1,-91.45 80.16,-98.33 82.69,-91.8"/>
</a>
</g>
</g>
<!-- Node2 -->
<g id="Node000002" class="node">
<title>Node2</title>
<g id="a_Node000002"><a xlink:href="classTaskManagement_1_1Application_1_1Commands_1_1CreateTask_1_1CreateTaskCommandHandler.html" target="_top" xlink:title="CreateTaskCommand encapsula la solicitud de creación de una nueva tarea.">
<polygon fill="white" stroke="#666666" points="343.25,-101.75 125.5,-101.75 125.5,-60 343.25,-60 343.25,-101.75"/>
<text xml:space="preserve" text-anchor="start" x="133.5" y="-88.25" font-family="Helvetica,sans-Serif" font-size="10.00">TaskManagement.Application.</text>
<text xml:space="preserve" text-anchor="start" x="133.5" y="-77" font-family="Helvetica,sans-Serif" font-size="10.00">Commands.CreateTask.CreateTaskCommand</text>
<text xml:space="preserve" text-anchor="middle" x="234.38" y="-65.75" font-family="Helvetica,sans-Serif" font-size="10.00">Handler</text>
</a>
</g>
</g>
<!-- Node0&#45;&gt;Node2 -->
<g id="edge12_Node000000_Node000002" class="edge">
<title>Node0&#45;&gt;Node2</title>
<g id="a_edge12_Node000000_Node000002"><a xlink:title=" ">
<path fill="none" stroke="#63b8ff" d="M101.04,-80.88C108.73,-80.88 116.83,-80.88 125.08,-80.88"/>
<polygon fill="#63b8ff" stroke="#63b8ff" points="101.25,-77.38 91.25,-80.88 101.25,-84.38 101.25,-77.38"/>
</a>
</g>
</g>
<!-- Node3 -->
<g id="Node000003" class="node">
<title>Node3</title>
<g id="a_Node000003"><a xlink:href="classTaskManagement_1_1Application_1_1Queries_1_1GetTaskById_1_1GetTaskByIdQueryHandler.html" target="_top" xlink:title="GetTaskByIdQuery encapsula una solicitud para recuperar una sola tarea por ID.">
<polygon fill="white" stroke="#666666" points="319.25,-41.75 149.5,-41.75 149.5,0 319.25,0 319.25,-41.75"/>
<text xml:space="preserve" text-anchor="start" x="157.5" y="-28.25" font-family="Helvetica,sans-Serif" font-size="10.00">TaskManagement.Application.</text>
<text xml:space="preserve" text-anchor="start" x="157.5" y="-17" font-family="Helvetica,sans-Serif" font-size="10.00">Queries.GetTaskById.GetTaskById</text>
<text xml:space="preserve" text-anchor="middle" x="234.38" y="-5.75" font-family="Helvetica,sans-Serif" font-size="10.00">QueryHandler</text>
</a>
</g>
</g>
<!-- Node0&#45;&gt;Node3 -->
<g id="edge13_Node000000_Node000003" class="edge">
<title>Node0&#45;&gt;Node3</title>
<g id="a_edge13_Node000000_Node000003"><a xlink:title=" ">
<path fill="none" stroke="#63b8ff" d="M81.18,-66.78C94.92,-61.51 110.85,-55.66 125.5,-50.88 134.55,-47.92 144.1,-45 153.6,-42.2"/>
<polygon fill="#63b8ff" stroke="#63b8ff" points="80.16,-63.42 72.1,-70.3 82.69,-69.95 80.16,-63.42"/>
</a>
</g>
</g>
</g>
</svg>
