<?xml version="1.0" encoding="UTF-8" standalone="no"?>
<!DOCTYPE svg PUBLIC "-//W3C//DTD SVG 1.1//EN"
 "http://www.w3.org/Graphics/SVG/1.1/DTD/svg11.dtd">
<!-- Generated by graphviz version 13.1.0 (20250701.0955)
 -->
<!-- Title: TaskManagement.Infrastructure.Persistence.Configurations.TaskConfiguration Pages: 1 -->
<svg width="216pt" height="166pt"
 viewBox="0.00 0.00 216.00 166.00" xmlns="http://www.w3.org/2000/svg" xmlns:xlink="http://www.w3.org/1999/xlink">

<svg id="main" version="1.1" xmlns="http://www.w3.org/2000/svg" xmlns:xlink="http://www.w3.org/1999/xlink" xml:space="preserve">

<style type="text/css"><![CDATA[
.node, .edge {opacity: 0.7;}
.node.selected, .edge.selected {opacity: 1;}
.edge:hover path { stroke: red; }
.edge:hover polygon { stroke: red; fill: red; }
]]></style>
<script type="application/ecmascript" xlink:href="svg.min.js"/>
<svg id="graph" class="graph">
<g id="graph0" class="graph" transform="scale(1 1) rotate(0) translate(4 162)">
<title>TaskManagement.Infrastructure.Persistence.Configurations.TaskConfiguration</title>
<!-- Node1 -->
<g id="Node000001" class="node">
<title>Node1</title>
<g id="a_Node000001"><a xlink:title="TaskConfiguration es la configuración de Entity Framework Core para entidad TaskItem.">
<polygon fill="#999999" stroke="none" points="207.5,-61 0,-61 0,0 207.5,0 207.5,-61"/>
<text xml:space="preserve" text-anchor="start" x="4" y="-47.5" font-family="Helvetica,sans-Serif" font-size="10.00">TaskManagement.Infrastructure.</text>
<text xml:space="preserve" text-anchor="start" x="4" y="-36.25" font-family="Helvetica,sans-Serif" font-size="10.00">Persistence.Configurations.TaskConfiguration</text>
<text xml:space="preserve" text-anchor="start" x="102.25" y="-21" font-family="Helvetica,sans-Serif" font-size="10.00"> </text>
<text xml:space="preserve" text-anchor="start" x="39.38" y="-5.75" font-family="Helvetica,sans-Serif" font-size="10.00">+</text>
<text xml:space="preserve" text-anchor="start" x="84.75" y="-5.75" font-family="Helvetica,sans-Serif" font-size="10.00">Configure()</text>
<polygon fill="#666666" stroke="#666666" points="0,-32.5 0,-32.5 207.5,-32.5 207.5,-32.5 0,-32.5"/>
<polygon fill="#666666" stroke="#666666" points="0,-17.25 0,-17.25 207.5,-17.25 207.5,-17.25 0,-17.25"/>
<polygon fill="none" stroke="#666666" points="0,0 0,-61 207.5,-61 207.5,0 0,0"/>
</a>
</g>
</g>
<!-- Node2 -->
<g id="Node000002" class="node">
<title>Node2</title>
<g id="a_Node000002"><a xlink:href="classIEntityTypeConfiguration-1-g.html" target="_top" xlink:title=" ">
<polygon fill="white" stroke="none" points="161.38,-158 46.12,-158 46.12,-97 161.38,-97 161.38,-158"/>
<text xml:space="preserve" text-anchor="start" x="50.12" y="-144.5" font-family="Helvetica,sans-Serif" font-size="10.00">IEntityTypeConfiguration</text>
<text xml:space="preserve" text-anchor="start" x="74.5" y="-133.25" font-family="Helvetica,sans-Serif" font-size="10.00">&lt; TaskItem &gt;</text>
<text xml:space="preserve" text-anchor="start" x="102.25" y="-118" font-family="Helvetica,sans-Serif" font-size="10.00"> </text>
<text xml:space="preserve" text-anchor="start" x="102.25" y="-102.75" font-family="Helvetica,sans-Serif" font-size="10.00"> </text>
<polygon fill="#666666" stroke="#666666" points="46.12,-129.5 46.12,-129.5 161.38,-129.5 161.38,-129.5 46.12,-129.5"/>
<polygon fill="#666666" stroke="#666666" points="46.12,-114.25 46.12,-114.25 161.38,-114.25 161.38,-114.25 46.12,-114.25"/>
<polygon fill="none" stroke="#666666" points="46.12,-97 46.12,-158 161.38,-158 161.38,-97 46.12,-97"/>
</a>
</g>
</g>
<!-- Node2&#45;&gt;Node1 -->
<g id="edge1_Node000001_Node000002" class="edge">
<title>Node2&#45;&gt;Node1</title>
<g id="a_edge1_Node000001_Node000002"><a xlink:title=" ">
<path fill="none" stroke="#63b8ff" d="M103.75,-85.99C103.75,-77.54 103.75,-68.8 103.75,-60.85"/>
<polygon fill="none" stroke="#63b8ff" points="100.25,-85.71 103.75,-95.71 107.25,-85.71 100.25,-85.71"/>
</a>
</g>
</g>
</g>
</svg>
</svg>

<style type='text/css'>
<![CDATA[
[data-mouse-over-selected='false'] { opacity: 0.7; }
[data-mouse-over-selected='true']  { opacity: 1.0; }
]]>
</style>
<script type="application/ecmascript"><![CDATA[
document.addEventListener('DOMContentLoaded', (event) => {
  highlightEdges();
  highlightAdjacentNodes();
});
]]></script>
</svg>
