<?xml version="1.0" encoding="UTF-8" standalone="no"?>
<!DOCTYPE svg PUBLIC "-//W3C//DTD SVG 1.1//EN"
 "http://www.w3.org/Graphics/SVG/1.1/DTD/svg11.dtd">
<!-- Generated by graphviz version 13.1.0 (20250701.0955)
 -->
<!-- Title: TaskManagement.Infrastructure.Persistence.Repositories.TaskReadRepository Pages: 1 -->
<svg width="173pt" height="208pt"
 viewBox="0.00 0.00 173.00 208.00" xmlns="http://www.w3.org/2000/svg" xmlns:xlink="http://www.w3.org/1999/xlink">

<svg id="main" version="1.1" xmlns="http://www.w3.org/2000/svg" xmlns:xlink="http://www.w3.org/1999/xlink" xml:space="preserve">

<style type="text/css"><![CDATA[
.node, .edge {opacity: 0.7;}
.node.selected, .edge.selected {opacity: 1;}
.edge:hover path { stroke: red; }
.edge:hover polygon { stroke: red; fill: red; }
]]></style>
<script type="application/ecmascript" xlink:href="svg.min.js"/>
<svg id="graph" class="graph">
<g id="graph0" class="graph" transform="scale(1 1) rotate(0) translate(4 203.75)">
<title>TaskManagement.Infrastructure.Persistence.Repositories.TaskReadRepository</title>
<!-- Node1 -->
<g id="Node000001" class="node">
<title>Node1</title>
<g id="a_Node000001"><a xlink:title="TaskReadRepository es el repositorio de lectura para consultas de tarea optimizadas.">
<polygon fill="#999999" stroke="none" points="164.75,-102.75 0,-102.75 0,0 164.75,0 164.75,-102.75"/>
<text xml:space="preserve" text-anchor="start" x="4" y="-89.25" font-family="Helvetica,sans-Serif" font-size="10.00">TaskManagement.Infrastructure.</text>
<text xml:space="preserve" text-anchor="start" x="4" y="-78" font-family="Helvetica,sans-Serif" font-size="10.00">Persistence.Repositories.TaskRead</text>
<text xml:space="preserve" text-anchor="start" x="58.75" y="-66.75" font-family="Helvetica,sans-Serif" font-size="10.00">Repository</text>
<text xml:space="preserve" text-anchor="start" x="80.88" y="-51.5" font-family="Helvetica,sans-Serif" font-size="10.00"> </text>
<text xml:space="preserve" text-anchor="start" x="16.31" y="-36.25" font-family="Helvetica,sans-Serif" font-size="10.00">+</text>
<text xml:space="preserve" text-anchor="start" x="38.62" y="-36.25" font-family="Helvetica,sans-Serif" font-size="10.00">TaskReadRepository()</text>
<text xml:space="preserve" text-anchor="start" x="16.31" y="-21" font-family="Helvetica,sans-Serif" font-size="10.00">+</text>
<text xml:space="preserve" text-anchor="start" x="38.62" y="-21" font-family="Helvetica,sans-Serif" font-size="10.00">GetByIdAsync()</text>
<text xml:space="preserve" text-anchor="start" x="16.31" y="-5.75" font-family="Helvetica,sans-Serif" font-size="10.00">+</text>
<text xml:space="preserve" text-anchor="start" x="38.62" y="-5.75" font-family="Helvetica,sans-Serif" font-size="10.00">SearchAsync()</text>
<polygon fill="#666666" stroke="#666666" points="0,-63 0,-63 164.75,-63 164.75,-63 0,-63"/>
<polygon fill="#666666" stroke="#666666" points="0,-47.75 0,-47.75 164.75,-47.75 164.75,-47.75 0,-47.75"/>
<polygon fill="none" stroke="#666666" points="0,0 0,-102.75 164.75,-102.75 164.75,0 0,0"/>
</a>
</g>
</g>
<!-- Node2 -->
<g id="Node000002" class="node">
<title>Node2</title>
<g id="a_Node000002"><a xlink:href="interfaceTaskManagement_1_1Application_1_1Interfaces_1_1ITaskReadRepository.html" target="_top" xlink:title="ITaskReadRepository es la abstracción para consultas de sólo lectura de tareas.">
<polygon fill="white" stroke="none" points="156.88,-199.75 7.88,-199.75 7.88,-138.75 156.88,-138.75 156.88,-199.75"/>
<text xml:space="preserve" text-anchor="start" x="11.88" y="-186.25" font-family="Helvetica,sans-Serif" font-size="10.00">TaskManagement.Application.</text>
<text xml:space="preserve" text-anchor="start" x="11.88" y="-175" font-family="Helvetica,sans-Serif" font-size="10.00">Interfaces.ITaskReadRepository</text>
<text xml:space="preserve" text-anchor="start" x="80.88" y="-159.75" font-family="Helvetica,sans-Serif" font-size="10.00"> </text>
<text xml:space="preserve" text-anchor="start" x="27.19" y="-144.5" font-family="Helvetica,sans-Serif" font-size="10.00">+</text>
<text xml:space="preserve" text-anchor="start" x="52.5" y="-144.5" font-family="Helvetica,sans-Serif" font-size="10.00">GetByIdAsync()</text>
<polygon fill="#666666" stroke="#666666" points="7.88,-171.25 7.88,-171.25 156.88,-171.25 156.88,-171.25 7.88,-171.25"/>
<polygon fill="#666666" stroke="#666666" points="7.88,-156 7.88,-156 156.88,-156 156.88,-156 7.88,-156"/>
<polygon fill="none" stroke="#666666" points="7.88,-138.75 7.88,-199.75 156.88,-199.75 156.88,-138.75 7.88,-138.75"/>
</a>
</g>
</g>
<!-- Node2&#45;&gt;Node1 -->
<g id="edge1_Node000001_Node000002" class="edge">
<title>Node2&#45;&gt;Node1</title>
<g id="a_edge1_Node000001_Node000002"><a xlink:title=" ">
<path fill="none" stroke="#63b8ff" d="M82.38,-127.53C82.38,-119.39 82.38,-110.75 82.38,-102.35"/>
<polygon fill="none" stroke="#63b8ff" points="78.88,-127.5 82.38,-137.5 85.88,-127.5 78.88,-127.5"/>
</a>
</g>
</g>
</g>
</svg>
</svg>

<style type='text/css'>
<![CDATA[
[data-mouse-over-selected='false'] { opacity: 0.7; }
[data-mouse-over-selected='true']  { opacity: 1.0; }
]]>
</style>
<script type="application/ecmascript"><![CDATA[
document.addEventListener('DOMContentLoaded', (event) => {
  highlightEdges();
  highlightAdjacentNodes();
});
]]></script>
</svg>
