<?xml version="1.0" encoding="UTF-8" standalone="no"?>
<!DOCTYPE svg PUBLIC "-//W3C//DTD SVG 1.1//EN"
 "http://www.w3.org/Graphics/SVG/1.1/DTD/svg11.dtd">
<!-- Generated by graphviz version 13.1.0 (20250701.0955)
 -->
<!-- Title: TaskManagement.Application.Commands.CompleteTask.CompleteTaskCommandHandler.Handle Pages: 1 -->
<svg width="630pt" height="88pt"
 viewBox="0.00 0.00 630.00 88.00" xmlns="http://www.w3.org/2000/svg" xmlns:xlink="http://www.w3.org/1999/xlink">
<g id="page0,1_graph0" class="graph" transform="scale(1 1) rotate(0) translate(4 83.5)">
<title>TaskManagement.Application.Commands.CompleteTask.CompleteTaskCommandHandler.Handle</title>
<!-- Node1 -->
<g id="Node000001" class="node">
<title>Node1</title>
<g id="a_Node000001"><a xlink:title=" ">
<polygon fill="#999999" stroke="#666666" points="198.25,-60.12 0,-60.12 0,-18.38 198.25,-18.38 198.25,-60.12"/>
<text xml:space="preserve" text-anchor="start" x="8" y="-46.62" font-family="Helvetica,sans-Serif" font-size="10.00">TaskManagement.Application.</text>
<text xml:space="preserve" text-anchor="start" x="8" y="-35.38" font-family="Helvetica,sans-Serif" font-size="10.00">Commands.CompleteTask.CompleteTask</text>
<text xml:space="preserve" text-anchor="middle" x="99.12" y="-24.12" font-family="Helvetica,sans-Serif" font-size="10.00">CommandHandler.Handle</text>
</a>
</g>
</g>
<!-- Node2 -->
<g id="Node000002" class="node">
<title>Node2</title>
<g id="a_Node000002"><a xlink:href="classTaskManagement_1_1Domain_1_1Common_1_1Result.html#abb0443b136478238351871e1c1621a33" target="_top" xlink:title=" ">
<polygon fill="white" stroke="#666666" points="410,-79.5 234.25,-79.5 234.25,-49 410,-49 410,-79.5"/>
<text xml:space="preserve" text-anchor="start" x="242.25" y="-66" font-family="Helvetica,sans-Serif" font-size="10.00">TaskManagement.Domain.Common.</text>
<text xml:space="preserve" text-anchor="middle" x="322.12" y="-54.75" font-family="Helvetica,sans-Serif" font-size="10.00">Result.Failure</text>
</a>
</g>
</g>
<!-- Node1&#45;&gt;Node2 -->
<g id="edge1_Node000001_Node000002" class="edge">
<title>Node1&#45;&gt;Node2</title>
<g id="a_edge1_Node000001_Node000002"><a xlink:title=" ">
<path fill="none" stroke="#63b8ff" d="M198.67,-50.4C206.65,-51.3 214.71,-52.21 222.69,-53.11"/>
<polygon fill="#63b8ff" stroke="#63b8ff" points="222.06,-56.57 232.39,-54.21 222.85,-49.61 222.06,-56.57"/>
</a>
</g>
</g>
<!-- Node4 -->
<g id="Node000004" class="node">
<title>Node4</title>
<g id="a_Node000004"><a xlink:href="classTaskManagement_1_1Domain_1_1Common_1_1Result.html#aca3f1594f7b60690fbe65d1d6436d64d" target="_top" xlink:title=" ">
<polygon fill="white" stroke="#666666" points="410,-30.5 234.25,-30.5 234.25,0 410,0 410,-30.5"/>
<text xml:space="preserve" text-anchor="start" x="242.25" y="-17" font-family="Helvetica,sans-Serif" font-size="10.00">TaskManagement.Domain.Common.</text>
<text xml:space="preserve" text-anchor="middle" x="322.12" y="-5.75" font-family="Helvetica,sans-Serif" font-size="10.00">Result.Success</text>
</a>
</g>
</g>
<!-- Node1&#45;&gt;Node4 -->
<g id="edge3_Node000001_Node000004" class="edge">
<title>Node1&#45;&gt;Node4</title>
<g id="a_edge3_Node000001_Node000004"><a xlink:title=" ">
<path fill="none" stroke="#63b8ff" d="M198.67,-28.55C206.65,-27.68 214.71,-26.81 222.69,-25.94"/>
<polygon fill="#63b8ff" stroke="#63b8ff" points="222.83,-29.45 232.39,-24.89 222.07,-22.49 222.83,-29.45"/>
</a>
</g>
</g>
<!-- Node3 -->
<g id="Node000003" class="node">
<title>Node3</title>
<g id="a_Node000003"><a xlink:href="classTaskManagement_1_1Domain_1_1Common_1_1Result.html#ac72e19a32a39eff6e205a7ed743a20dd" target="_top" xlink:title=" ">
<polygon fill="white" stroke="#666666" points="621.75,-54.5 446,-54.5 446,-24 621.75,-24 621.75,-54.5"/>
<text xml:space="preserve" text-anchor="start" x="454" y="-41" font-family="Helvetica,sans-Serif" font-size="10.00">TaskManagement.Domain.Common.</text>
<text xml:space="preserve" text-anchor="middle" x="533.88" y="-29.75" font-family="Helvetica,sans-Serif" font-size="10.00">Result.Result</text>
</a>
</g>
</g>
<!-- Node2&#45;&gt;Node3 -->
<g id="edge2_Node000002_Node000003" class="edge">
<title>Node2&#45;&gt;Node3</title>
<g id="a_edge2_Node000002_Node000003"><a xlink:title=" ">
<path fill="none" stroke="#63b8ff" d="M410.26,-53.86C418.21,-52.92 426.31,-51.95 434.36,-50.99"/>
<polygon fill="#63b8ff" stroke="#63b8ff" points="434.66,-54.48 444.18,-49.82 433.83,-47.53 434.66,-54.48"/>
</a>
</g>
</g>
<!-- Node4&#45;&gt;Node3 -->
<g id="edge4_Node000004_Node000003" class="edge">
<title>Node4&#45;&gt;Node3</title>
<g id="a_edge4_Node000004_Node000003"><a xlink:title=" ">
<path fill="none" stroke="#63b8ff" d="M410.26,-25.22C418.21,-26.13 426.31,-27.06 434.36,-27.98"/>
<polygon fill="#63b8ff" stroke="#63b8ff" points="433.84,-31.44 444.17,-29.1 434.64,-24.49 433.84,-31.44"/>
</a>
</g>
</g>
</g>
</svg>
