<?xml version="1.0" encoding="UTF-8" standalone="no"?>
<!DOCTYPE svg PUBLIC "-//W3C//DTD SVG 1.1//EN"
 "http://www.w3.org/Graphics/SVG/1.1/DTD/svg11.dtd">
<!-- Generated by graphviz version 13.1.0 (20250701.0955)
 -->
<!-- Title: MyLibrary::Example Pages: 1 -->
<svg width="144pt" height="227pt"
 viewBox="0.00 0.00 144.00 227.00" xmlns="http://www.w3.org/2000/svg" xmlns:xlink="http://www.w3.org/1999/xlink">

<svg id="main" version="1.1" xmlns="http://www.w3.org/2000/svg" xmlns:xlink="http://www.w3.org/1999/xlink" xml:space="preserve">

<style type="text/css"><![CDATA[
.node, .edge {opacity: 0.7;}
.node.selected, .edge.selected {opacity: 1;}
.edge:hover path { stroke: red; }
.edge:hover polygon { stroke: red; fill: red; }
]]></style>
<script type="application/ecmascript" xlink:href="svg.min.js"/>
<svg id="graph" class="graph">
<g id="graph0" class="graph" transform="scale(1 1) rotate(0) translate(4 223)">
<title>MyLibrary::Example</title>
<!-- Node1 -->
<g id="Node000001" class="node">
<title>Node1</title>
<g id="a_Node000001"><a xlink:title="Example class to demonstrate the features of the custom CSS.">
<polygon fill="#999999" stroke="none" points="115.25,-219 20.25,-219 20.25,-138.75 115.25,-138.75 115.25,-219"/>
<text xml:space="preserve" text-anchor="start" x="24.25" y="-205.5" font-family="Helvetica,sans-Serif" font-size="10.00">MyLibrary::Example</text>
<text xml:space="preserve" text-anchor="start" x="66.25" y="-190.25" font-family="Helvetica,sans-Serif" font-size="10.00"> </text>
<text xml:space="preserve" text-anchor="start" x="30.75" y="-175" font-family="Helvetica,sans-Serif" font-size="10.00">+</text>
<text xml:space="preserve" text-anchor="start" x="47.25" y="-175" font-family="Helvetica,sans-Serif" font-size="10.00">test()</text>
<text xml:space="preserve" text-anchor="start" x="30.75" y="-159.75" font-family="Helvetica,sans-Serif" font-size="10.00">+</text>
<text xml:space="preserve" text-anchor="start" x="47.25" y="-159.75" font-family="Helvetica,sans-Serif" font-size="10.00">virtualfunc()</text>
<text xml:space="preserve" text-anchor="start" x="30.75" y="-144.5" font-family="Helvetica,sans-Serif" font-size="10.00">+</text>
<text xml:space="preserve" text-anchor="start" x="47.25" y="-144.5" font-family="Helvetica,sans-Serif" font-size="10.00">staticfunc()</text>
<polygon fill="#666666" stroke="#666666" points="20.25,-201.75 20.25,-201.75 115.25,-201.75 115.25,-201.75 20.25,-201.75"/>
<polygon fill="#666666" stroke="#666666" points="20.25,-186.5 20.25,-186.5 115.25,-186.5 115.25,-186.5 20.25,-186.5"/>
<polygon fill="none" stroke="#666666" points="20.25,-138.75 20.25,-219 115.25,-219 115.25,-138.75 20.25,-138.75"/>
</a>
</g>
</g>
<!-- Node2 -->
<g id="Node000002" class="node">
<title>Node2</title>
<g id="a_Node000002"><a xlink:href="classMyLibrary_1_1SubclassExample.html" target="_top" xlink:title="some subclass">
<polygon fill="white" stroke="none" points="135.5,-102.75 0,-102.75 0,0 135.5,0 135.5,-102.75"/>
<text xml:space="preserve" text-anchor="start" x="4" y="-89.25" font-family="Helvetica,sans-Serif" font-size="10.00">MyLibrary::SubclassExample</text>
<text xml:space="preserve" text-anchor="start" x="23.5" y="-78" font-family="Helvetica,sans-Serif" font-size="10.00">&lt; TemplatedClass &gt;</text>
<text xml:space="preserve" text-anchor="start" x="66.25" y="-62.75" font-family="Helvetica,sans-Serif" font-size="10.00"> </text>
<text xml:space="preserve" text-anchor="start" x="7.12" y="-47.5" font-family="Helvetica,sans-Serif" font-size="10.00">+</text>
<text xml:space="preserve" text-anchor="start" x="20.25" y="-47.5" font-family="Helvetica,sans-Serif" font-size="10.00">virtualfunc()</text>
<text xml:space="preserve" text-anchor="start" x="7.12" y="-32.25" font-family="Helvetica,sans-Serif" font-size="10.00">+</text>
<text xml:space="preserve" text-anchor="start" x="20.25" y="-32.25" font-family="Helvetica,sans-Serif" font-size="10.00">function_template_test()</text>
<text xml:space="preserve" text-anchor="start" x="7.12" y="-17" font-family="Helvetica,sans-Serif" font-size="10.00">+</text>
<text xml:space="preserve" text-anchor="start" x="20.25" y="-17" font-family="Helvetica,sans-Serif" font-size="10.00">long_function_with</text>
<text xml:space="preserve" text-anchor="start" x="20.25" y="-5.75" font-family="Helvetica,sans-Serif" font-size="10.00">_many_parameters()</text>
<polygon fill="#666666" stroke="#666666" points="0,-74.25 0,-74.25 135.5,-74.25 135.5,-74.25 0,-74.25"/>
<polygon fill="#666666" stroke="#666666" points="0,-59 0,-59 135.5,-59 135.5,-59 0,-59"/>
<polygon fill="none" stroke="#666666" points="0,0 0,-102.75 135.5,-102.75 135.5,0 0,0"/>
</a>
</g>
</g>
<!-- Node1&#45;&gt;Node2 -->
<g id="edge1_Node000001_Node000002" class="edge">
<title>Node1&#45;&gt;Node2</title>
<g id="a_edge1_Node000001_Node000002"><a xlink:title=" ">
<path fill="none" stroke="#63b8ff" d="M67.75,-127.47C67.75,-119.23 67.75,-110.7 67.75,-102.47"/>
<polygon fill="none" stroke="#63b8ff" points="64.25,-127.34 67.75,-137.34 71.25,-127.34 64.25,-127.34"/>
</a>
</g>
</g>
</g>
</svg>
</svg>

<style type='text/css'>
<![CDATA[
[data-mouse-over-selected='false'] { opacity: 0.7; }
[data-mouse-over-selected='true']  { opacity: 1.0; }
]]>
</style>
<script type="application/ecmascript"><![CDATA[
document.addEventListener('DOMContentLoaded', (event) => {
  highlightEdges();
  highlightAdjacentNodes();
});
]]></script>
</svg>
