<?xml version="1.0" encoding="UTF-8" standalone="no"?>
<!DOCTYPE svg PUBLIC "-//W3C//DTD SVG 1.1//EN"
 "http://www.w3.org/Graphics/SVG/1.1/DTD/svg11.dtd">
<!-- Generated by graphviz version 13.1.0 (20250701.0955)
 -->
<!-- Title: TaskManagement.Domain.Events.DomainEvent Pages: 1 -->
<svg width="167pt" height="84pt"
 viewBox="0.00 0.00 167.00 84.00" xmlns="http://www.w3.org/2000/svg" xmlns:xlink="http://www.w3.org/1999/xlink">
<g id="graph0" class="graph" transform="scale(1 1) rotate(0) translate(4 80.25)">
<title>TaskManagement.Domain.Events.DomainEvent</title>
<!-- Node1 -->
<g id="Node000001" class="node">
<title>Node1</title>
<g id="a_Node000001"><a xlink:title="DomainEvent es una clase base abstracta para todos los eventos de dominio en el sistema.">
<polygon fill="#999999" stroke="none" points="158.75,-76.25 0,-76.25 0,0 158.75,0 158.75,-76.25"/>
<text xml:space="preserve" text-anchor="start" x="4" y="-62.75" font-family="Helvetica,sans-Serif" font-size="10.00">TaskManagement.Domain.Events.</text>
<text xml:space="preserve" text-anchor="start" x="49.75" y="-51.5" font-family="Helvetica,sans-Serif" font-size="10.00">DomainEvent</text>
<text xml:space="preserve" text-anchor="start" x="26.06" y="-36.25" font-family="Helvetica,sans-Serif" font-size="10.00">+</text>
<text xml:space="preserve" text-anchor="start" x="58.12" y="-36.25" font-family="Helvetica,sans-Serif" font-size="10.00">Id</text>
<text xml:space="preserve" text-anchor="start" x="26.06" y="-21" font-family="Helvetica,sans-Serif" font-size="10.00">+</text>
<text xml:space="preserve" text-anchor="start" x="58.12" y="-21" font-family="Helvetica,sans-Serif" font-size="10.00">OccurredOn</text>
<text xml:space="preserve" text-anchor="start" x="77.88" y="-5.75" font-family="Helvetica,sans-Serif" font-size="10.00"> </text>
<polygon fill="#666666" stroke="#666666" points="0,-47.75 0,-47.75 158.75,-47.75 158.75,-47.75 0,-47.75"/>
<polygon fill="#666666" stroke="#666666" points="0,-17.25 0,-17.25 56.12,-17.25 56.12,-17.25 0,-17.25"/>
<polygon fill="#666666" stroke="#666666" points="56.12,-17.25 56.12,-17.25 158.75,-17.25 158.75,-17.25 56.12,-17.25"/>
<polygon fill="none" stroke="#666666" points="0,0 0,-76.25 158.75,-76.25 158.75,0 0,0"/>
</a>
</g>
</g>
</g>
</svg>
