<?xml version="1.0" encoding="UTF-8" standalone="no"?>
<!DOCTYPE svg PUBLIC "-//W3C//DTD SVG 1.1//EN"
 "http://www.w3.org/Graphics/SVG/1.1/DTD/svg11.dtd">
<!-- Generated by graphviz version 13.1.0 (20250701.0955)
 -->
<!-- Title: TaskManagement.Application.Behaviors.CreateTaskCommandValidator Pages: 1 -->
<svg width="195pt" height="166pt"
 viewBox="0.00 0.00 195.00 166.00" xmlns="http://www.w3.org/2000/svg" xmlns:xlink="http://www.w3.org/1999/xlink">
<g id="graph0" class="graph" transform="scale(1 1) rotate(0) translate(4 162)">
<title>TaskManagement.Application.Behaviors.CreateTaskCommandValidator</title>
<!-- Node1 -->
<g id="Node000001" class="node">
<title>Node1</title>
<g id="a_Node000001"><a xlink:title=" ">
<polygon fill="#999999" stroke="none" points="187.25,-61 0,-61 0,0 187.25,0 187.25,-61"/>
<text xml:space="preserve" text-anchor="start" x="4" y="-47.5" font-family="Helvetica,sans-Serif" font-size="10.00">TaskManagement.Application.</text>
<text xml:space="preserve" text-anchor="start" x="4" y="-36.25" font-family="Helvetica,sans-Serif" font-size="10.00">Behaviors.CreateTaskCommandValidator</text>
<text xml:space="preserve" text-anchor="start" x="92.12" y="-21" font-family="Helvetica,sans-Serif" font-size="10.00"> </text>
<text xml:space="preserve" text-anchor="start" x="11.62" y="-5.75" font-family="Helvetica,sans-Serif" font-size="10.00">+</text>
<text xml:space="preserve" text-anchor="start" x="29.25" y="-5.75" font-family="Helvetica,sans-Serif" font-size="10.00">CreateTaskCommandValidator()</text>
<polygon fill="#666666" stroke="#666666" points="0,-32.5 0,-32.5 187.25,-32.5 187.25,-32.5 0,-32.5"/>
<polygon fill="#666666" stroke="#666666" points="0,-17.25 0,-17.25 187.25,-17.25 187.25,-17.25 0,-17.25"/>
<polygon fill="none" stroke="#666666" points="0,0 0,-61 187.25,-61 187.25,0 0,0"/>
</a>
</g>
</g>
<!-- Node2 -->
<g id="Node000002" class="node">
<title>Node2</title>
<g id="a_Node000002"><a xlink:href="classAbstractValidator-1-g.html" target="_top" xlink:title=" ">
<polygon fill="white" stroke="none" points="151.25,-158 36,-158 36,-97 151.25,-97 151.25,-158"/>
<text xml:space="preserve" text-anchor="start" x="40" y="-144.5" font-family="Helvetica,sans-Serif" font-size="10.00">AbstractValidator&lt;</text>
<text xml:space="preserve" text-anchor="start" x="40" y="-133.25" font-family="Helvetica,sans-Serif" font-size="10.00"> CreateTaskCommand &gt;</text>
<text xml:space="preserve" text-anchor="start" x="92.12" y="-118" font-family="Helvetica,sans-Serif" font-size="10.00"> </text>
<text xml:space="preserve" text-anchor="start" x="92.12" y="-102.75" font-family="Helvetica,sans-Serif" font-size="10.00"> </text>
<polygon fill="#666666" stroke="#666666" points="36,-129.5 36,-129.5 151.25,-129.5 151.25,-129.5 36,-129.5"/>
<polygon fill="#666666" stroke="#666666" points="36,-114.25 36,-114.25 151.25,-114.25 151.25,-114.25 36,-114.25"/>
<polygon fill="none" stroke="#666666" points="36,-97 36,-158 151.25,-158 151.25,-97 36,-97"/>
</a>
</g>
</g>
<!-- Node2&#45;&gt;Node1 -->
<g id="edge1_Node000001_Node000002" class="edge">
<title>Node2&#45;&gt;Node1</title>
<g id="a_edge1_Node000001_Node000002"><a xlink:title=" ">
<path fill="none" stroke="#63b8ff" d="M93.62,-85.99C93.62,-77.54 93.62,-68.8 93.62,-60.85"/>
<polygon fill="none" stroke="#63b8ff" points="90.13,-85.71 93.63,-95.71 97.13,-85.71 90.13,-85.71"/>
</a>
</g>
</g>
</g>
</svg>
