<?xml version="1.0" encoding="UTF-8" standalone="no"?>
<!DOCTYPE svg PUBLIC "-//W3C//DTD SVG 1.1//EN"
 "http://www.w3.org/Graphics/SVG/1.1/DTD/svg11.dtd">
<!-- Generated by graphviz version 13.1.0 (20250701.0955)
 -->
<!-- Title: TaskManagement.Domain.ValueObjects.Email Pages: 1 -->
<svg width="176pt" height="258pt"
 viewBox="0.00 0.00 176.00 258.00" xmlns="http://www.w3.org/2000/svg" xmlns:xlink="http://www.w3.org/1999/xlink">

<svg id="main" version="1.1" xmlns="http://www.w3.org/2000/svg" xmlns:xlink="http://www.w3.org/1999/xlink" xml:space="preserve">

<style type="text/css"><![CDATA[
.node, .edge {opacity: 0.7;}
.node.selected, .edge.selected {opacity: 1;}
.edge:hover path { stroke: red; }
.edge:hover polygon { stroke: red; fill: red; }
]]></style>
<script type="application/ecmascript" xlink:href="svg.min.js"/>
<svg id="graph" class="graph">
<g id="graph0" class="graph" transform="scale(1 1) rotate(0) translate(4 253.5)">
<title>TaskManagement.Domain.ValueObjects.Email</title>
<!-- Node1 -->
<g id="Node000001" class="node">
<title>Node1</title>
<g id="a_Node000001"><a xlink:title="Email es un Objeto de Valor del Dominio que encapsula la lógica y validación de direcciones de correo...">
<polygon fill="#999999" stroke="none" points="158.38,-91.5 9.38,-91.5 9.38,0 158.38,0 158.38,-91.5"/>
<text xml:space="preserve" text-anchor="start" x="13.38" y="-78" font-family="Helvetica,sans-Serif" font-size="10.00">TaskManagement.Domain.Value</text>
<text xml:space="preserve" text-anchor="start" x="53.12" y="-66.75" font-family="Helvetica,sans-Serif" font-size="10.00">Objects.Email</text>
<text xml:space="preserve" text-anchor="start" x="18" y="-51.5" font-family="Helvetica,sans-Serif" font-size="10.00">+</text>
<text xml:space="preserve" text-anchor="start" x="32.62" y="-51.5" font-family="Helvetica,sans-Serif" font-size="10.00">Value</text>
<text xml:space="preserve" text-anchor="start" x="18" y="-36.25" font-family="Helvetica,sans-Serif" font-size="10.00">+</text>
<text xml:space="preserve" text-anchor="start" x="32.62" y="-36.25" font-family="Helvetica,sans-Serif" font-size="10.00">ToString()</text>
<text xml:space="preserve" text-anchor="start" x="18" y="-21" font-family="Helvetica,sans-Serif" font-size="10.00">+</text>
<text xml:space="preserve" text-anchor="start" x="32.62" y="-21" font-family="Helvetica,sans-Serif" font-size="10.00">Create()</text>
<text xml:space="preserve" text-anchor="start" x="18.38" y="-5.75" font-family="Helvetica,sans-Serif" font-size="10.00">#</text>
<text xml:space="preserve" text-anchor="start" x="32.62" y="-5.75" font-family="Helvetica,sans-Serif" font-size="10.00">GetEqualityComponents()</text>
<polygon fill="#666666" stroke="#666666" points="9.38,-63 9.38,-63 158.38,-63 158.38,-63 9.38,-63"/>
<polygon fill="#666666" stroke="#666666" points="9.38,-47.75 9.38,-47.75 30.62,-47.75 30.62,-47.75 9.38,-47.75"/>
<polygon fill="#666666" stroke="#666666" points="30.62,-47.75 30.62,-47.75 158.38,-47.75 158.38,-47.75 30.62,-47.75"/>
<polygon fill="none" stroke="#666666" points="9.38,0 9.38,-91.5 158.38,-91.5 158.38,0 9.38,0"/>
</a>
</g>
</g>
<!-- Node2 -->
<g id="Node000002" class="node">
<title>Node2</title>
<g id="a_Node000002"><a xlink:href="classTaskManagement_1_1Domain_1_1Common_1_1ValueObject.html" target="_top" xlink:title=" ">
<polygon fill="white" stroke="none" points="167.75,-249.5 0,-249.5 0,-127.5 167.75,-127.5 167.75,-249.5"/>
<text xml:space="preserve" text-anchor="start" x="4" y="-236" font-family="Helvetica,sans-Serif" font-size="10.00">TaskManagement.Domain.Common.</text>
<text xml:space="preserve" text-anchor="start" x="57.62" y="-224.75" font-family="Helvetica,sans-Serif" font-size="10.00">ValueObject</text>
<text xml:space="preserve" text-anchor="start" x="82.38" y="-209.5" font-family="Helvetica,sans-Serif" font-size="10.00"> </text>
<text xml:space="preserve" text-anchor="start" x="13.31" y="-194.25" font-family="Helvetica,sans-Serif" font-size="10.00">+</text>
<text xml:space="preserve" text-anchor="start" x="32.62" y="-194.25" font-family="Helvetica,sans-Serif" font-size="10.00">Equals()</text>
<text xml:space="preserve" text-anchor="start" x="13.31" y="-179" font-family="Helvetica,sans-Serif" font-size="10.00">+</text>
<text xml:space="preserve" text-anchor="start" x="32.62" y="-179" font-family="Helvetica,sans-Serif" font-size="10.00">GetHashCode()</text>
<text xml:space="preserve" text-anchor="start" x="13.31" y="-163.75" font-family="Helvetica,sans-Serif" font-size="10.00">+</text>
<text xml:space="preserve" text-anchor="start" x="32.62" y="-163.75" font-family="Helvetica,sans-Serif" font-size="10.00">operator==()</text>
<text xml:space="preserve" text-anchor="start" x="13.31" y="-148.5" font-family="Helvetica,sans-Serif" font-size="10.00">+</text>
<text xml:space="preserve" text-anchor="start" x="32.62" y="-148.5" font-family="Helvetica,sans-Serif" font-size="10.00">operator!=()</text>
<text xml:space="preserve" text-anchor="start" x="13.69" y="-133.25" font-family="Helvetica,sans-Serif" font-size="10.00">#</text>
<text xml:space="preserve" text-anchor="start" x="32.62" y="-133.25" font-family="Helvetica,sans-Serif" font-size="10.00">GetEqualityComponents()</text>
<polygon fill="#666666" stroke="#666666" points="0,-221 0,-221 167.75,-221 167.75,-221 0,-221"/>
<polygon fill="#666666" stroke="#666666" points="0,-205.75 0,-205.75 167.75,-205.75 167.75,-205.75 0,-205.75"/>
<polygon fill="none" stroke="#666666" points="0,-127.5 0,-249.5 167.75,-249.5 167.75,-127.5 0,-127.5"/>
</a>
</g>
</g>
<!-- Node2&#45;&gt;Node1 -->
<g id="edge1_Node000001_Node000002" class="edge">
<title>Node2&#45;&gt;Node1</title>
<g id="a_edge1_Node000001_Node000002"><a xlink:title=" ">
<path fill="none" stroke="#63b8ff" d="M83.88,-116.5C83.88,-107.86 83.88,-99.25 83.88,-91.16"/>
<polygon fill="none" stroke="#63b8ff" points="80.38,-116.3 83.88,-126.3 87.38,-116.3 80.38,-116.3"/>
</a>
</g>
</g>
</g>
</svg>
</svg>

<style type='text/css'>
<![CDATA[
[data-mouse-over-selected='false'] { opacity: 0.7; }
[data-mouse-over-selected='true']  { opacity: 1.0; }
]]>
</style>
<script type="application/ecmascript"><![CDATA[
document.addEventListener('DOMContentLoaded', (event) => {
  highlightEdges();
  highlightAdjacentNodes();
});
]]></script>
</svg>
