<?xml version="1.0" encoding="UTF-8" standalone="no"?>
<!DOCTYPE svg PUBLIC "-//W3C//DTD SVG 1.1//EN"
 "http://www.w3.org/Graphics/SVG/1.1/DTD/svg11.dtd">
<!-- Generated by graphviz version 13.1.0 (20250701.0955)
 -->
<!-- Title: TaskManagement.Application.Queries.GetTaskById.GetTaskByIdQueryHandler Pages: 1 -->
<svg width="170pt" height="181pt"
 viewBox="0.00 0.00 170.00 181.00" xmlns="http://www.w3.org/2000/svg" xmlns:xlink="http://www.w3.org/1999/xlink">
<g id="page0,1_graph0" class="graph" transform="scale(1 1) rotate(0) translate(4 177.25)">
<title>TaskManagement.Application.Queries.GetTaskById.GetTaskByIdQueryHandler</title>
<!-- Node1 -->
<g id="Node000001" class="node">
<title>Node1</title>
<g id="a_Node000001"><a xlink:title="GetTaskByIdQuery encapsula una solicitud para recuperar una sola tarea por ID.">
<polygon fill="#999999" stroke="none" points="161.75,-87.5 0,-87.5 0,0 161.75,0 161.75,-87.5"/>
<text xml:space="preserve" text-anchor="start" x="4" y="-74" font-family="Helvetica,sans-Serif" font-size="10.00">TaskManagement.Application.</text>
<text xml:space="preserve" text-anchor="start" x="4" y="-62.75" font-family="Helvetica,sans-Serif" font-size="10.00">Queries.GetTaskById.GetTaskById</text>
<text xml:space="preserve" text-anchor="start" x="50.88" y="-51.5" font-family="Helvetica,sans-Serif" font-size="10.00">QueryHandler</text>
<text xml:space="preserve" text-anchor="start" x="79.38" y="-36.25" font-family="Helvetica,sans-Serif" font-size="10.00"> </text>
<text xml:space="preserve" text-anchor="start" x="9.19" y="-21" font-family="Helvetica,sans-Serif" font-size="10.00">+</text>
<text xml:space="preserve" text-anchor="start" x="24.38" y="-21" font-family="Helvetica,sans-Serif" font-size="10.00">GetTaskByIdQueryHandler()</text>
<text xml:space="preserve" text-anchor="start" x="9.19" y="-5.75" font-family="Helvetica,sans-Serif" font-size="10.00">+</text>
<text xml:space="preserve" text-anchor="start" x="24.38" y="-5.75" font-family="Helvetica,sans-Serif" font-size="10.00">Handle()</text>
<polygon fill="#666666" stroke="#666666" points="0,-47.75 0,-47.75 161.75,-47.75 161.75,-47.75 0,-47.75"/>
<polygon fill="#666666" stroke="#666666" points="0,-32.5 0,-32.5 161.75,-32.5 161.75,-32.5 0,-32.5"/>
<polygon fill="none" stroke="#666666" points="0,0 0,-87.5 161.75,-87.5 161.75,0 0,0"/>
</a>
</g>
</g>
<!-- Node2 -->
<g id="Node000002" class="node">
<title>Node2</title>
<g id="a_Node000002"><a xlink:href="classIRequestHandler-2-g.html" target="_top" xlink:title=" ">
<polygon fill="white" stroke="none" points="121.62,-173.25 40.12,-173.25 40.12,-123.5 121.62,-123.5 121.62,-173.25"/>
<text xml:space="preserve" text-anchor="start" x="44.12" y="-159.75" font-family="Helvetica,sans-Serif" font-size="10.00">IRequestHandler</text>
<text xml:space="preserve" text-anchor="start" x="79.38" y="-144.5" font-family="Helvetica,sans-Serif" font-size="10.00"> </text>
<text xml:space="preserve" text-anchor="start" x="79.38" y="-129.25" font-family="Helvetica,sans-Serif" font-size="10.00"> </text>
<polygon fill="#666666" stroke="#666666" points="40.12,-156 40.12,-156 121.62,-156 121.62,-156 40.12,-156"/>
<polygon fill="#666666" stroke="#666666" points="40.12,-140.75 40.12,-140.75 121.62,-140.75 121.62,-140.75 40.12,-140.75"/>
<polygon fill="none" stroke="#666666" points="40.12,-123.5 40.12,-173.25 121.62,-173.25 121.62,-123.5 40.12,-123.5"/>
</a>
</g>
</g>
<!-- Node2&#45;&gt;Node1 -->
<g id="edge1_Node000001_Node000002" class="edge">
<title>Node2&#45;&gt;Node1</title>
<g id="a_edge1_Node000001_Node000002"><a xlink:title=" ">
<path fill="none" stroke="#63b8ff" d="M80.88,-112.33C80.88,-104.29 80.88,-95.66 80.88,-87.34"/>
<polygon fill="none" stroke="#63b8ff" points="77.38,-112.06 80.88,-122.06 84.38,-112.06 77.38,-112.06"/>
</a>
</g>
</g>
</g>
</svg>
