<?xml version="1.0" encoding="UTF-8" standalone="no"?>
<!DOCTYPE svg PUBLIC "-//W3C//DTD SVG 1.1//EN"
 "http://www.w3.org/Graphics/SVG/1.1/DTD/svg11.dtd">
<!-- Generated by graphviz version 13.1.0 (20250701.0955)
 -->
<!-- Title: TaskManagement.Application.Commands.CreateTask.CreateTaskCommandHandler Pages: 1 -->
<svg width="218pt" height="181pt"
 viewBox="0.00 0.00 218.00 181.00" xmlns="http://www.w3.org/2000/svg" xmlns:xlink="http://www.w3.org/1999/xlink">

<svg id="main" version="1.1" xmlns="http://www.w3.org/2000/svg" xmlns:xlink="http://www.w3.org/1999/xlink" xml:space="preserve">

<style type="text/css"><![CDATA[
.node, .edge {opacity: 0.7;}
.node.selected, .edge.selected {opacity: 1;}
.edge:hover path { stroke: red; }
.edge:hover polygon { stroke: red; fill: red; }
]]></style>
<script type="application/ecmascript" xlink:href="svg.min.js"/>
<svg id="graph" class="graph">
<g id="graph0" class="graph" transform="scale(1 1) rotate(0) translate(4 177.25)">
<title>TaskManagement.Application.Commands.CreateTask.CreateTaskCommandHandler</title>
<!-- Node1 -->
<g id="Node000001" class="node">
<title>Node1</title>
<g id="a_Node000001"><a xlink:title="CreateTaskCommand encapsula la solicitud de creación de una nueva tarea.">
<polygon fill="#999999" stroke="none" points="209.75,-87.5 0,-87.5 0,0 209.75,0 209.75,-87.5"/>
<text xml:space="preserve" text-anchor="start" x="4" y="-74" font-family="Helvetica,sans-Serif" font-size="10.00">TaskManagement.Application.</text>
<text xml:space="preserve" text-anchor="start" x="4" y="-62.75" font-family="Helvetica,sans-Serif" font-size="10.00">Commands.CreateTask.CreateTaskCommand</text>
<text xml:space="preserve" text-anchor="start" x="88" y="-51.5" font-family="Helvetica,sans-Serif" font-size="10.00">Handler</text>
<text xml:space="preserve" text-anchor="start" x="103.38" y="-36.25" font-family="Helvetica,sans-Serif" font-size="10.00"> </text>
<text xml:space="preserve" text-anchor="start" x="18.19" y="-21" font-family="Helvetica,sans-Serif" font-size="10.00">+</text>
<text xml:space="preserve" text-anchor="start" x="42.38" y="-21" font-family="Helvetica,sans-Serif" font-size="10.00">CreateTaskCommandHandler()</text>
<text xml:space="preserve" text-anchor="start" x="18.19" y="-5.75" font-family="Helvetica,sans-Serif" font-size="10.00">+</text>
<text xml:space="preserve" text-anchor="start" x="42.38" y="-5.75" font-family="Helvetica,sans-Serif" font-size="10.00">Handle()</text>
<polygon fill="#666666" stroke="#666666" points="0,-47.75 0,-47.75 209.75,-47.75 209.75,-47.75 0,-47.75"/>
<polygon fill="#666666" stroke="#666666" points="0,-32.5 0,-32.5 209.75,-32.5 209.75,-32.5 0,-32.5"/>
<polygon fill="none" stroke="#666666" points="0,0 0,-87.5 209.75,-87.5 209.75,0 0,0"/>
</a>
</g>
</g>
<!-- Node2 -->
<g id="Node000002" class="node">
<title>Node2</title>
<g id="a_Node000002"><a xlink:href="classIRequestHandler-2-g.html" target="_top" xlink:title=" ">
<polygon fill="white" stroke="none" points="145.62,-173.25 64.12,-173.25 64.12,-123.5 145.62,-123.5 145.62,-173.25"/>
<text xml:space="preserve" text-anchor="start" x="68.12" y="-159.75" font-family="Helvetica,sans-Serif" font-size="10.00">IRequestHandler</text>
<text xml:space="preserve" text-anchor="start" x="103.38" y="-144.5" font-family="Helvetica,sans-Serif" font-size="10.00"> </text>
<text xml:space="preserve" text-anchor="start" x="103.38" y="-129.25" font-family="Helvetica,sans-Serif" font-size="10.00"> </text>
<polygon fill="#666666" stroke="#666666" points="64.12,-156 64.12,-156 145.62,-156 145.62,-156 64.12,-156"/>
<polygon fill="#666666" stroke="#666666" points="64.12,-140.75 64.12,-140.75 145.62,-140.75 145.62,-140.75 64.12,-140.75"/>
<polygon fill="none" stroke="#666666" points="64.12,-123.5 64.12,-173.25 145.62,-173.25 145.62,-123.5 64.12,-123.5"/>
</a>
</g>
</g>
<!-- Node2&#45;&gt;Node1 -->
<g id="edge1_Node000001_Node000002" class="edge">
<title>Node2&#45;&gt;Node1</title>
<g id="a_edge1_Node000001_Node000002"><a xlink:title=" ">
<path fill="none" stroke="#63b8ff" d="M104.88,-112.33C104.88,-104.29 104.88,-95.66 104.88,-87.34"/>
<polygon fill="none" stroke="#63b8ff" points="101.38,-112.06 104.88,-122.06 108.38,-112.06 101.38,-112.06"/>
</a>
</g>
</g>
</g>
</svg>
</svg>

<style type='text/css'>
<![CDATA[
[data-mouse-over-selected='false'] { opacity: 0.7; }
[data-mouse-over-selected='true']  { opacity: 1.0; }
]]>
</style>
<script type="application/ecmascript"><![CDATA[
document.addEventListener('DOMContentLoaded', (event) => {
  highlightEdges();
  highlightAdjacentNodes();
});
]]></script>
</svg>
