<?xml version="1.0" encoding="UTF-8" standalone="no"?>
<!DOCTYPE svg PUBLIC "-//W3C//DTD SVG 1.1//EN"
 "http://www.w3.org/Graphics/SVG/1.1/DTD/svg11.dtd">
<!-- Generated by graphviz version 13.1.0 (20250701.0955)
 -->
<!-- Title: TaskManagement.Application.Queries.GetTaskById.GetTaskByIdQueryHandler.Handle Pages: 1 -->
<svg width="601pt" height="88pt"
 viewBox="0.00 0.00 601.00 88.00" xmlns="http://www.w3.org/2000/svg" xmlns:xlink="http://www.w3.org/1999/xlink">
<g id="page0,1_graph0" class="graph" transform="scale(1 1) rotate(0) translate(4 83.5)">
<title>TaskManagement.Application.Queries.GetTaskById.GetTaskByIdQueryHandler.Handle</title>
<!-- Node1 -->
<g id="Node000001" class="node">
<title>Node1</title>
<g id="a_Node000001"><a xlink:title=" ">
<polygon fill="#999999" stroke="#666666" points="169.75,-60.12 0,-60.12 0,-18.38 169.75,-18.38 169.75,-60.12"/>
<text xml:space="preserve" text-anchor="start" x="8" y="-46.62" font-family="Helvetica,sans-Serif" font-size="10.00">TaskManagement.Application.</text>
<text xml:space="preserve" text-anchor="start" x="8" y="-35.38" font-family="Helvetica,sans-Serif" font-size="10.00">Queries.GetTaskById.GetTaskById</text>
<text xml:space="preserve" text-anchor="middle" x="84.88" y="-24.12" font-family="Helvetica,sans-Serif" font-size="10.00">QueryHandler.Handle</text>
</a>
</g>
</g>
<!-- Node2 -->
<g id="Node000002" class="node">
<title>Node2</title>
<g id="a_Node000002"><a xlink:href="classTaskManagement_1_1Domain_1_1Common_1_1Result.html#abb0443b136478238351871e1c1621a33" target="_top" xlink:title=" ">
<polygon fill="white" stroke="#666666" points="381.5,-79.5 205.75,-79.5 205.75,-49 381.5,-49 381.5,-79.5"/>
<text xml:space="preserve" text-anchor="start" x="213.75" y="-66" font-family="Helvetica,sans-Serif" font-size="10.00">TaskManagement.Domain.Common.</text>
<text xml:space="preserve" text-anchor="middle" x="293.62" y="-54.75" font-family="Helvetica,sans-Serif" font-size="10.00">Result.Failure</text>
</a>
</g>
</g>
<!-- Node1&#45;&gt;Node2 -->
<g id="edge1_Node000001_Node000002" class="edge">
<title>Node1&#45;&gt;Node2</title>
<g id="a_edge1_Node000001_Node000002"><a xlink:title=" ">
<path fill="none" stroke="#63b8ff" d="M169.97,-49.42C177.95,-50.38 186.08,-51.37 194.18,-52.35"/>
<polygon fill="#63b8ff" stroke="#63b8ff" points="193.73,-55.82 204.08,-53.54 194.57,-48.87 193.73,-55.82"/>
</a>
</g>
</g>
<!-- Node4 -->
<g id="Node000004" class="node">
<title>Node4</title>
<g id="a_Node000004"><a xlink:href="classTaskManagement_1_1Domain_1_1Common_1_1Result.html#aca3f1594f7b60690fbe65d1d6436d64d" target="_top" xlink:title=" ">
<polygon fill="white" stroke="#666666" points="381.5,-30.5 205.75,-30.5 205.75,0 381.5,0 381.5,-30.5"/>
<text xml:space="preserve" text-anchor="start" x="213.75" y="-17" font-family="Helvetica,sans-Serif" font-size="10.00">TaskManagement.Domain.Common.</text>
<text xml:space="preserve" text-anchor="middle" x="293.62" y="-5.75" font-family="Helvetica,sans-Serif" font-size="10.00">Result.Success</text>
</a>
</g>
</g>
<!-- Node1&#45;&gt;Node4 -->
<g id="edge3_Node000001_Node000004" class="edge">
<title>Node1&#45;&gt;Node4</title>
<g id="a_edge3_Node000001_Node000004"><a xlink:title=" ">
<path fill="none" stroke="#63b8ff" d="M169.97,-29.49C177.95,-28.56 186.08,-27.62 194.18,-26.68"/>
<polygon fill="#63b8ff" stroke="#63b8ff" points="194.55,-30.16 204.08,-25.53 193.74,-23.21 194.55,-30.16"/>
</a>
</g>
</g>
<!-- Node3 -->
<g id="Node000003" class="node">
<title>Node3</title>
<g id="a_Node000003"><a xlink:href="classTaskManagement_1_1Domain_1_1Common_1_1Result.html#ac72e19a32a39eff6e205a7ed743a20dd" target="_top" xlink:title=" ">
<polygon fill="white" stroke="#666666" points="593.25,-54.5 417.5,-54.5 417.5,-24 593.25,-24 593.25,-54.5"/>
<text xml:space="preserve" text-anchor="start" x="425.5" y="-41" font-family="Helvetica,sans-Serif" font-size="10.00">TaskManagement.Domain.Common.</text>
<text xml:space="preserve" text-anchor="middle" x="505.38" y="-29.75" font-family="Helvetica,sans-Serif" font-size="10.00">Result.Result</text>
</a>
</g>
</g>
<!-- Node2&#45;&gt;Node3 -->
<g id="edge2_Node000002_Node000003" class="edge">
<title>Node2&#45;&gt;Node3</title>
<g id="a_edge2_Node000002_Node000003"><a xlink:title=" ">
<path fill="none" stroke="#63b8ff" d="M381.76,-53.86C389.71,-52.92 397.81,-51.95 405.86,-50.99"/>
<polygon fill="#63b8ff" stroke="#63b8ff" points="406.16,-54.48 415.68,-49.82 405.33,-47.53 406.16,-54.48"/>
</a>
</g>
</g>
<!-- Node4&#45;&gt;Node3 -->
<g id="edge4_Node000004_Node000003" class="edge">
<title>Node4&#45;&gt;Node3</title>
<g id="a_edge4_Node000004_Node000003"><a xlink:title=" ">
<path fill="none" stroke="#63b8ff" d="M381.76,-25.22C389.71,-26.13 397.81,-27.06 405.86,-27.98"/>
<polygon fill="#63b8ff" stroke="#63b8ff" points="405.34,-31.44 415.67,-29.1 406.14,-24.49 405.34,-31.44"/>
</a>
</g>
</g>
</g>
</svg>
