<?xml version="1.0" encoding="UTF-8" standalone="no"?>
<!DOCTYPE svg PUBLIC "-//W3C//DTD SVG 1.1//EN"
 "http://www.w3.org/Graphics/SVG/1.1/DTD/svg11.dtd">
<!-- Generated by graphviz version 13.1.0 (20250701.0955)
 -->
<!-- Title: IRequestHandler Pages: 1 -->
<svg width="606pt" height="181pt"
 viewBox="0.00 0.00 606.00 181.00" xmlns="http://www.w3.org/2000/svg" xmlns:xlink="http://www.w3.org/1999/xlink">
<g id="graph0" class="graph" transform="scale(1 1) rotate(0) translate(4 177.25)">
<title>IRequestHandler</title>
<!-- Node1 -->
<g id="Node000001" class="node">
<title>Node1</title>
<g id="a_Node000001"><a xlink:title=" ">
<polygon fill="#999999" stroke="none" points="353.88,-173.25 272.38,-173.25 272.38,-123.5 353.88,-123.5 353.88,-173.25"/>
<text xml:space="preserve" text-anchor="start" x="276.38" y="-159.75" font-family="Helvetica,sans-Serif" font-size="10.00">IRequestHandler</text>
<text xml:space="preserve" text-anchor="start" x="311.62" y="-144.5" font-family="Helvetica,sans-Serif" font-size="10.00"> </text>
<text xml:space="preserve" text-anchor="start" x="311.62" y="-129.25" font-family="Helvetica,sans-Serif" font-size="10.00"> </text>
<polygon fill="#666666" stroke="#666666" points="272.38,-156 272.38,-156 353.88,-156 353.88,-156 272.38,-156"/>
<polygon fill="#666666" stroke="#666666" points="272.38,-140.75 272.38,-140.75 353.88,-140.75 353.88,-140.75 272.38,-140.75"/>
<polygon fill="none" stroke="#666666" points="272.38,-123.5 272.38,-173.25 353.88,-173.25 353.88,-123.5 272.38,-123.5"/>
</a>
</g>
</g>
<!-- Node2 -->
<g id="Node000002" class="node">
<title>Node2</title>
<g id="a_Node000002"><a xlink:href="classTaskManagement_1_1Application_1_1Commands_1_1CompleteTask_1_1CompleteTaskCommandHandler.html" target="_top" xlink:title="CompleteTaskCommand encapsula la solicitud de marcar una tarea como completada.">
<polygon fill="white" stroke="none" points="190.25,-87.5 0,-87.5 0,0 190.25,0 190.25,-87.5"/>
<text xml:space="preserve" text-anchor="start" x="4" y="-74" font-family="Helvetica,sans-Serif" font-size="10.00">TaskManagement.Application.</text>
<text xml:space="preserve" text-anchor="start" x="4" y="-62.75" font-family="Helvetica,sans-Serif" font-size="10.00">Commands.CompleteTask.CompleteTask</text>
<text xml:space="preserve" text-anchor="start" x="55.75" y="-51.5" font-family="Helvetica,sans-Serif" font-size="10.00">CommandHandler</text>
<text xml:space="preserve" text-anchor="start" x="93.62" y="-36.25" font-family="Helvetica,sans-Serif" font-size="10.00"> </text>
<text xml:space="preserve" text-anchor="start" x="10.12" y="-21" font-family="Helvetica,sans-Serif" font-size="10.00">+</text>
<text xml:space="preserve" text-anchor="start" x="26.25" y="-21" font-family="Helvetica,sans-Serif" font-size="10.00">CompleteTaskCommandHandler()</text>
<text xml:space="preserve" text-anchor="start" x="10.12" y="-5.75" font-family="Helvetica,sans-Serif" font-size="10.00">+</text>
<text xml:space="preserve" text-anchor="start" x="26.25" y="-5.75" font-family="Helvetica,sans-Serif" font-size="10.00">Handle()</text>
<polygon fill="#666666" stroke="#666666" points="0,-47.75 0,-47.75 190.25,-47.75 190.25,-47.75 0,-47.75"/>
<polygon fill="#666666" stroke="#666666" points="0,-32.5 0,-32.5 190.25,-32.5 190.25,-32.5 0,-32.5"/>
<polygon fill="none" stroke="#666666" points="0,0 0,-87.5 190.25,-87.5 190.25,0 0,0"/>
</a>
</g>
</g>
<!-- Node1&#45;&gt;Node2 -->
<g id="edge1_Node000001_Node000002" class="edge">
<title>Node1&#45;&gt;Node2</title>
<g id="a_edge1_Node000001_Node000002"><a xlink:title=" ">
<path fill="none" stroke="#63b8ff" d="M261.96,-123.29C239.25,-112.6 211.82,-99.69 185.82,-87.45"/>
<polygon fill="none" stroke="#63b8ff" points="260.47,-126.46 271.01,-127.55 263.45,-120.12 260.47,-126.46"/>
</a>
</g>
</g>
<!-- Node3 -->
<g id="Node000003" class="node">
<title>Node3</title>
<g id="a_Node000003"><a xlink:href="classTaskManagement_1_1Application_1_1Commands_1_1CreateTask_1_1CreateTaskCommandHandler.html" target="_top" xlink:title="CreateTaskCommand encapsula la solicitud de creación de una nueva tarea.">
<polygon fill="white" stroke="none" points="418,-87.5 208.25,-87.5 208.25,0 418,0 418,-87.5"/>
<text xml:space="preserve" text-anchor="start" x="212.25" y="-74" font-family="Helvetica,sans-Serif" font-size="10.00">TaskManagement.Application.</text>
<text xml:space="preserve" text-anchor="start" x="212.25" y="-62.75" font-family="Helvetica,sans-Serif" font-size="10.00">Commands.CreateTask.CreateTaskCommand</text>
<text xml:space="preserve" text-anchor="start" x="296.25" y="-51.5" font-family="Helvetica,sans-Serif" font-size="10.00">Handler</text>
<text xml:space="preserve" text-anchor="start" x="311.62" y="-36.25" font-family="Helvetica,sans-Serif" font-size="10.00"> </text>
<text xml:space="preserve" text-anchor="start" x="226.44" y="-21" font-family="Helvetica,sans-Serif" font-size="10.00">+</text>
<text xml:space="preserve" text-anchor="start" x="250.62" y="-21" font-family="Helvetica,sans-Serif" font-size="10.00">CreateTaskCommandHandler()</text>
<text xml:space="preserve" text-anchor="start" x="226.44" y="-5.75" font-family="Helvetica,sans-Serif" font-size="10.00">+</text>
<text xml:space="preserve" text-anchor="start" x="250.62" y="-5.75" font-family="Helvetica,sans-Serif" font-size="10.00">Handle()</text>
<polygon fill="#666666" stroke="#666666" points="208.25,-47.75 208.25,-47.75 418,-47.75 418,-47.75 208.25,-47.75"/>
<polygon fill="#666666" stroke="#666666" points="208.25,-32.5 208.25,-32.5 418,-32.5 418,-32.5 208.25,-32.5"/>
<polygon fill="none" stroke="#666666" points="208.25,0 208.25,-87.5 418,-87.5 418,0 208.25,0"/>
</a>
</g>
</g>
<!-- Node1&#45;&gt;Node3 -->
<g id="edge2_Node000001_Node000003" class="edge">
<title>Node1&#45;&gt;Node3</title>
<g id="a_edge2_Node000001_Node000003"><a xlink:title=" ">
<path fill="none" stroke="#63b8ff" d="M313.12,-112.33C313.12,-104.29 313.12,-95.66 313.12,-87.34"/>
<polygon fill="none" stroke="#63b8ff" points="309.63,-112.06 313.13,-122.06 316.63,-112.06 309.63,-112.06"/>
</a>
</g>
</g>
<!-- Node4 -->
<g id="Node000004" class="node">
<title>Node4</title>
<g id="a_Node000004"><a xlink:href="classTaskManagement_1_1Application_1_1Queries_1_1GetTaskById_1_1GetTaskByIdQueryHandler.html" target="_top" xlink:title="GetTaskByIdQuery encapsula una solicitud para recuperar una sola tarea por ID.">
<polygon fill="white" stroke="none" points="598,-87.5 436.25,-87.5 436.25,0 598,0 598,-87.5"/>
<text xml:space="preserve" text-anchor="start" x="440.25" y="-74" font-family="Helvetica,sans-Serif" font-size="10.00">TaskManagement.Application.</text>
<text xml:space="preserve" text-anchor="start" x="440.25" y="-62.75" font-family="Helvetica,sans-Serif" font-size="10.00">Queries.GetTaskById.GetTaskById</text>
<text xml:space="preserve" text-anchor="start" x="487.12" y="-51.5" font-family="Helvetica,sans-Serif" font-size="10.00">QueryHandler</text>
<text xml:space="preserve" text-anchor="start" x="515.62" y="-36.25" font-family="Helvetica,sans-Serif" font-size="10.00"> </text>
<text xml:space="preserve" text-anchor="start" x="445.44" y="-21" font-family="Helvetica,sans-Serif" font-size="10.00">+</text>
<text xml:space="preserve" text-anchor="start" x="460.62" y="-21" font-family="Helvetica,sans-Serif" font-size="10.00">GetTaskByIdQueryHandler()</text>
<text xml:space="preserve" text-anchor="start" x="445.44" y="-5.75" font-family="Helvetica,sans-Serif" font-size="10.00">+</text>
<text xml:space="preserve" text-anchor="start" x="460.62" y="-5.75" font-family="Helvetica,sans-Serif" font-size="10.00">Handle()</text>
<polygon fill="#666666" stroke="#666666" points="436.25,-47.75 436.25,-47.75 598,-47.75 598,-47.75 436.25,-47.75"/>
<polygon fill="#666666" stroke="#666666" points="436.25,-32.5 436.25,-32.5 598,-32.5 598,-32.5 436.25,-32.5"/>
<polygon fill="none" stroke="#666666" points="436.25,0 436.25,-87.5 598,-87.5 598,0 436.25,0"/>
</a>
</g>
</g>
<!-- Node1&#45;&gt;Node4 -->
<g id="edge3_Node000001_Node000004" class="edge">
<title>Node1&#45;&gt;Node4</title>
<g id="a_edge3_Node000001_Node000004"><a xlink:title=" ">
<path fill="none" stroke="#63b8ff" d="M363.52,-122.02C385.49,-110.97 411.81,-97.73 436.4,-85.36"/>
<polygon fill="none" stroke="#63b8ff" points="362.14,-118.8 354.78,-126.42 365.29,-125.05 362.14,-118.8"/>
</a>
</g>
</g>
</g>
</svg>
