<?xml version="1.0" encoding="UTF-8" standalone="no"?>
<!DOCTYPE svg PUBLIC "-//W3C//DTD SVG 1.1//EN"
 "http://www.w3.org/Graphics/SVG/1.1/DTD/svg11.dtd">
<!-- Generated by graphviz version 13.1.0 (20250701.0955)
 -->
<!-- Title: TaskManagement.Domain.Events.DomainEvent Pages: 1 -->
<svg width="698pt" height="212pt"
 viewBox="0.00 0.00 698.00 212.00" xmlns="http://www.w3.org/2000/svg" xmlns:xlink="http://www.w3.org/1999/xlink">
<g id="graph0" class="graph" transform="scale(1 1) rotate(0) translate(4 207.75)">
<title>TaskManagement.Domain.Events.DomainEvent</title>
<!-- Node1 -->
<g id="Node000001" class="node">
<title>Node1</title>
<g id="a_Node000001"><a xlink:title="DomainEvent es una clase base abstracta para todos los eventos de dominio en el sistema.">
<polygon fill="#999999" stroke="none" points="423.75,-203.75 265,-203.75 265,-127.5 423.75,-127.5 423.75,-203.75"/>
<text xml:space="preserve" text-anchor="start" x="269" y="-190.25" font-family="Helvetica,sans-Serif" font-size="10.00">TaskManagement.Domain.Events.</text>
<text xml:space="preserve" text-anchor="start" x="314.75" y="-179" font-family="Helvetica,sans-Serif" font-size="10.00">DomainEvent</text>
<text xml:space="preserve" text-anchor="start" x="291.06" y="-163.75" font-family="Helvetica,sans-Serif" font-size="10.00">+</text>
<text xml:space="preserve" text-anchor="start" x="323.12" y="-163.75" font-family="Helvetica,sans-Serif" font-size="10.00">Id</text>
<text xml:space="preserve" text-anchor="start" x="291.06" y="-148.5" font-family="Helvetica,sans-Serif" font-size="10.00">+</text>
<text xml:space="preserve" text-anchor="start" x="323.12" y="-148.5" font-family="Helvetica,sans-Serif" font-size="10.00">OccurredOn</text>
<text xml:space="preserve" text-anchor="start" x="342.88" y="-133.25" font-family="Helvetica,sans-Serif" font-size="10.00"> </text>
<polygon fill="#666666" stroke="#666666" points="265,-175.25 265,-175.25 423.75,-175.25 423.75,-175.25 265,-175.25"/>
<polygon fill="#666666" stroke="#666666" points="265,-144.75 265,-144.75 321.12,-144.75 321.12,-144.75 265,-144.75"/>
<polygon fill="#666666" stroke="#666666" points="321.12,-144.75 321.12,-144.75 423.75,-144.75 423.75,-144.75 321.12,-144.75"/>
<polygon fill="none" stroke="#666666" points="265,-127.5 265,-203.75 423.75,-203.75 423.75,-127.5 265,-127.5"/>
</a>
</g>
</g>
<!-- Node2 -->
<g id="Node000002" class="node">
<title>Node2</title>
<g id="a_Node000002"><a xlink:href="classTaskManagement_1_1Domain_1_1Events_1_1TaskAssignedEvent.html" target="_top" xlink:title=" ">
<polygon fill="white" stroke="none" points="158.75,-91.5 0,-91.5 0,0 158.75,0 158.75,-91.5"/>
<text xml:space="preserve" text-anchor="start" x="4" y="-78" font-family="Helvetica,sans-Serif" font-size="10.00">TaskManagement.Domain.Events.</text>
<text xml:space="preserve" text-anchor="start" x="35.88" y="-66.75" font-family="Helvetica,sans-Serif" font-size="10.00">TaskAssignedEvent</text>
<text xml:space="preserve" text-anchor="start" x="15.94" y="-51.5" font-family="Helvetica,sans-Serif" font-size="10.00">+</text>
<text xml:space="preserve" text-anchor="start" x="37.88" y="-51.5" font-family="Helvetica,sans-Serif" font-size="10.00">TaskId</text>
<text xml:space="preserve" text-anchor="start" x="15.94" y="-36.25" font-family="Helvetica,sans-Serif" font-size="10.00">+</text>
<text xml:space="preserve" text-anchor="start" x="37.88" y="-36.25" font-family="Helvetica,sans-Serif" font-size="10.00">AssignedTo</text>
<text xml:space="preserve" text-anchor="start" x="15.94" y="-21" font-family="Helvetica,sans-Serif" font-size="10.00">+</text>
<text xml:space="preserve" text-anchor="start" x="37.88" y="-21" font-family="Helvetica,sans-Serif" font-size="10.00">PreviousAssignee</text>
<text xml:space="preserve" text-anchor="start" x="15.94" y="-5.75" font-family="Helvetica,sans-Serif" font-size="10.00">+</text>
<text xml:space="preserve" text-anchor="start" x="37.88" y="-5.75" font-family="Helvetica,sans-Serif" font-size="10.00">TaskAssignedEvent()</text>
<polygon fill="#bfbfbf" stroke="#bfbfbf" points="0,-63 0,-63 158.75,-63 158.75,-63 0,-63"/>
<polygon fill="#bfbfbf" stroke="#bfbfbf" points="0,-17.25 0,-17.25 35.88,-17.25 35.88,-17.25 0,-17.25"/>
<polygon fill="#bfbfbf" stroke="#bfbfbf" points="35.88,-17.25 35.88,-17.25 158.75,-17.25 158.75,-17.25 35.88,-17.25"/>
<polygon fill="none" stroke="#bfbfbf" points="0,0 0,-91.5 158.75,-91.5 158.75,0 0,0"/>
</a>
</g>
</g>
<!-- Node1&#45;&gt;Node2 -->
<g id="edge1_Node000001_Node000002" class="edge">
<title>Node1&#45;&gt;Node2</title>
<g id="a_edge1_Node000001_Node000002"><a xlink:title=" ">
<path fill="none" stroke="#63b8ff" d="M254.9,-128.91C227,-117.38 196.25,-104.28 168.38,-91.5 165.07,-89.99 161.71,-88.42 158.33,-86.82"/>
<polygon fill="none" stroke="#63b8ff" points="253.46,-132.1 264.04,-132.67 256.12,-125.63 253.46,-132.1"/>
</a>
</g>
</g>
<!-- Node3 -->
<g id="Node000003" class="node">
<title>Node3</title>
<g id="a_Node000003"><a xlink:href="classTaskManagement_1_1Domain_1_1Events_1_1TaskCompletedEvent.html" target="_top" xlink:title=" ">
<polygon fill="white" stroke="none" points="335.75,-83.88 177,-83.88 177,-7.62 335.75,-7.62 335.75,-83.88"/>
<text xml:space="preserve" text-anchor="start" x="181" y="-70.38" font-family="Helvetica,sans-Serif" font-size="10.00">TaskManagement.Domain.Events.</text>
<text xml:space="preserve" text-anchor="start" x="209.5" y="-59.12" font-family="Helvetica,sans-Serif" font-size="10.00">TaskCompletedEvent</text>
<text xml:space="preserve" text-anchor="start" x="191.25" y="-43.88" font-family="Helvetica,sans-Serif" font-size="10.00">+</text>
<text xml:space="preserve" text-anchor="start" x="211.5" y="-43.88" font-family="Helvetica,sans-Serif" font-size="10.00">TaskId</text>
<text xml:space="preserve" text-anchor="start" x="191.25" y="-28.62" font-family="Helvetica,sans-Serif" font-size="10.00">+</text>
<text xml:space="preserve" text-anchor="start" x="211.5" y="-28.62" font-family="Helvetica,sans-Serif" font-size="10.00">CompletedAt</text>
<text xml:space="preserve" text-anchor="start" x="191.25" y="-13.38" font-family="Helvetica,sans-Serif" font-size="10.00">+</text>
<text xml:space="preserve" text-anchor="start" x="211.5" y="-13.38" font-family="Helvetica,sans-Serif" font-size="10.00">TaskCompletedEvent()</text>
<polygon fill="#bfbfbf" stroke="#bfbfbf" points="177,-55.38 177,-55.38 335.75,-55.38 335.75,-55.38 177,-55.38"/>
<polygon fill="#bfbfbf" stroke="#bfbfbf" points="177,-24.88 177,-24.88 209.5,-24.88 209.5,-24.88 177,-24.88"/>
<polygon fill="#bfbfbf" stroke="#bfbfbf" points="209.5,-24.88 209.5,-24.88 335.75,-24.88 335.75,-24.88 209.5,-24.88"/>
<polygon fill="none" stroke="#bfbfbf" points="177,-7.62 177,-83.88 335.75,-83.88 335.75,-7.62 177,-7.62"/>
</a>
</g>
</g>
<!-- Node1&#45;&gt;Node3 -->
<g id="edge2_Node000001_Node000003" class="edge">
<title>Node1&#45;&gt;Node3</title>
<g id="a_edge2_Node000001_Node000003"><a xlink:title=" ">
<path fill="none" stroke="#63b8ff" d="M309.97,-118.54C301.32,-106.95 292.14,-94.66 283.88,-83.59"/>
<polygon fill="none" stroke="#63b8ff" points="307.08,-120.52 315.87,-126.44 312.69,-116.33 307.08,-120.52"/>
</a>
</g>
</g>
<!-- Node4 -->
<g id="Node000004" class="node">
<title>Node4</title>
<g id="a_Node000004"><a xlink:href="classTaskManagement_1_1Domain_1_1Events_1_1TaskCreatedEvent.html" target="_top" xlink:title=" ">
<polygon fill="white" stroke="none" points="512.75,-91.5 354,-91.5 354,0 512.75,0 512.75,-91.5"/>
<text xml:space="preserve" text-anchor="start" x="358" y="-78" font-family="Helvetica,sans-Serif" font-size="10.00">TaskManagement.Domain.Events.</text>
<text xml:space="preserve" text-anchor="start" x="392.88" y="-66.75" font-family="Helvetica,sans-Serif" font-size="10.00">TaskCreatedEvent</text>
<text xml:space="preserve" text-anchor="start" x="371.44" y="-51.5" font-family="Helvetica,sans-Serif" font-size="10.00">+</text>
<text xml:space="preserve" text-anchor="start" x="394.88" y="-51.5" font-family="Helvetica,sans-Serif" font-size="10.00">TaskId</text>
<text xml:space="preserve" text-anchor="start" x="371.44" y="-36.25" font-family="Helvetica,sans-Serif" font-size="10.00">+</text>
<text xml:space="preserve" text-anchor="start" x="394.88" y="-36.25" font-family="Helvetica,sans-Serif" font-size="10.00">Title</text>
<text xml:space="preserve" text-anchor="start" x="371.44" y="-21" font-family="Helvetica,sans-Serif" font-size="10.00">+</text>
<text xml:space="preserve" text-anchor="start" x="394.88" y="-21" font-family="Helvetica,sans-Serif" font-size="10.00">CreatedBy</text>
<text xml:space="preserve" text-anchor="start" x="371.44" y="-5.75" font-family="Helvetica,sans-Serif" font-size="10.00">+</text>
<text xml:space="preserve" text-anchor="start" x="394.88" y="-5.75" font-family="Helvetica,sans-Serif" font-size="10.00">TaskCreatedEvent()</text>
<polygon fill="#bfbfbf" stroke="#bfbfbf" points="354,-63 354,-63 512.75,-63 512.75,-63 354,-63"/>
<polygon fill="#bfbfbf" stroke="#bfbfbf" points="354,-17.25 354,-17.25 392.88,-17.25 392.88,-17.25 354,-17.25"/>
<polygon fill="#bfbfbf" stroke="#bfbfbf" points="392.88,-17.25 392.88,-17.25 512.75,-17.25 512.75,-17.25 392.88,-17.25"/>
<polygon fill="none" stroke="#bfbfbf" points="354,0 354,-91.5 512.75,-91.5 512.75,0 354,0"/>
</a>
</g>
</g>
<!-- Node1&#45;&gt;Node4 -->
<g id="edge3_Node000001_Node000004" class="edge">
<title>Node1&#45;&gt;Node4</title>
<g id="a_edge3_Node000001_Node000004"><a xlink:title=" ">
<path fill="none" stroke="#63b8ff" d="M379.16,-118.55C385.89,-109.64 392.93,-100.32 399.62,-91.45"/>
<polygon fill="none" stroke="#63b8ff" points="376.44,-116.35 373.2,-126.44 382.02,-120.57 376.44,-116.35"/>
</a>
</g>
</g>
<!-- Node5 -->
<g id="Node000005" class="node">
<title>Node5</title>
<g id="a_Node000005"><a xlink:href="classTaskManagement_1_1Domain_1_1Events_1_1TaskPriorityChangedEvent.html" target="_top" xlink:title=" ">
<polygon fill="white" stroke="none" points="689.75,-91.5 531,-91.5 531,0 689.75,0 689.75,-91.5"/>
<text xml:space="preserve" text-anchor="start" x="535" y="-78" font-family="Helvetica,sans-Serif" font-size="10.00">TaskManagement.Domain.Events.</text>
<text xml:space="preserve" text-anchor="start" x="552.25" y="-66.75" font-family="Helvetica,sans-Serif" font-size="10.00">TaskPriorityChangedEvent</text>
<text xml:space="preserve" text-anchor="start" x="539.62" y="-51.5" font-family="Helvetica,sans-Serif" font-size="10.00">+</text>
<text xml:space="preserve" text-anchor="start" x="554.25" y="-51.5" font-family="Helvetica,sans-Serif" font-size="10.00">TaskId</text>
<text xml:space="preserve" text-anchor="start" x="539.62" y="-36.25" font-family="Helvetica,sans-Serif" font-size="10.00">+</text>
<text xml:space="preserve" text-anchor="start" x="554.25" y="-36.25" font-family="Helvetica,sans-Serif" font-size="10.00">OldPriority</text>
<text xml:space="preserve" text-anchor="start" x="539.62" y="-21" font-family="Helvetica,sans-Serif" font-size="10.00">+</text>
<text xml:space="preserve" text-anchor="start" x="554.25" y="-21" font-family="Helvetica,sans-Serif" font-size="10.00">NewPriority</text>
<text xml:space="preserve" text-anchor="start" x="539.62" y="-5.75" font-family="Helvetica,sans-Serif" font-size="10.00">+</text>
<text xml:space="preserve" text-anchor="start" x="554.25" y="-5.75" font-family="Helvetica,sans-Serif" font-size="10.00">TaskPriorityChangedEvent()</text>
<polygon fill="#bfbfbf" stroke="#bfbfbf" points="531,-63 531,-63 689.75,-63 689.75,-63 531,-63"/>
<polygon fill="#bfbfbf" stroke="#bfbfbf" points="531,-17.25 531,-17.25 552.25,-17.25 552.25,-17.25 531,-17.25"/>
<polygon fill="#bfbfbf" stroke="#bfbfbf" points="552.25,-17.25 552.25,-17.25 689.75,-17.25 689.75,-17.25 552.25,-17.25"/>
<polygon fill="none" stroke="#bfbfbf" points="531,0 531,-91.5 689.75,-91.5 689.75,0 531,0"/>
</a>
</g>
</g>
<!-- Node1&#45;&gt;Node5 -->
<g id="edge4_Node000001_Node000005" class="edge">
<title>Node1&#45;&gt;Node5</title>
<g id="a_edge4_Node000001_Node000005"><a xlink:title=" ">
<path fill="none" stroke="#63b8ff" d="M433.97,-129.12C462.13,-117.55 493.22,-104.37 521.38,-91.5 524.68,-89.99 528.04,-88.43 531.42,-86.83"/>
<polygon fill="none" stroke="#63b8ff" points="432.67,-125.87 424.73,-132.89 435.32,-132.35 432.67,-125.87"/>
</a>
</g>
</g>
</g>
</svg>
