<?xml version="1.0" encoding="UTF-8" standalone="no"?>
<!DOCTYPE svg PUBLIC "-//W3C//DTD SVG 1.1//EN"
 "http://www.w3.org/Graphics/SVG/1.1/DTD/svg11.dtd">
<!-- Generated by graphviz version 13.1.0 (20250701.0955)
 -->
<!-- Title: TaskManagement.Domain.Exceptions.DomainException Pages: 1 -->
<svg width="185pt" height="185pt"
 viewBox="0.00 0.00 185.00 185.00" xmlns="http://www.w3.org/2000/svg" xmlns:xlink="http://www.w3.org/1999/xlink">
<g id="page0,1_graph0" class="graph" transform="scale(1 1) rotate(0) translate(4 181.25)">
<title>TaskManagement.Domain.Exceptions.DomainException</title>
<!-- Node1 -->
<g id="Node000001" class="node">
<title>Node1</title>
<g id="a_Node000001"><a xlink:title="DomainException es la clase de excepción base para todos los errores de capa de dominio.">
<polygon fill="#999999" stroke="none" points="176.75,-91.5 0,-91.5 0,0 176.75,0 176.75,-91.5"/>
<text xml:space="preserve" text-anchor="start" x="4" y="-78" font-family="Helvetica,sans-Serif" font-size="10.00">TaskManagement.Domain.Exceptions.</text>
<text xml:space="preserve" text-anchor="start" x="49.75" y="-66.75" font-family="Helvetica,sans-Serif" font-size="10.00">DomainException</text>
<text xml:space="preserve" text-anchor="start" x="86.88" y="-51.5" font-family="Helvetica,sans-Serif" font-size="10.00"> </text>
<text xml:space="preserve" text-anchor="start" x="22.88" y="-36.25" font-family="Helvetica,sans-Serif" font-size="10.00">+</text>
<text xml:space="preserve" text-anchor="start" x="51.75" y="-36.25" font-family="Helvetica,sans-Serif" font-size="10.00">DomainException()</text>
<text xml:space="preserve" text-anchor="start" x="22.88" y="-21" font-family="Helvetica,sans-Serif" font-size="10.00">+</text>
<text xml:space="preserve" text-anchor="start" x="51.75" y="-21" font-family="Helvetica,sans-Serif" font-size="10.00">DomainException()</text>
<text xml:space="preserve" text-anchor="start" x="22.88" y="-5.75" font-family="Helvetica,sans-Serif" font-size="10.00">+</text>
<text xml:space="preserve" text-anchor="start" x="51.75" y="-5.75" font-family="Helvetica,sans-Serif" font-size="10.00">DomainException()</text>
<polygon fill="#666666" stroke="#666666" points="0,-63 0,-63 176.75,-63 176.75,-63 0,-63"/>
<polygon fill="#666666" stroke="#666666" points="0,-47.75 0,-47.75 176.75,-47.75 176.75,-47.75 0,-47.75"/>
<polygon fill="none" stroke="#666666" points="0,0 0,-91.5 176.75,-91.5 176.75,0 0,0"/>
</a>
</g>
</g>
<!-- Node2 -->
<g id="Node000002" class="node">
<title>Node2</title>
<g id="a_Node000002"><a xlink:href="classException.html" target="_top" xlink:title=" ">
<polygon fill="white" stroke="none" points="114.12,-177.25 62.62,-177.25 62.62,-127.5 114.12,-127.5 114.12,-177.25"/>
<text xml:space="preserve" text-anchor="start" x="66.62" y="-163.75" font-family="Helvetica,sans-Serif" font-size="10.00">Exception</text>
<text xml:space="preserve" text-anchor="start" x="86.88" y="-148.5" font-family="Helvetica,sans-Serif" font-size="10.00"> </text>
<text xml:space="preserve" text-anchor="start" x="86.88" y="-133.25" font-family="Helvetica,sans-Serif" font-size="10.00"> </text>
<polygon fill="#666666" stroke="#666666" points="62.62,-160 62.62,-160 114.12,-160 114.12,-160 62.62,-160"/>
<polygon fill="#666666" stroke="#666666" points="62.62,-144.75 62.62,-144.75 114.12,-144.75 114.12,-144.75 62.62,-144.75"/>
<polygon fill="none" stroke="#666666" points="62.62,-127.5 62.62,-177.25 114.12,-177.25 114.12,-127.5 62.62,-127.5"/>
</a>
</g>
</g>
<!-- Node2&#45;&gt;Node1 -->
<g id="edge1_Node000001_Node000002" class="edge">
<title>Node2&#45;&gt;Node1</title>
<g id="a_edge1_Node000001_Node000002"><a xlink:title=" ">
<path fill="none" stroke="#63b8ff" d="M88.38,-116.15C88.38,-108.2 88.38,-99.67 88.38,-91.4"/>
<polygon fill="none" stroke="#63b8ff" points="84.88,-116.12 88.38,-126.12 91.88,-116.12 84.88,-116.12"/>
</a>
</g>
</g>
</g>
</svg>
