<?xml version="1.0" encoding="UTF-8" standalone="no"?>
<!DOCTYPE svg PUBLIC "-//W3C//DTD SVG 1.1//EN"
 "http://www.w3.org/Graphics/SVG/1.1/DTD/svg11.dtd">
<!-- Generated by graphviz version 13.1.0 (20250701.0955)
 -->
<!-- Title: TaskManagement.Domain.Common.Result&lt; T &gt; Pages: 1 -->
<svg width="176pt" height="288pt"
 viewBox="0.00 0.00 176.00 288.00" xmlns="http://www.w3.org/2000/svg" xmlns:xlink="http://www.w3.org/1999/xlink">
<g id="graph0" class="graph" transform="scale(1 1) rotate(0) translate(4 284)">
<title>TaskManagement.Domain.Common.Result&lt; T &gt;</title>
<!-- Node1 -->
<g id="Node000001" class="node">
<title>Node1</title>
<g id="a_Node000001"><a xlink:title="Result{T} es un tipo de unión discriminada genérico para operaciones que devuelven un valor en caso d...">
<polygon fill="#999999" stroke="none" points="167.75,-61 0,-61 0,0 167.75,0 167.75,-61"/>
<text xml:space="preserve" text-anchor="start" x="4" y="-47.5" font-family="Helvetica,sans-Serif" font-size="10.00">TaskManagement.Domain.Common.</text>
<text xml:space="preserve" text-anchor="start" x="57.62" y="-36.25" font-family="Helvetica,sans-Serif" font-size="10.00">Result&lt; T &gt;</text>
<text xml:space="preserve" text-anchor="start" x="20.06" y="-21" font-family="Helvetica,sans-Serif" font-size="10.00">+</text>
<text xml:space="preserve" text-anchor="start" x="46.12" y="-21" font-family="Helvetica,sans-Serif" font-size="10.00">Value</text>
<text xml:space="preserve" text-anchor="start" x="20.06" y="-5.75" font-family="Helvetica,sans-Serif" font-size="10.00">+</text>
<text xml:space="preserve" text-anchor="start" x="46.12" y="-5.75" font-family="Helvetica,sans-Serif" font-size="10.00">Match&lt; TResult &gt;()</text>
<polygon fill="#666666" stroke="#666666" points="0,-32.5 0,-32.5 167.75,-32.5 167.75,-32.5 0,-32.5"/>
<polygon fill="#666666" stroke="#666666" points="0,-17.25 0,-17.25 44.12,-17.25 44.12,-17.25 0,-17.25"/>
<polygon fill="#666666" stroke="#666666" points="44.12,-17.25 44.12,-17.25 167.75,-17.25 167.75,-17.25 44.12,-17.25"/>
<polygon fill="none" stroke="#666666" points="0,0 0,-61 167.75,-61 167.75,0 0,0"/>
</a>
</g>
</g>
<!-- Node2 -->
<g id="Node000002" class="node">
<title>Node2</title>
<g id="a_Node000002"><a xlink:href="classTaskManagement_1_1Domain_1_1Common_1_1Result.html" target="_top" xlink:title="Result es un tipo de unión discriminada que implementa el patrón Result para manejo de errores.">
<polygon fill="white" stroke="none" points="167.75,-280 0,-280 0,-97 167.75,-97 167.75,-280"/>
<text xml:space="preserve" text-anchor="start" x="4" y="-266.5" font-family="Helvetica,sans-Serif" font-size="10.00">TaskManagement.Domain.Common.</text>
<text xml:space="preserve" text-anchor="start" x="69.62" y="-255.25" font-family="Helvetica,sans-Serif" font-size="10.00">Result</text>
<text xml:space="preserve" text-anchor="start" x="24.38" y="-240" font-family="Helvetica,sans-Serif" font-size="10.00">+</text>
<text xml:space="preserve" text-anchor="start" x="54.75" y="-240" font-family="Helvetica,sans-Serif" font-size="10.00">IsSuccess</text>
<text xml:space="preserve" text-anchor="start" x="24.38" y="-224.75" font-family="Helvetica,sans-Serif" font-size="10.00">+</text>
<text xml:space="preserve" text-anchor="start" x="54.75" y="-224.75" font-family="Helvetica,sans-Serif" font-size="10.00">IsFailure</text>
<text xml:space="preserve" text-anchor="start" x="24.38" y="-209.5" font-family="Helvetica,sans-Serif" font-size="10.00">+</text>
<text xml:space="preserve" text-anchor="start" x="54.75" y="-209.5" font-family="Helvetica,sans-Serif" font-size="10.00">Errors</text>
<text xml:space="preserve" text-anchor="start" x="24.38" y="-194.25" font-family="Helvetica,sans-Serif" font-size="10.00">+</text>
<text xml:space="preserve" text-anchor="start" x="54.75" y="-194.25" font-family="Helvetica,sans-Serif" font-size="10.00">Success()</text>
<text xml:space="preserve" text-anchor="start" x="24.38" y="-179" font-family="Helvetica,sans-Serif" font-size="10.00">+</text>
<text xml:space="preserve" text-anchor="start" x="54.75" y="-179" font-family="Helvetica,sans-Serif" font-size="10.00">Failure()</text>
<text xml:space="preserve" text-anchor="start" x="24.38" y="-163.75" font-family="Helvetica,sans-Serif" font-size="10.00">+</text>
<text xml:space="preserve" text-anchor="start" x="54.75" y="-163.75" font-family="Helvetica,sans-Serif" font-size="10.00">Failure()</text>
<text xml:space="preserve" text-anchor="start" x="24.38" y="-148.5" font-family="Helvetica,sans-Serif" font-size="10.00">+</text>
<text xml:space="preserve" text-anchor="start" x="54.75" y="-148.5" font-family="Helvetica,sans-Serif" font-size="10.00">Success&lt; T &gt;()</text>
<text xml:space="preserve" text-anchor="start" x="24.38" y="-133.25" font-family="Helvetica,sans-Serif" font-size="10.00">+</text>
<text xml:space="preserve" text-anchor="start" x="54.75" y="-133.25" font-family="Helvetica,sans-Serif" font-size="10.00">Failure&lt; T &gt;()</text>
<text xml:space="preserve" text-anchor="start" x="24.38" y="-118" font-family="Helvetica,sans-Serif" font-size="10.00">+</text>
<text xml:space="preserve" text-anchor="start" x="54.75" y="-118" font-family="Helvetica,sans-Serif" font-size="10.00">Failure&lt; T &gt;()</text>
<text xml:space="preserve" text-anchor="start" x="24.75" y="-102.75" font-family="Helvetica,sans-Serif" font-size="10.00">#</text>
<text xml:space="preserve" text-anchor="start" x="54.75" y="-102.75" font-family="Helvetica,sans-Serif" font-size="10.00">Result()</text>
<polygon fill="#666666" stroke="#666666" points="0,-251.5 0,-251.5 167.75,-251.5 167.75,-251.5 0,-251.5"/>
<polygon fill="#666666" stroke="#666666" points="0,-205.75 0,-205.75 52.75,-205.75 52.75,-205.75 0,-205.75"/>
<polygon fill="#666666" stroke="#666666" points="52.75,-205.75 52.75,-205.75 167.75,-205.75 167.75,-205.75 52.75,-205.75"/>
<polygon fill="none" stroke="#666666" points="0,-97 0,-280 167.75,-280 167.75,-97 0,-97"/>
</a>
</g>
</g>
<!-- Node2&#45;&gt;Node1 -->
<g id="edge1_Node000001_Node000002" class="edge">
<title>Node2&#45;&gt;Node1</title>
<g id="a_edge1_Node000001_Node000002"><a xlink:title=" ">
<path fill="none" stroke="#63b8ff" d="M83.88,-85.73C83.88,-76.83 83.88,-68.39 83.88,-60.93"/>
<polygon fill="none" stroke="#63b8ff" points="80.38,-85.69 83.88,-95.69 87.38,-85.69 80.38,-85.69"/>
</a>
</g>
</g>
</g>
</svg>
