<?xml version="1.0" encoding="UTF-8" standalone="no"?>
<!DOCTYPE svg PUBLIC "-//W3C//DTD SVG 1.1//EN"
 "http://www.w3.org/Graphics/SVG/1.1/DTD/svg11.dtd">
<!-- Generated by graphviz version 13.1.0 (20250701.0955)
 -->
<!-- Title: IPipelineBehavior Pages: 1 -->
<svg width="147pt" height="181pt"
 viewBox="0.00 0.00 147.00 181.00" xmlns="http://www.w3.org/2000/svg" xmlns:xlink="http://www.w3.org/1999/xlink">

<svg id="main" version="1.1" xmlns="http://www.w3.org/2000/svg" xmlns:xlink="http://www.w3.org/1999/xlink" xml:space="preserve">

<style type="text/css"><![CDATA[
.node, .edge {opacity: 0.7;}
.node.selected, .edge.selected {opacity: 1;}
.edge:hover path { stroke: red; }
.edge:hover polygon { stroke: red; fill: red; }
]]></style>
<script type="application/ecmascript" xlink:href="svg.min.js"/>
<svg id="graph" class="graph">
<g id="graph0" class="graph" transform="scale(1 1) rotate(0) translate(4 177.25)">
<title>IPipelineBehavior</title>
<!-- Node1 -->
<g id="Node000001" class="node">
<title>Node1</title>
<g id="a_Node000001"><a xlink:title=" ">
<polygon fill="#999999" stroke="none" points="111.5,-173.25 27.75,-173.25 27.75,-123.5 111.5,-123.5 111.5,-173.25"/>
<text xml:space="preserve" text-anchor="start" x="31.75" y="-159.75" font-family="Helvetica,sans-Serif" font-size="10.00">IPipelineBehavior</text>
<text xml:space="preserve" text-anchor="start" x="68.12" y="-144.5" font-family="Helvetica,sans-Serif" font-size="10.00"> </text>
<text xml:space="preserve" text-anchor="start" x="68.12" y="-129.25" font-family="Helvetica,sans-Serif" font-size="10.00"> </text>
<polygon fill="#666666" stroke="#666666" points="27.75,-156 27.75,-156 111.5,-156 111.5,-156 27.75,-156"/>
<polygon fill="#666666" stroke="#666666" points="27.75,-140.75 27.75,-140.75 111.5,-140.75 111.5,-140.75 27.75,-140.75"/>
<polygon fill="none" stroke="#666666" points="27.75,-123.5 27.75,-173.25 111.5,-173.25 111.5,-123.5 27.75,-123.5"/>
</a>
</g>
</g>
<!-- Node2 -->
<g id="Node000002" class="node">
<title>Node2</title>
<g id="a_Node000002"><a xlink:href="classTaskManagement_1_1Application_1_1Behaviors_1_1ValidationBehavior-2-g.html" target="_top" xlink:title="ValidationBehavior es un comportamiento de pipeline de MediatR para validar comandos y consultas.">
<polygon fill="white" stroke="none" points="139.25,-87.5 0,-87.5 0,0 139.25,0 139.25,-87.5"/>
<text xml:space="preserve" text-anchor="start" x="4" y="-74" font-family="Helvetica,sans-Serif" font-size="10.00">TaskManagement.Application.</text>
<text xml:space="preserve" text-anchor="start" x="4" y="-62.75" font-family="Helvetica,sans-Serif" font-size="10.00">Behaviors.ValidationBehavior</text>
<text xml:space="preserve" text-anchor="start" x="11.12" y="-51.5" font-family="Helvetica,sans-Serif" font-size="10.00">&lt; TRequest, TResponse &gt;</text>
<text xml:space="preserve" text-anchor="start" x="68.12" y="-36.25" font-family="Helvetica,sans-Serif" font-size="10.00"> </text>
<text xml:space="preserve" text-anchor="start" x="12.75" y="-21" font-family="Helvetica,sans-Serif" font-size="10.00">+</text>
<text xml:space="preserve" text-anchor="start" x="31.5" y="-21" font-family="Helvetica,sans-Serif" font-size="10.00">ValidationBehavior()</text>
<text xml:space="preserve" text-anchor="start" x="12.75" y="-5.75" font-family="Helvetica,sans-Serif" font-size="10.00">+</text>
<text xml:space="preserve" text-anchor="start" x="31.5" y="-5.75" font-family="Helvetica,sans-Serif" font-size="10.00">Handle()</text>
<polygon fill="#666666" stroke="#666666" points="0,-47.75 0,-47.75 139.25,-47.75 139.25,-47.75 0,-47.75"/>
<polygon fill="#666666" stroke="#666666" points="0,-32.5 0,-32.5 139.25,-32.5 139.25,-32.5 0,-32.5"/>
<polygon fill="none" stroke="#666666" points="0,0 0,-87.5 139.25,-87.5 139.25,0 0,0"/>
</a>
</g>
</g>
<!-- Node1&#45;&gt;Node2 -->
<g id="edge1_Node000001_Node000002" class="edge">
<title>Node1&#45;&gt;Node2</title>
<g id="a_edge1_Node000001_Node000002"><a xlink:title=" ">
<path fill="none" stroke="#63b8ff" d="M69.62,-112.33C69.62,-104.29 69.62,-95.66 69.62,-87.34"/>
<polygon fill="none" stroke="#63b8ff" points="66.13,-112.06 69.63,-122.06 73.13,-112.06 66.13,-112.06"/>
</a>
</g>
</g>
</g>
</svg>
</svg>

<style type='text/css'>
<![CDATA[
[data-mouse-over-selected='false'] { opacity: 0.7; }
[data-mouse-over-selected='true']  { opacity: 1.0; }
]]>
</style>
<script type="application/ecmascript"><![CDATA[
document.addEventListener('DOMContentLoaded', (event) => {
  highlightEdges();
  highlightAdjacentNodes();
});
]]></script>
</svg>
