<?xml version="1.0" encoding="UTF-8" standalone="no"?>
<!DOCTYPE svg PUBLIC "-//W3C//DTD SVG 1.1//EN"
 "http://www.w3.org/Graphics/SVG/1.1/DTD/svg11.dtd">
<!-- Generated by graphviz version 13.1.0 (20250701.0955)
 -->
<!-- Title: IRequestHandler Pages: 1 -->
<!--zoomable 181 -->

<svg id="main" version="1.1" xmlns="http://www.w3.org/2000/svg" xmlns:xlink="http://www.w3.org/1999/xlink" xml:space="preserve" onload="init(evt)">

<style type="text/css"><![CDATA[
.node, .edge {opacity: 0.7;}
.node.selected, .edge.selected {opacity: 1;}
.edge:hover path { stroke: red; }
.edge:hover polygon { stroke: red; fill: red; }
]]></style>

<defs>
  <circle id="rim" cx="0" cy="0" r="7"/>
  <circle id="rim2" cx="0" cy="0" r="3.5"/>
  <g id="zoomPlus">
    <use xlink:href="#rim" fill="#404040"><set attributeName="fill" to="#808080" begin="zoomplus.mouseover" end="zoomplus.mouseout"/></use>
    <path d="M-4,0h8M0,-4v8" fill="none" stroke="white" stroke-width="1.5" pointer-events="none"/>
  </g>
  <g id="zoomMin">
    <use xlink:href="#rim" fill="#404040"><set attributeName="fill" to="#808080" begin="zoomminus.mouseover" end="zoomminus.mouseout"/></use>
    <path d="M-4,0h8" fill="none" stroke="white" stroke-width="1.5" pointer-events="none"/>
  </g>
  <g id="arrowUp" transform="translate(30 24)">
    <use xlink:href="#rim"/>
    <path pointer-events="none" fill="none" stroke="white" stroke-width="1.5" d="M0,-3.0v7 M-2.5,-0.5L0,-3.0L2.5,-0.5"/>
  </g>
  <g id="arrowRight" transform="rotate(90) translate(36 -43)">
    <use xlink:href="#rim"/>
    <path pointer-events="none" fill="none" stroke="white" stroke-width="1.5" d="M0,-3.0v7 M-2.5,-0.5L0,-3.0L2.5,-0.5"/>
  </g>
  <g id="arrowDown" transform="rotate(180) translate(-30 -48)">
    <use xlink:href="#rim"/>
    <path pointer-events="none" fill="none" stroke="white" stroke-width="1.5" d="M0,-3.0v7 M-2.5,-0.5L0,-3.0L2.5,-0.5"/>
  </g>
  <g id="arrowLeft" transform="rotate(270) translate(-36 17)">
    <use xlink:href="#rim"/>
    <path pointer-events="none" fill="none" stroke="white" stroke-width="1.5" d="M0,-3.0v7 M-2.5,-0.5L0,-3.0L2.5,-0.5"/>
  </g>
  <g id="resetDef">
    <use xlink:href="#rim2" fill="#404040"><set attributeName="fill" to="#808080" begin="reset.mouseover" end="reset.mouseout"/></use>
  </g>
</defs>
<script type="application/ecmascript">
var viewWidth = 606;
var viewHeight = 181;
var sectionId = 'dynsection-0';
</script>
<script type="application/ecmascript" xlink:href="svg.min.js"/>
<svg id="graph" class="graph">
<g id="viewport">
<title>IRequestHandler</title>
<!-- Node1 -->
<g id="Node000001" class="node">
<title>Node1</title>
<g id="a_Node000001"><a xlink:title=" ">
<polygon fill="#999999" stroke="none" points="353.88,-173.25 272.38,-173.25 272.38,-123.5 353.88,-123.5 353.88,-173.25"/>
<text xml:space="preserve" text-anchor="start" x="276.38" y="-159.75" font-family="Helvetica,sans-Serif" font-size="10.00">IRequestHandler</text>
<text xml:space="preserve" text-anchor="start" x="311.62" y="-144.5" font-family="Helvetica,sans-Serif" font-size="10.00"> </text>
<text xml:space="preserve" text-anchor="start" x="311.62" y="-129.25" font-family="Helvetica,sans-Serif" font-size="10.00"> </text>
<polygon fill="#666666" stroke="#666666" points="272.38,-156 272.38,-156 353.88,-156 353.88,-156 272.38,-156"/>
<polygon fill="#666666" stroke="#666666" points="272.38,-140.75 272.38,-140.75 353.88,-140.75 353.88,-140.75 272.38,-140.75"/>
<polygon fill="none" stroke="#666666" points="272.38,-123.5 272.38,-173.25 353.88,-173.25 353.88,-123.5 272.38,-123.5"/>
</a>
</g>
</g>
<!-- Node2 -->
<g id="Node000002" class="node">
<title>Node2</title>
<g id="a_Node000002"><a xlink:href="classTaskManagement_1_1Application_1_1Commands_1_1CompleteTask_1_1CompleteTaskCommandHandler.html" target="_top" xlink:title="CompleteTaskCommand encapsula la solicitud de marcar una tarea como completada.">
<polygon fill="white" stroke="none" points="190.25,-87.5 0,-87.5 0,0 190.25,0 190.25,-87.5"/>
<text xml:space="preserve" text-anchor="start" x="4" y="-74" font-family="Helvetica,sans-Serif" font-size="10.00">TaskManagement.Application.</text>
<text xml:space="preserve" text-anchor="start" x="4" y="-62.75" font-family="Helvetica,sans-Serif" font-size="10.00">Commands.CompleteTask.CompleteTask</text>
<text xml:space="preserve" text-anchor="start" x="55.75" y="-51.5" font-family="Helvetica,sans-Serif" font-size="10.00">CommandHandler</text>
<text xml:space="preserve" text-anchor="start" x="93.62" y="-36.25" font-family="Helvetica,sans-Serif" font-size="10.00"> </text>
<text xml:space="preserve" text-anchor="start" x="10.12" y="-21" font-family="Helvetica,sans-Serif" font-size="10.00">+</text>
<text xml:space="preserve" text-anchor="start" x="26.25" y="-21" font-family="Helvetica,sans-Serif" font-size="10.00">CompleteTaskCommandHandler()</text>
<text xml:space="preserve" text-anchor="start" x="10.12" y="-5.75" font-family="Helvetica,sans-Serif" font-size="10.00">+</text>
<text xml:space="preserve" text-anchor="start" x="26.25" y="-5.75" font-family="Helvetica,sans-Serif" font-size="10.00">Handle()</text>
<polygon fill="#666666" stroke="#666666" points="0,-47.75 0,-47.75 190.25,-47.75 190.25,-47.75 0,-47.75"/>
<polygon fill="#666666" stroke="#666666" points="0,-32.5 0,-32.5 190.25,-32.5 190.25,-32.5 0,-32.5"/>
<polygon fill="none" stroke="#666666" points="0,0 0,-87.5 190.25,-87.5 190.25,0 0,0"/>
</a>
</g>
</g>
<!-- Node1&#45;&gt;Node2 -->
<g id="edge1_Node000001_Node000002" class="edge">
<title>Node1&#45;&gt;Node2</title>
<g id="a_edge1_Node000001_Node000002"><a xlink:title=" ">
<path fill="none" stroke="#63b8ff" d="M261.96,-123.29C239.25,-112.6 211.82,-99.69 185.82,-87.45"/>
<polygon fill="none" stroke="#63b8ff" points="260.47,-126.46 271.01,-127.55 263.45,-120.12 260.47,-126.46"/>
</a>
</g>
</g>
<!-- Node3 -->
<g id="Node000003" class="node">
<title>Node3</title>
<g id="a_Node000003"><a xlink:href="classTaskManagement_1_1Application_1_1Commands_1_1CreateTask_1_1CreateTaskCommandHandler.html" target="_top" xlink:title="CreateTaskCommand encapsula la solicitud de creación de una nueva tarea.">
<polygon fill="white" stroke="none" points="418,-87.5 208.25,-87.5 208.25,0 418,0 418,-87.5"/>
<text xml:space="preserve" text-anchor="start" x="212.25" y="-74" font-family="Helvetica,sans-Serif" font-size="10.00">TaskManagement.Application.</text>
<text xml:space="preserve" text-anchor="start" x="212.25" y="-62.75" font-family="Helvetica,sans-Serif" font-size="10.00">Commands.CreateTask.CreateTaskCommand</text>
<text xml:space="preserve" text-anchor="start" x="296.25" y="-51.5" font-family="Helvetica,sans-Serif" font-size="10.00">Handler</text>
<text xml:space="preserve" text-anchor="start" x="311.62" y="-36.25" font-family="Helvetica,sans-Serif" font-size="10.00"> </text>
<text xml:space="preserve" text-anchor="start" x="226.44" y="-21" font-family="Helvetica,sans-Serif" font-size="10.00">+</text>
<text xml:space="preserve" text-anchor="start" x="250.62" y="-21" font-family="Helvetica,sans-Serif" font-size="10.00">CreateTaskCommandHandler()</text>
<text xml:space="preserve" text-anchor="start" x="226.44" y="-5.75" font-family="Helvetica,sans-Serif" font-size="10.00">+</text>
<text xml:space="preserve" text-anchor="start" x="250.62" y="-5.75" font-family="Helvetica,sans-Serif" font-size="10.00">Handle()</text>
<polygon fill="#666666" stroke="#666666" points="208.25,-47.75 208.25,-47.75 418,-47.75 418,-47.75 208.25,-47.75"/>
<polygon fill="#666666" stroke="#666666" points="208.25,-32.5 208.25,-32.5 418,-32.5 418,-32.5 208.25,-32.5"/>
<polygon fill="none" stroke="#666666" points="208.25,0 208.25,-87.5 418,-87.5 418,0 208.25,0"/>
</a>
</g>
</g>
<!-- Node1&#45;&gt;Node3 -->
<g id="edge2_Node000001_Node000003" class="edge">
<title>Node1&#45;&gt;Node3</title>
<g id="a_edge2_Node000001_Node000003"><a xlink:title=" ">
<path fill="none" stroke="#63b8ff" d="M313.12,-112.33C313.12,-104.29 313.12,-95.66 313.12,-87.34"/>
<polygon fill="none" stroke="#63b8ff" points="309.63,-112.06 313.13,-122.06 316.63,-112.06 309.63,-112.06"/>
</a>
</g>
</g>
<!-- Node4 -->
<g id="Node000004" class="node">
<title>Node4</title>
<g id="a_Node000004"><a xlink:href="classTaskManagement_1_1Application_1_1Queries_1_1GetTaskById_1_1GetTaskByIdQueryHandler.html" target="_top" xlink:title="GetTaskByIdQuery encapsula una solicitud para recuperar una sola tarea por ID.">
<polygon fill="white" stroke="none" points="598,-87.5 436.25,-87.5 436.25,0 598,0 598,-87.5"/>
<text xml:space="preserve" text-anchor="start" x="440.25" y="-74" font-family="Helvetica,sans-Serif" font-size="10.00">TaskManagement.Application.</text>
<text xml:space="preserve" text-anchor="start" x="440.25" y="-62.75" font-family="Helvetica,sans-Serif" font-size="10.00">Queries.GetTaskById.GetTaskById</text>
<text xml:space="preserve" text-anchor="start" x="487.12" y="-51.5" font-family="Helvetica,sans-Serif" font-size="10.00">QueryHandler</text>
<text xml:space="preserve" text-anchor="start" x="515.62" y="-36.25" font-family="Helvetica,sans-Serif" font-size="10.00"> </text>
<text xml:space="preserve" text-anchor="start" x="445.44" y="-21" font-family="Helvetica,sans-Serif" font-size="10.00">+</text>
<text xml:space="preserve" text-anchor="start" x="460.62" y="-21" font-family="Helvetica,sans-Serif" font-size="10.00">GetTaskByIdQueryHandler()</text>
<text xml:space="preserve" text-anchor="start" x="445.44" y="-5.75" font-family="Helvetica,sans-Serif" font-size="10.00">+</text>
<text xml:space="preserve" text-anchor="start" x="460.62" y="-5.75" font-family="Helvetica,sans-Serif" font-size="10.00">Handle()</text>
<polygon fill="#666666" stroke="#666666" points="436.25,-47.75 436.25,-47.75 598,-47.75 598,-47.75 436.25,-47.75"/>
<polygon fill="#666666" stroke="#666666" points="436.25,-32.5 436.25,-32.5 598,-32.5 598,-32.5 436.25,-32.5"/>
<polygon fill="none" stroke="#666666" points="436.25,0 436.25,-87.5 598,-87.5 598,0 436.25,0"/>
</a>
</g>
</g>
<!-- Node1&#45;&gt;Node4 -->
<g id="edge3_Node000001_Node000004" class="edge">
<title>Node1&#45;&gt;Node4</title>
<g id="a_edge3_Node000001_Node000004"><a xlink:title=" ">
<path fill="none" stroke="#63b8ff" d="M363.52,-122.02C385.49,-110.97 411.81,-97.73 436.4,-85.36"/>
<polygon fill="none" stroke="#63b8ff" points="362.14,-118.8 354.78,-126.42 365.29,-125.05 362.14,-118.8"/>
</a>
</g>
</g>
</g>
</svg>

<g id="navigator" transform="translate(0 0)" fill="#404254">
  <rect fill="#f2f5e9" fill-opacity="0.5" stroke="#606060" stroke-width=".5" x="0" y="0" width="60" height="60"/>
  <use id="zoomplus" xlink:href="#zoomPlus" x="17" y="9" onmousedown="handleZoom(evt,'in')"/>
  <use id="zoomminus" xlink:href="#zoomMin" x="42" y="9" onmousedown="handleZoom(evt,'out')"/>
  <use id="reset" xlink:href="#resetDef" x="30" y="36" onmousedown="handleReset()"/>
   <use id="arrowup" xlink:href="#arrowUp" x="0" y="0" onmousedown="handlePan(0,-1)"/>
  <use id="arrowright" xlink:href="#arrowRight" x="0" y="0" onmousedown="handlePan(1,0)"/>
  <use id="arrowdown" xlink:href="#arrowDown" x="0" y="0" onmousedown="handlePan(0,1)"/>
  <use id="arrowleft" xlink:href="#arrowLeft" x="0" y="0" onmousedown="handlePan(-1,0)"/>
</g>
<svg viewBox="0 0 15 15" width="100%" height="30px" preserveAspectRatio="xMaxYMin meet">
 <g id="arrow_out" transform="scale(0.3 0.3)">
  <a xlink:href="classIRequestHandler-2-g__inherit__graph_org.svg" target="_base">
   <rect id="button" ry="5" rx="5" y="6" x="6" height="38" width="38"
        fill="#f2f5e9" fill-opacity="0.5" stroke="#606060" stroke-width="1.0"/>
   <path id="arrow"
     d="M 11.500037,31.436501 C 11.940474,20.09759 22.043105,11.32322 32.158766,21.979434 L 37.068811,17.246167 C 37.068811,17.246167 37.088388,32 37.088388,32 L 22.160133,31.978069 C 22.160133,31.978069 26.997745,27.140456 26.997745,27.140456 C 18.528582,18.264221 13.291696,25.230495 11.500037,31.436501 z"
     style="fill:#404040;"/>
  </a>
 </g>
</svg>

<style type='text/css'>
<![CDATA[
[data-mouse-over-selected='false'] { opacity: 0.7; }
[data-mouse-over-selected='true']  { opacity: 1.0; }
]]>
</style>
<script type="application/ecmascript"><![CDATA[
document.addEventListener('DOMContentLoaded', (event) => {
  highlightEdges();
  highlightAdjacentNodes();
});
]]></script>
</svg>
