<?xml version="1.0" encoding="UTF-8" standalone="no"?>
<!DOCTYPE svg PUBLIC "-//W3C//DTD SVG 1.1//EN"
 "http://www.w3.org/Graphics/SVG/1.1/DTD/svg11.dtd">
<!-- Generated by graphviz version 13.1.0 (20250701.0955)
 -->
<!-- Title: /Users/fmachado/Repos/ANDIS_CleanArchitecture_Demo/src/TaskManagement.Domain Pages: 1 -->
<!--zoomable 95 -->

<svg id="main" version="1.1" xmlns="http://www.w3.org/2000/svg" xmlns:xlink="http://www.w3.org/1999/xlink" xml:space="preserve" onload="init(evt)">

<style type="text/css"><![CDATA[
.node, .edge {opacity: 0.7;}
.node.selected, .edge.selected {opacity: 1;}
.edge:hover path { stroke: red; }
.edge:hover polygon { stroke: red; fill: red; }
]]></style>

<defs>
  <circle id="rim" cx="0" cy="0" r="7"/>
  <circle id="rim2" cx="0" cy="0" r="3.5"/>
  <g id="zoomPlus">
    <use xlink:href="#rim" fill="#404040"><set attributeName="fill" to="#808080" begin="zoomplus.mouseover" end="zoomplus.mouseout"/></use>
    <path d="M-4,0h8M0,-4v8" fill="none" stroke="white" stroke-width="1.5" pointer-events="none"/>
  </g>
  <g id="zoomMin">
    <use xlink:href="#rim" fill="#404040"><set attributeName="fill" to="#808080" begin="zoomminus.mouseover" end="zoomminus.mouseout"/></use>
    <path d="M-4,0h8" fill="none" stroke="white" stroke-width="1.5" pointer-events="none"/>
  </g>
  <g id="arrowUp" transform="translate(30 24)">
    <use xlink:href="#rim"/>
    <path pointer-events="none" fill="none" stroke="white" stroke-width="1.5" d="M0,-3.0v7 M-2.5,-0.5L0,-3.0L2.5,-0.5"/>
  </g>
  <g id="arrowRight" transform="rotate(90) translate(36 -43)">
    <use xlink:href="#rim"/>
    <path pointer-events="none" fill="none" stroke="white" stroke-width="1.5" d="M0,-3.0v7 M-2.5,-0.5L0,-3.0L2.5,-0.5"/>
  </g>
  <g id="arrowDown" transform="rotate(180) translate(-30 -48)">
    <use xlink:href="#rim"/>
    <path pointer-events="none" fill="none" stroke="white" stroke-width="1.5" d="M0,-3.0v7 M-2.5,-0.5L0,-3.0L2.5,-0.5"/>
  </g>
  <g id="arrowLeft" transform="rotate(270) translate(-36 17)">
    <use xlink:href="#rim"/>
    <path pointer-events="none" fill="none" stroke="white" stroke-width="1.5" d="M0,-3.0v7 M-2.5,-0.5L0,-3.0L2.5,-0.5"/>
  </g>
  <g id="resetDef">
    <use xlink:href="#rim2" fill="#404040"><set attributeName="fill" to="#808080" begin="reset.mouseover" end="reset.mouseout"/></use>
  </g>
</defs>
<script type="application/ecmascript">
var viewWidth = 558;
var viewHeight = 95;
var sectionId = 'dynsection-0';
</script>
<script type="application/ecmascript" xlink:href="svg.min.js"/>
<svg id="graph" class="graph">
<g id="viewport">
<title>/Users/fmachado/Repos/ANDIS_CleanArchitecture_Demo/src/TaskManagement.Domain</title>
<g id="clust1" class="cluster">
<title>clusterdir_68267d1309a1af8e8297ef4c3efbcdba</title>
<g id="a_clust1"><a xlink:href="dir_68267d1309a1af8e8297ef4c3efbcdba.html" target="_top" xlink:title="src">
<polygon fill="#edf0f7" stroke="#404040" stroke-dasharray="5,2" points="8,-8 8,-78.5 542,-78.5 542,-8 8,-8"/>
<text xml:space="preserve" text-anchor="middle" x="275" y="-65" font-family="Helvetica,sans-Serif" font-size="10.00">src</text>
</a>
</g>
</g>
<g id="clust2" class="cluster">
<title>clusterdir_ae09c2975db280a1b4d3d56b5fe48cdb</title>
<g id="a_clust2"><a xlink:href="dir_ae09c2975db280a1b4d3d56b5fe48cdb.html" target="_top">
<polygon fill="#edf0f7" stroke="#404040" stroke-width="2" points="16,-16 16,-51.25 534,-51.25 534,-16 16,-16"/>
</a>
</g>
</g>
<!-- dir_ae09c2975db280a1b4d3d56b5fe48cdb -->
<g id="node1" class="node">
<title>dir_ae09c2975db280a1b4d3d56b5fe48cdb</title>
<text xml:space="preserve" text-anchor="middle" x="89" y="-29.75" font-family="Helvetica,sans-Serif" font-size="10.00">TaskManagement.Domain</text>
</g>
<!-- dir_c1012492ccd4000d3fd212141e903156 -->
<g id="node2" class="node">
<title>dir_c1012492ccd4000d3fd212141e903156</title>
<g id="a_node2"><a xlink:href="dir_c1012492ccd4000d3fd212141e903156.html" target="_top" xlink:title="Entities">
<polygon fill="#a2b4d6" stroke="#404040" points="221.5,-43.25 172.5,-43.25 172.5,-24 221.5,-24 221.5,-43.25"/>
<text xml:space="preserve" text-anchor="middle" x="197" y="-29.75" font-family="Helvetica,sans-Serif" font-size="10.00">Entities</text>
</a>
</g>
</g>
<!-- dir_80801bd4f35c4031730df7a2b66e92ee -->
<g id="node3" class="node">
<title>dir_80801bd4f35c4031730df7a2b66e92ee</title>
<g id="a_node3"><a xlink:href="dir_80801bd4f35c4031730df7a2b66e92ee.html" target="_top" xlink:title="Events">
<polygon fill="#a2b4d6" stroke="#404040" points="286.38,-43.25 239.62,-43.25 239.62,-24 286.38,-24 286.38,-43.25"/>
<text xml:space="preserve" text-anchor="middle" x="263" y="-29.75" font-family="Helvetica,sans-Serif" font-size="10.00">Events</text>
</a>
</g>
</g>
<!-- dir_1aa53f0991ca6096c3bcb7e159734aad -->
<g id="node4" class="node">
<title>dir_1aa53f0991ca6096c3bcb7e159734aad</title>
<g id="a_node4"><a xlink:href="dir_1aa53f0991ca6096c3bcb7e159734aad.html" target="_top" xlink:title="Exceptions">
<polygon fill="#a2b4d6" stroke="#404040" points="369.38,-43.25 304.62,-43.25 304.62,-24 369.38,-24 369.38,-43.25"/>
<text xml:space="preserve" text-anchor="middle" x="337" y="-29.75" font-family="Helvetica,sans-Serif" font-size="10.00">Exceptions</text>
</a>
</g>
</g>
<!-- dir_62faa9f66449bd0198c1ae73786dd24c -->
<g id="node5" class="node">
<title>dir_62faa9f66449bd0198c1ae73786dd24c</title>
<g id="a_node5"><a xlink:href="dir_62faa9f66449bd0198c1ae73786dd24c.html" target="_top" xlink:title="Shared">
<polygon fill="#a2b4d6" stroke="#404040" points="434.38,-43.25 387.62,-43.25 387.62,-24 434.38,-24 434.38,-43.25"/>
<text xml:space="preserve" text-anchor="middle" x="411" y="-29.75" font-family="Helvetica,sans-Serif" font-size="10.00">Shared</text>
</a>
</g>
</g>
<!-- dir_bbc7794ae95c73958010145639b8da9d -->
<g id="node6" class="node">
<title>dir_bbc7794ae95c73958010145639b8da9d</title>
<g id="a_node6"><a xlink:href="dir_bbc7794ae95c73958010145639b8da9d.html" target="_top" xlink:title="ValueObjects">
<polygon fill="#a2b4d6" stroke="#404040" points="525.88,-43.25 452.12,-43.25 452.12,-24 525.88,-24 525.88,-43.25"/>
<text xml:space="preserve" text-anchor="middle" x="489" y="-29.75" font-family="Helvetica,sans-Serif" font-size="10.00">ValueObjects</text>
</a>
</g>
</g>
</g>
</svg>

<g id="navigator" transform="translate(0 0)" fill="#404254">
  <rect fill="#f2f5e9" fill-opacity="0.5" stroke="#606060" stroke-width=".5" x="0" y="0" width="60" height="60"/>
  <use id="zoomplus" xlink:href="#zoomPlus" x="17" y="9" onmousedown="handleZoom(evt,'in')"/>
  <use id="zoomminus" xlink:href="#zoomMin" x="42" y="9" onmousedown="handleZoom(evt,'out')"/>
  <use id="reset" xlink:href="#resetDef" x="30" y="36" onmousedown="handleReset()"/>
   <use id="arrowup" xlink:href="#arrowUp" x="0" y="0" onmousedown="handlePan(0,-1)"/>
  <use id="arrowright" xlink:href="#arrowRight" x="0" y="0" onmousedown="handlePan(1,0)"/>
  <use id="arrowdown" xlink:href="#arrowDown" x="0" y="0" onmousedown="handlePan(0,1)"/>
  <use id="arrowleft" xlink:href="#arrowLeft" x="0" y="0" onmousedown="handlePan(-1,0)"/>
</g>
<svg viewBox="0 0 15 15" width="100%" height="30px" preserveAspectRatio="xMaxYMin meet">
 <g id="arrow_out" transform="scale(0.3 0.3)">
  <a xlink:href="dir_ae09c2975db280a1b4d3d56b5fe48cdb_dep_org.svg" target="_base">
   <rect id="button" ry="5" rx="5" y="6" x="6" height="38" width="38"
        fill="#f2f5e9" fill-opacity="0.5" stroke="#606060" stroke-width="1.0"/>
   <path id="arrow"
     d="M 11.500037,31.436501 C 11.940474,20.09759 22.043105,11.32322 32.158766,21.979434 L 37.068811,17.246167 C 37.068811,17.246167 37.088388,32 37.088388,32 L 22.160133,31.978069 C 22.160133,31.978069 26.997745,27.140456 26.997745,27.140456 C 18.528582,18.264221 13.291696,25.230495 11.500037,31.436501 z"
     style="fill:#404040;"/>
  </a>
 </g>
</svg>

<style type='text/css'>
<![CDATA[
[data-mouse-over-selected='false'] { opacity: 0.7; }
[data-mouse-over-selected='true']  { opacity: 1.0; }
]]>
</style>
<script type="application/ecmascript"><![CDATA[
document.addEventListener('DOMContentLoaded', (event) => {
  highlightEdges();
  highlightAdjacentNodes();
});
]]></script>
</svg>
