<?xml version="1.0" encoding="UTF-8" standalone="no"?>
<!DOCTYPE svg PUBLIC "-//W3C//DTD SVG 1.1//EN"
 "http://www.w3.org/Graphics/SVG/1.1/DTD/svg11.dtd">
<!-- Generated by graphviz version 13.1.0 (20250701.0955)
 -->
<!-- Title: /Users/fmachado/Repos/ANDIS_CleanArchitecture_Demo/src/TaskManagement.API Pages: 1 -->
<!--zoomable 95 -->

<svg id="main" version="1.1" xmlns="http://www.w3.org/2000/svg" xmlns:xlink="http://www.w3.org/1999/xlink" xml:space="preserve" onload="init(evt)">

<style type="text/css"><![CDATA[
.node, .edge {opacity: 0.7;}
.node.selected, .edge.selected {opacity: 1;}
.edge:hover path { stroke: red; }
.edge:hover polygon { stroke: red; fill: red; }
]]></style>

<defs>
  <circle id="rim" cx="0" cy="0" r="7"/>
  <circle id="rim2" cx="0" cy="0" r="3.5"/>
  <g id="zoomPlus">
    <use xlink:href="#rim" fill="#404040"><set attributeName="fill" to="#808080" begin="zoomplus.mouseover" end="zoomplus.mouseout"/></use>
    <path d="M-4,0h8M0,-4v8" fill="none" stroke="white" stroke-width="1.5" pointer-events="none"/>
  </g>
  <g id="zoomMin">
    <use xlink:href="#rim" fill="#404040"><set attributeName="fill" to="#808080" begin="zoomminus.mouseover" end="zoomminus.mouseout"/></use>
    <path d="M-4,0h8" fill="none" stroke="white" stroke-width="1.5" pointer-events="none"/>
  </g>
  <g id="arrowUp" transform="translate(30 24)">
    <use xlink:href="#rim"/>
    <path pointer-events="none" fill="none" stroke="white" stroke-width="1.5" d="M0,-3.0v7 M-2.5,-0.5L0,-3.0L2.5,-0.5"/>
  </g>
  <g id="arrowRight" transform="rotate(90) translate(36 -43)">
    <use xlink:href="#rim"/>
    <path pointer-events="none" fill="none" stroke="white" stroke-width="1.5" d="M0,-3.0v7 M-2.5,-0.5L0,-3.0L2.5,-0.5"/>
  </g>
  <g id="arrowDown" transform="rotate(180) translate(-30 -48)">
    <use xlink:href="#rim"/>
    <path pointer-events="none" fill="none" stroke="white" stroke-width="1.5" d="M0,-3.0v7 M-2.5,-0.5L0,-3.0L2.5,-0.5"/>
  </g>
  <g id="arrowLeft" transform="rotate(270) translate(-36 17)">
    <use xlink:href="#rim"/>
    <path pointer-events="none" fill="none" stroke="white" stroke-width="1.5" d="M0,-3.0v7 M-2.5,-0.5L0,-3.0L2.5,-0.5"/>
  </g>
  <g id="resetDef">
    <use xlink:href="#rim2" fill="#404040"><set attributeName="fill" to="#808080" begin="reset.mouseover" end="reset.mouseout"/></use>
  </g>
</defs>
<script type="application/ecmascript">
var viewWidth = 538;
var viewHeight = 95;
var sectionId = 'dynsection-0';
</script>
<script type="application/ecmascript" xlink:href="svg.min.js"/>
<svg id="graph" class="graph">
<g id="viewport">
<title>/Users/fmachado/Repos/ANDIS_CleanArchitecture_Demo/src/TaskManagement.API</title>
<g id="clust1" class="cluster">
<title>clusterdir_68267d1309a1af8e8297ef4c3efbcdba</title>
<g id="a_clust1"><a xlink:href="dir_68267d1309a1af8e8297ef4c3efbcdba.html" target="_top" xlink:title="src">
<polygon fill="#edf0f7" stroke="#404040" stroke-dasharray="5,2" points="8,-8 8,-78.5 522,-78.5 522,-8 8,-8"/>
<text xml:space="preserve" text-anchor="middle" x="265" y="-65" font-family="Helvetica,sans-Serif" font-size="10.00">src</text>
</a>
</g>
</g>
<g id="clust2" class="cluster">
<title>clusterdir_e1b155cbcc663e464b30b1e0279830f5</title>
<g id="a_clust2"><a xlink:href="dir_e1b155cbcc663e464b30b1e0279830f5.html" target="_top">
<polygon fill="#edf0f7" stroke="#404040" stroke-width="2" points="16,-16 16,-51.25 514,-51.25 514,-16 16,-16"/>
</a>
</g>
</g>
<!-- dir_e1b155cbcc663e464b30b1e0279830f5 -->
<g id="node1" class="node">
<title>dir_e1b155cbcc663e464b30b1e0279830f5</title>
<text xml:space="preserve" text-anchor="middle" x="80" y="-29.75" font-family="Helvetica,sans-Serif" font-size="10.00">TaskManagement.API</text>
</g>
<!-- dir_74dceb3959a3b91896c101d0de053b77 -->
<g id="node2" class="node">
<title>dir_74dceb3959a3b91896c101d0de053b77</title>
<g id="a_node2"><a xlink:href="dir_74dceb3959a3b91896c101d0de053b77.html" target="_top" xlink:title="Controllers">
<polygon fill="#a2b4d6" stroke="#404040" points="217.62,-43.25 154.38,-43.25 154.38,-24 217.62,-24 217.62,-43.25"/>
<text xml:space="preserve" text-anchor="middle" x="186" y="-29.75" font-family="Helvetica,sans-Serif" font-size="10.00">Controllers</text>
</a>
</g>
</g>
<!-- dir_6767bfbd35b3002e90bcff760d764142 -->
<g id="node3" class="node">
<title>dir_6767bfbd35b3002e90bcff760d764142</title>
<g id="a_node3"><a xlink:href="dir_6767bfbd35b3002e90bcff760d764142.html" target="_top" xlink:title="Extensions">
<polygon fill="#a2b4d6" stroke="#404040" points="300.38,-43.25 235.62,-43.25 235.62,-24 300.38,-24 300.38,-43.25"/>
<text xml:space="preserve" text-anchor="middle" x="268" y="-29.75" font-family="Helvetica,sans-Serif" font-size="10.00">Extensions</text>
</a>
</g>
</g>
<!-- dir_79c3c140909ffeed49c396e1e21d3b09 -->
<g id="node4" class="node">
<title>dir_79c3c140909ffeed49c396e1e21d3b09</title>
<g id="a_node4"><a xlink:href="dir_79c3c140909ffeed49c396e1e21d3b09.html" target="_top" xlink:title="Middleware">
<polygon fill="#a2b4d6" stroke="#404040" points="383.75,-43.25 318.25,-43.25 318.25,-24 383.75,-24 383.75,-43.25"/>
<text xml:space="preserve" text-anchor="middle" x="351" y="-29.75" font-family="Helvetica,sans-Serif" font-size="10.00">Middleware</text>
</a>
</g>
</g>
<!-- dir_b545a8c2784fafe003d7f53c0b9e27e5 -->
<g id="node5" class="node">
<title>dir_b545a8c2784fafe003d7f53c0b9e27e5</title>
<g id="a_node5"><a xlink:href="dir_b545a8c2784fafe003d7f53c0b9e27e5.html" target="_top" xlink:title="obj">
<polygon fill="#a2b4d6" stroke="#404040" points="430.4,-43.25 401.6,-43.25 401.6,-24 430.4,-24 430.4,-43.25"/>
<text xml:space="preserve" text-anchor="middle" x="416" y="-29.75" font-family="Helvetica,sans-Serif" font-size="10.00">obj</text>
</a>
</g>
</g>
<!-- dir_d9aaca5aa9ceaa1bddbd81d4305c67d2 -->
<g id="node6" class="node">
<title>dir_d9aaca5aa9ceaa1bddbd81d4305c67d2</title>
<g id="a_node6"><a xlink:href="dir_d9aaca5aa9ceaa1bddbd81d4305c67d2.html" target="_top" xlink:title="Requests">
<polygon fill="#a2b4d6" stroke="#404040" points="506,-43.25 448,-43.25 448,-24 506,-24 506,-43.25"/>
<text xml:space="preserve" text-anchor="middle" x="477" y="-29.75" font-family="Helvetica,sans-Serif" font-size="10.00">Requests</text>
</a>
</g>
</g>
</g>
</svg>

<g id="navigator" transform="translate(0 0)" fill="#404254">
  <rect fill="#f2f5e9" fill-opacity="0.5" stroke="#606060" stroke-width=".5" x="0" y="0" width="60" height="60"/>
  <use id="zoomplus" xlink:href="#zoomPlus" x="17" y="9" onmousedown="handleZoom(evt,'in')"/>
  <use id="zoomminus" xlink:href="#zoomMin" x="42" y="9" onmousedown="handleZoom(evt,'out')"/>
  <use id="reset" xlink:href="#resetDef" x="30" y="36" onmousedown="handleReset()"/>
   <use id="arrowup" xlink:href="#arrowUp" x="0" y="0" onmousedown="handlePan(0,-1)"/>
  <use id="arrowright" xlink:href="#arrowRight" x="0" y="0" onmousedown="handlePan(1,0)"/>
  <use id="arrowdown" xlink:href="#arrowDown" x="0" y="0" onmousedown="handlePan(0,1)"/>
  <use id="arrowleft" xlink:href="#arrowLeft" x="0" y="0" onmousedown="handlePan(-1,0)"/>
</g>
<svg viewBox="0 0 15 15" width="100%" height="30px" preserveAspectRatio="xMaxYMin meet">
 <g id="arrow_out" transform="scale(0.3 0.3)">
  <a xlink:href="dir_e1b155cbcc663e464b30b1e0279830f5_dep_org.svg" target="_base">
   <rect id="button" ry="5" rx="5" y="6" x="6" height="38" width="38"
        fill="#f2f5e9" fill-opacity="0.5" stroke="#606060" stroke-width="1.0"/>
   <path id="arrow"
     d="M 11.500037,31.436501 C 11.940474,20.09759 22.043105,11.32322 32.158766,21.979434 L 37.068811,17.246167 C 37.068811,17.246167 37.088388,32 37.088388,32 L 22.160133,31.978069 C 22.160133,31.978069 26.997745,27.140456 26.997745,27.140456 C 18.528582,18.264221 13.291696,25.230495 11.500037,31.436501 z"
     style="fill:#404040;"/>
  </a>
 </g>
</svg>

<style type='text/css'>
<![CDATA[
[data-mouse-over-selected='false'] { opacity: 0.7; }
[data-mouse-over-selected='true']  { opacity: 1.0; }
]]>
</style>
<script type="application/ecmascript"><![CDATA[
document.addEventListener('DOMContentLoaded', (event) => {
  highlightEdges();
  highlightAdjacentNodes();
});
]]></script>
</svg>
