<?xml version="1.0" encoding="UTF-8" standalone="no"?>
<!DOCTYPE svg PUBLIC "-//W3C//DTD SVG 1.1//EN"
 "http://www.w3.org/Graphics/SVG/1.1/DTD/svg11.dtd">
<!-- Generated by graphviz version 13.1.0 (20250701.0955)
 -->
<!-- Title: Graphical Class Hierarchy Pages: 1 -->
<svg width="378pt" height="186pt"
 viewBox="0.00 0.00 378.00 186.00" xmlns="http://www.w3.org/2000/svg" xmlns:xlink="http://www.w3.org/1999/xlink">
<g id="graph0" class="graph" transform="scale(1 1) rotate(0) translate(4 181.5)">
<title>Graphical Class Hierarchy</title>
<!-- Node0 -->
<g id="Node000000" class="node">
<title>Node0</title>
<g id="a_Node000000"><a xlink:href="classTaskManagement_1_1Domain_1_1Events_1_1DomainEvent.html" target="_top" xlink:title="DomainEvent es una clase base abstracta para todos los eventos de dominio en el sistema.">
<polygon fill="white" stroke="#666666" points="166.75,-103.5 0,-103.5 0,-73 166.75,-73 166.75,-103.5"/>
<text xml:space="preserve" text-anchor="start" x="8" y="-90" font-family="Helvetica,sans-Serif" font-size="10.00">TaskManagement.Domain.Events.</text>
<text xml:space="preserve" text-anchor="middle" x="83.38" y="-78.75" font-family="Helvetica,sans-Serif" font-size="10.00">DomainEvent</text>
</a>
</g>
</g>
<!-- Node1 -->
<g id="Node000001" class="node">
<title>Node1</title>
<g id="a_Node000001"><a xlink:href="classTaskManagement_1_1Domain_1_1Events_1_1TaskAssignedEvent.html" target="_top" xlink:title=" ">
<polygon fill="white" stroke="#666666" points="369.5,-177.5 202.75,-177.5 202.75,-147 369.5,-147 369.5,-177.5"/>
<text xml:space="preserve" text-anchor="start" x="210.75" y="-164" font-family="Helvetica,sans-Serif" font-size="10.00">TaskManagement.Domain.Events.</text>
<text xml:space="preserve" text-anchor="middle" x="286.12" y="-152.75" font-family="Helvetica,sans-Serif" font-size="10.00">TaskAssignedEvent</text>
</a>
</g>
</g>
<!-- Node0&#45;&gt;Node1 -->
<g id="edge19_Node000000_Node000001" class="edge">
<title>Node0&#45;&gt;Node1</title>
<g id="a_edge19_Node000000_Node000001"><a xlink:title=" ">
<path fill="none" stroke="#63b8ff" d="M130.06,-108.38C151.87,-117.68 178.45,-128.56 202.75,-137.25 211.76,-140.47 221.41,-143.65 230.82,-146.59"/>
<polygon fill="#63b8ff" stroke="#63b8ff" points="131.72,-105.29 121.15,-104.56 128.96,-111.72 131.72,-105.29"/>
</a>
</g>
</g>
<!-- Node2 -->
<g id="Node000002" class="node">
<title>Node2</title>
<g id="a_Node000002"><a xlink:href="classTaskManagement_1_1Domain_1_1Events_1_1TaskCompletedEvent.html" target="_top" xlink:title=" ">
<polygon fill="white" stroke="#666666" points="369.5,-128.5 202.75,-128.5 202.75,-98 369.5,-98 369.5,-128.5"/>
<text xml:space="preserve" text-anchor="start" x="210.75" y="-115" font-family="Helvetica,sans-Serif" font-size="10.00">TaskManagement.Domain.Events.</text>
<text xml:space="preserve" text-anchor="middle" x="286.12" y="-103.75" font-family="Helvetica,sans-Serif" font-size="10.00">TaskCompletedEvent</text>
</a>
</g>
</g>
<!-- Node0&#45;&gt;Node2 -->
<g id="edge20_Node000000_Node000002" class="edge">
<title>Node0&#45;&gt;Node2</title>
<g id="a_edge20_Node000000_Node000002"><a xlink:title=" ">
<path fill="none" stroke="#63b8ff" d="M178.47,-99.97C186.5,-100.97 194.58,-101.97 202.5,-102.96"/>
<polygon fill="#63b8ff" stroke="#63b8ff" points="179.04,-96.51 168.69,-98.75 178.18,-103.46 179.04,-96.51"/>
</a>
</g>
</g>
<!-- Node3 -->
<g id="Node000003" class="node">
<title>Node3</title>
<g id="a_Node000003"><a xlink:href="classTaskManagement_1_1Domain_1_1Events_1_1TaskCreatedEvent.html" target="_top" xlink:title=" ">
<polygon fill="white" stroke="#666666" points="369.5,-79.5 202.75,-79.5 202.75,-49 369.5,-49 369.5,-79.5"/>
<text xml:space="preserve" text-anchor="start" x="210.75" y="-66" font-family="Helvetica,sans-Serif" font-size="10.00">TaskManagement.Domain.Events.</text>
<text xml:space="preserve" text-anchor="middle" x="286.12" y="-54.75" font-family="Helvetica,sans-Serif" font-size="10.00">TaskCreatedEvent</text>
</a>
</g>
</g>
<!-- Node0&#45;&gt;Node3 -->
<g id="edge21_Node000000_Node000003" class="edge">
<title>Node0&#45;&gt;Node3</title>
<g id="a_edge21_Node000000_Node000003"><a xlink:title=" ">
<path fill="none" stroke="#63b8ff" d="M178.47,-77C186.5,-76.04 194.58,-75.08 202.5,-74.13"/>
<polygon fill="#63b8ff" stroke="#63b8ff" points="178.2,-73.51 168.69,-78.17 179.03,-80.46 178.2,-73.51"/>
</a>
</g>
</g>
<!-- Node4 -->
<g id="Node000004" class="node">
<title>Node4</title>
<g id="a_Node000004"><a xlink:href="classTaskManagement_1_1Domain_1_1Events_1_1TaskPriorityChangedEvent.html" target="_top" xlink:title=" ">
<polygon fill="white" stroke="#666666" points="369.5,-30.5 202.75,-30.5 202.75,0 369.5,0 369.5,-30.5"/>
<text xml:space="preserve" text-anchor="start" x="210.75" y="-17" font-family="Helvetica,sans-Serif" font-size="10.00">TaskManagement.Domain.Events.</text>
<text xml:space="preserve" text-anchor="middle" x="286.12" y="-5.75" font-family="Helvetica,sans-Serif" font-size="10.00">TaskPriorityChangedEvent</text>
</a>
</g>
</g>
<!-- Node0&#45;&gt;Node4 -->
<g id="edge22_Node000000_Node000004" class="edge">
<title>Node0&#45;&gt;Node4</title>
<g id="a_edge22_Node000000_Node000004"><a xlink:title=" ">
<path fill="none" stroke="#63b8ff" d="M131.12,-68.16C152.74,-59.16 178.87,-48.69 202.75,-40.25 211.77,-37.06 221.42,-33.9 230.84,-30.96"/>
<polygon fill="#63b8ff" stroke="#63b8ff" points="129.84,-64.9 121.97,-71.99 132.55,-71.35 129.84,-64.9"/>
</a>
</g>
</g>
</g>
</svg>
