<?xml version="1.0" encoding="UTF-8" standalone="no"?>
<!DOCTYPE svg PUBLIC "-//W3C//DTD SVG 1.1//EN"
 "http://www.w3.org/Graphics/SVG/1.1/DTD/svg11.dtd">
<!-- Generated by graphviz version 13.1.0 (20250701.0955)
 -->
<!-- Title: Graphical Class Hierarchy Pages: 1 -->
<svg width="288pt" height="137pt"
 viewBox="0.00 0.00 288.00 137.00" xmlns="http://www.w3.org/2000/svg" xmlns:xlink="http://www.w3.org/1999/xlink">
<g id="graph0" class="graph" transform="scale(1 1) rotate(0) translate(4 132.5)">
<title>Graphical Class Hierarchy</title>
<!-- Node0 -->
<g id="Node000000" class="node">
<title>Node0</title>
<g id="a_Node000000"><a xlink:href="classException.html" target="_top" xlink:title=" ">
<polygon fill="white" stroke="#666666" points="59.5,-73.88 0,-73.88 0,-54.62 59.5,-54.62 59.5,-73.88"/>
<text xml:space="preserve" text-anchor="middle" x="29.75" y="-60.38" font-family="Helvetica,sans-Serif" font-size="10.00">Exception</text>
</a>
</g>
</g>
<!-- Node1 -->
<g id="Node000001" class="node">
<title>Node1</title>
<g id="a_Node000001"><a xlink:href="classTaskManagement_1_1Application_1_1Exceptions_1_1NotFoundException.html" target="_top" xlink:title="NotFoundException se lanza cuando una entidad solicitada no puede ser encontrada.">
<polygon fill="white" stroke="#666666" points="264.88,-128.5 110.88,-128.5 110.88,-98 264.88,-98 264.88,-128.5"/>
<text xml:space="preserve" text-anchor="start" x="118.88" y="-115" font-family="Helvetica,sans-Serif" font-size="10.00">TaskManagement.Application.</text>
<text xml:space="preserve" text-anchor="middle" x="187.88" y="-103.75" font-family="Helvetica,sans-Serif" font-size="10.00">Exceptions.NotFoundException</text>
</a>
</g>
</g>
<!-- Node0&#45;&gt;Node1 -->
<g id="edge4_Node000000_Node000001" class="edge">
<title>Node0&#45;&gt;Node1</title>
<g id="a_edge4_Node000000_Node000001"><a xlink:title=" ">
<path fill="none" stroke="#63b8ff" d="M67.18,-78.39C76.37,-81.78 86.25,-85.28 95.5,-88.25 105.52,-91.47 116.24,-94.64 126.69,-97.59"/>
<polygon fill="#63b8ff" stroke="#63b8ff" points="68.41,-75.12 57.82,-74.88 65.96,-81.67 68.41,-75.12"/>
</a>
</g>
</g>
<!-- Node2 -->
<g id="Node000002" class="node">
<title>Node2</title>
<g id="a_Node000002"><a xlink:href="classTaskManagement_1_1Application_1_1Exceptions_1_1ValidationException.html" target="_top" xlink:title="ValidationException se lanza cuando la validación de entrada falla en la capa de aplicación.">
<polygon fill="white" stroke="#666666" points="264.5,-79.5 111.25,-79.5 111.25,-49 264.5,-49 264.5,-79.5"/>
<text xml:space="preserve" text-anchor="start" x="119.25" y="-66" font-family="Helvetica,sans-Serif" font-size="10.00">TaskManagement.Application.</text>
<text xml:space="preserve" text-anchor="middle" x="187.88" y="-54.75" font-family="Helvetica,sans-Serif" font-size="10.00">Exceptions.ValidationException</text>
</a>
</g>
</g>
<!-- Node0&#45;&gt;Node2 -->
<g id="edge5_Node000000_Node000002" class="edge">
<title>Node0&#45;&gt;Node2</title>
<g id="a_edge5_Node000000_Node000002"><a xlink:title=" ">
<path fill="none" stroke="#63b8ff" d="M70.94,-64.25C83.19,-64.25 97.09,-64.25 110.9,-64.25"/>
<polygon fill="#63b8ff" stroke="#63b8ff" points="71.26,-60.75 61.26,-64.25 71.26,-67.75 71.26,-60.75"/>
</a>
</g>
</g>
<!-- Node3 -->
<g id="Node000003" class="node">
<title>Node3</title>
<g id="a_Node000003"><a xlink:href="classTaskManagement_1_1Domain_1_1Exceptions_1_1DomainException.html" target="_top" xlink:title="DomainException es la clase de excepción base para todos los errores de capa de dominio.">
<polygon fill="white" stroke="#666666" points="280.25,-30.5 95.5,-30.5 95.5,0 280.25,0 280.25,-30.5"/>
<text xml:space="preserve" text-anchor="start" x="103.5" y="-17" font-family="Helvetica,sans-Serif" font-size="10.00">TaskManagement.Domain.Exceptions.</text>
<text xml:space="preserve" text-anchor="middle" x="187.88" y="-5.75" font-family="Helvetica,sans-Serif" font-size="10.00">DomainException</text>
</a>
</g>
</g>
<!-- Node0&#45;&gt;Node3 -->
<g id="edge6_Node000000_Node000003" class="edge">
<title>Node0&#45;&gt;Node3</title>
<g id="a_edge6_Node000000_Node000003"><a xlink:title=" ">
<path fill="none" stroke="#63b8ff" d="M67.18,-50.11C76.37,-46.72 86.25,-43.22 95.5,-40.25 105.52,-37.03 116.24,-33.86 126.69,-30.91"/>
<polygon fill="#63b8ff" stroke="#63b8ff" points="65.96,-46.83 57.82,-53.62 68.41,-53.38 65.96,-46.83"/>
</a>
</g>
</g>
</g>
</svg>
