<?xml version="1.0" encoding="UTF-8" standalone="no"?>
<!DOCTYPE svg PUBLIC "-//W3C//DTD SVG 1.1//EN"
 "http://www.w3.org/Graphics/SVG/1.1/DTD/svg11.dtd">
<!-- Generated by graphviz version 13.1.0 (20250701.0955)
 -->
<!-- Title: TaskManagement.Application.Interfaces.IDomainEventDispatcher Pages: 1 -->
<svg width="192pt" height="193pt"
 viewBox="0.00 0.00 192.00 193.00" xmlns="http://www.w3.org/2000/svg" xmlns:xlink="http://www.w3.org/1999/xlink">
<g id="graph0" class="graph" transform="scale(1 1) rotate(0) translate(4 188.5)">
<title>TaskManagement.Application.Interfaces.IDomainEventDispatcher</title>
<!-- Node1 -->
<g id="Node000001" class="node">
<title>Node1</title>
<g id="a_Node000001"><a xlink:title="IDomainEventDispatcher es la interfaz para publicación de eventos de dominio.">
<polygon fill="#999999" stroke="none" points="174.12,-184.5 10.12,-184.5 10.12,-123.5 174.12,-123.5 174.12,-184.5"/>
<text xml:space="preserve" text-anchor="start" x="14.12" y="-171" font-family="Helvetica,sans-Serif" font-size="10.00">TaskManagement.Application.</text>
<text xml:space="preserve" text-anchor="start" x="14.12" y="-159.75" font-family="Helvetica,sans-Serif" font-size="10.00">Interfaces.IDomainEventDispatcher</text>
<text xml:space="preserve" text-anchor="start" x="90.62" y="-144.5" font-family="Helvetica,sans-Serif" font-size="10.00"> </text>
<text xml:space="preserve" text-anchor="start" x="32.44" y="-129.25" font-family="Helvetica,sans-Serif" font-size="10.00">+</text>
<text xml:space="preserve" text-anchor="start" x="60.75" y="-129.25" font-family="Helvetica,sans-Serif" font-size="10.00">DispatchAsync()</text>
<polygon fill="#666666" stroke="#666666" points="10.12,-156 10.12,-156 174.12,-156 174.12,-156 10.12,-156"/>
<polygon fill="#666666" stroke="#666666" points="10.12,-140.75 10.12,-140.75 174.12,-140.75 174.12,-140.75 10.12,-140.75"/>
<polygon fill="none" stroke="#666666" points="10.12,-123.5 10.12,-184.5 174.12,-184.5 174.12,-123.5 10.12,-123.5"/>
</a>
</g>
</g>
<!-- Node2 -->
<g id="Node000002" class="node">
<title>Node2</title>
<g id="a_Node000002"><a xlink:href="classTaskManagement_1_1Infrastructure_1_1EventDispatching_1_1MediatRDomainEventDispatcher.html" target="_top" xlink:title="MediatRDomainEventDispatcher es la implementación de publicación de eventos de dominio utilizando Med...">
<polygon fill="white" stroke="none" points="184.25,-87.5 0,-87.5 0,0 184.25,0 184.25,-87.5"/>
<text xml:space="preserve" text-anchor="start" x="4" y="-74" font-family="Helvetica,sans-Serif" font-size="10.00">TaskManagement.Infrastructure.</text>
<text xml:space="preserve" text-anchor="start" x="4" y="-62.75" font-family="Helvetica,sans-Serif" font-size="10.00">EventDispatching.MediatRDomainEvent</text>
<text xml:space="preserve" text-anchor="start" x="68.5" y="-51.5" font-family="Helvetica,sans-Serif" font-size="10.00">Dispatcher</text>
<text xml:space="preserve" text-anchor="start" x="90.62" y="-36.25" font-family="Helvetica,sans-Serif" font-size="10.00"> </text>
<text xml:space="preserve" text-anchor="start" x="8.25" y="-21" font-family="Helvetica,sans-Serif" font-size="10.00">+</text>
<text xml:space="preserve" text-anchor="start" x="22.5" y="-21" font-family="Helvetica,sans-Serif" font-size="10.00">MediatRDomainEventDispatcher()</text>
<text xml:space="preserve" text-anchor="start" x="8.25" y="-5.75" font-family="Helvetica,sans-Serif" font-size="10.00">+</text>
<text xml:space="preserve" text-anchor="start" x="22.5" y="-5.75" font-family="Helvetica,sans-Serif" font-size="10.00">DispatchAsync()</text>
<polygon fill="#666666" stroke="#666666" points="0,-47.75 0,-47.75 184.25,-47.75 184.25,-47.75 0,-47.75"/>
<polygon fill="#666666" stroke="#666666" points="0,-32.5 0,-32.5 184.25,-32.5 184.25,-32.5 0,-32.5"/>
<polygon fill="none" stroke="#666666" points="0,0 0,-87.5 184.25,-87.5 184.25,0 0,0"/>
</a>
</g>
</g>
<!-- Node1&#45;&gt;Node2 -->
<g id="edge1_Node000001_Node000002" class="edge">
<title>Node1&#45;&gt;Node2</title>
<g id="a_edge1_Node000001_Node000002"><a xlink:title=" ">
<path fill="none" stroke="#63b8ff" d="M92.12,-112.25C92.12,-104.16 92.12,-95.64 92.12,-87.48"/>
<polygon fill="none" stroke="#63b8ff" points="88.63,-112.19 92.13,-122.19 95.63,-112.19 88.63,-112.19"/>
</a>
</g>
</g>
</g>
</svg>
