<?xml version="1.0" encoding="UTF-8" standalone="no"?>
<!DOCTYPE svg PUBLIC "-//W3C//DTD SVG 1.1//EN"
 "http://www.w3.org/Graphics/SVG/1.1/DTD/svg11.dtd">
<!-- Generated by graphviz version 13.1.0 (20250701.0955)
 -->
<!-- Title: TaskManagement.Application.Interfaces.IUnitOfWork Pages: 1 -->
<svg width="157pt" height="181pt"
 viewBox="0.00 0.00 157.00 181.00" xmlns="http://www.w3.org/2000/svg" xmlns:xlink="http://www.w3.org/1999/xlink">

<svg id="main" version="1.1" xmlns="http://www.w3.org/2000/svg" xmlns:xlink="http://www.w3.org/1999/xlink" xml:space="preserve">

<style type="text/css"><![CDATA[
.node, .edge {opacity: 0.7;}
.node.selected, .edge.selected {opacity: 1;}
.edge:hover path { stroke: red; }
.edge:hover polygon { stroke: red; fill: red; }
]]></style>
<script type="application/ecmascript" xlink:href="svg.min.js"/>
<svg id="graph" class="graph">
<g id="graph0" class="graph" transform="scale(1 1) rotate(0) translate(4 177.25)">
<title>TaskManagement.Application.Interfaces.IUnitOfWork</title>
<!-- Node1 -->
<g id="Node000001" class="node">
<title>Node1</title>
<g id="a_Node000001"><a xlink:title="IUnitOfWork es la abstracción para coordinar la persistencia de cambios de entidades.">
<polygon fill="#999999" stroke="none" points="144.12,-173.25 4.88,-173.25 4.88,-112.25 144.12,-112.25 144.12,-173.25"/>
<text xml:space="preserve" text-anchor="start" x="8.88" y="-159.75" font-family="Helvetica,sans-Serif" font-size="10.00">TaskManagement.Application.</text>
<text xml:space="preserve" text-anchor="start" x="24.25" y="-148.5" font-family="Helvetica,sans-Serif" font-size="10.00">Interfaces.IUnitOfWork</text>
<text xml:space="preserve" text-anchor="start" x="73" y="-133.25" font-family="Helvetica,sans-Serif" font-size="10.00"> </text>
<text xml:space="preserve" text-anchor="start" x="15.38" y="-118" font-family="Helvetica,sans-Serif" font-size="10.00">+</text>
<text xml:space="preserve" text-anchor="start" x="31.88" y="-118" font-family="Helvetica,sans-Serif" font-size="10.00">SaveChangesAsync()</text>
<polygon fill="#666666" stroke="#666666" points="4.88,-144.75 4.88,-144.75 144.12,-144.75 144.12,-144.75 4.88,-144.75"/>
<polygon fill="#666666" stroke="#666666" points="4.88,-129.5 4.88,-129.5 144.12,-129.5 144.12,-129.5 4.88,-129.5"/>
<polygon fill="none" stroke="#666666" points="4.88,-112.25 4.88,-173.25 144.12,-173.25 144.12,-112.25 4.88,-112.25"/>
</a>
</g>
</g>
<!-- Node2 -->
<g id="Node000002" class="node">
<title>Node2</title>
<g id="a_Node000002"><a xlink:href="classTaskManagement_1_1Infrastructure_1_1Persistence_1_1TaskDbContext.html" target="_top" xlink:title="TaskDbContext es el DbContext de Entity Framework Core para gestión de tareas.">
<polygon fill="white" stroke="none" points="149,-76.25 0,-76.25 0,0 149,0 149,-76.25"/>
<text xml:space="preserve" text-anchor="start" x="4" y="-62.75" font-family="Helvetica,sans-Serif" font-size="10.00">TaskManagement.Infrastructure.</text>
<text xml:space="preserve" text-anchor="start" x="13" y="-51.5" font-family="Helvetica,sans-Serif" font-size="10.00">Persistence.TaskDbContext</text>
<text xml:space="preserve" text-anchor="start" x="16.31" y="-36.25" font-family="Helvetica,sans-Serif" font-size="10.00">+</text>
<text xml:space="preserve" text-anchor="start" x="38.62" y="-36.25" font-family="Helvetica,sans-Serif" font-size="10.00">Tasks</text>
<text xml:space="preserve" text-anchor="start" x="16.31" y="-21" font-family="Helvetica,sans-Serif" font-size="10.00">+</text>
<text xml:space="preserve" text-anchor="start" x="38.62" y="-21" font-family="Helvetica,sans-Serif" font-size="10.00">TaskDbContext()</text>
<text xml:space="preserve" text-anchor="start" x="16.69" y="-5.75" font-family="Helvetica,sans-Serif" font-size="10.00">#</text>
<text xml:space="preserve" text-anchor="start" x="38.62" y="-5.75" font-family="Helvetica,sans-Serif" font-size="10.00">OnModelCreating()</text>
<polygon fill="#666666" stroke="#666666" points="0,-47.75 0,-47.75 149,-47.75 149,-47.75 0,-47.75"/>
<polygon fill="#666666" stroke="#666666" points="0,-32.5 0,-32.5 36.62,-32.5 36.62,-32.5 0,-32.5"/>
<polygon fill="#666666" stroke="#666666" points="36.62,-32.5 36.62,-32.5 149,-32.5 149,-32.5 36.62,-32.5"/>
<polygon fill="none" stroke="#666666" points="0,0 0,-76.25 149,-76.25 149,0 0,0"/>
</a>
</g>
</g>
<!-- Node1&#45;&gt;Node2 -->
<g id="edge1_Node000001_Node000002" class="edge">
<title>Node1&#45;&gt;Node2</title>
<g id="a_edge1_Node000001_Node000002"><a xlink:title=" ">
<path fill="none" stroke="#63b8ff" d="M74.5,-101.09C74.5,-92.88 74.5,-84.3 74.5,-76.22"/>
<polygon fill="none" stroke="#63b8ff" points="71,-100.83 74.5,-110.83 78,-100.83 71,-100.83"/>
</a>
</g>
</g>
</g>
</svg>
</svg>

<style type='text/css'>
<![CDATA[
[data-mouse-over-selected='false'] { opacity: 0.7; }
[data-mouse-over-selected='true']  { opacity: 1.0; }
]]>
</style>
<script type="application/ecmascript"><![CDATA[
document.addEventListener('DOMContentLoaded', (event) => {
  highlightEdges();
  highlightAdjacentNodes();
});
]]></script>
</svg>
